<?xml version="1.0" standalone="no"?>
<!DOCTYPE svg PUBLIC "-//W3C//DTD SVG 20010904//EN"
 "http://www.w3.org/TR/2001/REC-SVG-20010904/DTD/svg10.dtd">
<svg version="1.0" xmlns="http://www.w3.org/2000/svg"
 width="700.000000pt" height="700.000000pt" viewBox="0 0 700.000000 700.000000"
 preserveAspectRatio="xMidYMid meet">
<metadata>
Created by potrace 1.11, written by Peter Selinger 2001-2013
</metadata>
<g transform="translate(0.000000,700.000000) scale(0.100000,-0.100000)"
fill="#000000" stroke="none">
<path d="M3402 6589 c-46 -27 -85 -49 -87 -49 -2 0 -50 -27 -107 -61 -57 -34
-122 -72 -145 -85 -23 -12 -111 -63 -195 -112 -84 -49 -173 -100 -198 -114
-92 -52 -120 -68 -200 -117 -45 -28 -84 -51 -86 -51 -2 0 -21 -11 -42 -23 -20
-13 -57 -35 -82 -49 -162 -91 -462 -266 -499 -291 -278 -191 -382 -579 -237
-887 84 -178 180 -264 476 -428 25 -14 57 -33 72 -43 14 -11 29 -19 33 -19 5
0 130 -71 175 -100 8 -6 22 -13 30 -17 8 -4 42 -23 75 -43 33 -20 67 -40 75
-44 8 -4 24 -12 35 -19 11 -7 51 -30 88 -52 37 -21 66 -43 64 -48 -1 -5 -25
-21 -52 -37 -64 -36 -251 -143 -540 -310 -126 -74 -250 -145 -275 -158 -25
-14 -67 -39 -95 -57 -27 -18 -75 -45 -105 -62 -30 -16 -73 -41 -95 -55 -22
-14 -63 -37 -90 -52 -28 -14 -57 -31 -65 -36 -8 -6 -84 -50 -169 -98 -84 -49
-181 -110 -215 -136 -270 -212 -341 -604 -164 -905 46 -78 160 -189 248 -243
41 -25 179 -105 305 -178 127 -73 261 -151 300 -174 38 -22 74 -43 80 -45 5
-2 38 -22 73 -43 34 -21 64 -38 66 -38 2 0 33 -17 67 -38 35 -21 89 -52 119
-69 30 -17 298 -171 595 -343 297 -172 556 -322 575 -332 19 -11 93 -54 163
-94 l128 -75 167 97 c92 53 188 108 213 123 25 14 111 64 192 111 158 91 153
88 242 139 54 31 398 230 840 485 88 51 183 106 212 122 28 15 50 31 48 34 -2
4 1 7 8 7 7 0 54 24 105 54 51 30 101 59 110 64 390 227 403 235 478 310 126
128 193 281 199 460 6 175 -41 325 -145 460 -84 108 -108 124 -675 450 -832
478 -1145 660 -1145 666 0 4 26 22 58 40 78 44 86 49 347 200 127 73 243 140
258 148 16 9 36 21 45 26 10 6 54 31 99 58 199 115 282 198 357 357 50 106 65
183 61 314 -4 157 -46 279 -139 402 -61 82 -139 144 -288 231 -168 98 -159 96
-142 26 46 -189 -19 -400 -164 -529 -19 -18 -105 -72 -191 -122 -86 -50 -250
-145 -366 -212 -115 -68 -223 -130 -240 -140 -53 -30 -139 -81 -155 -90 -76
-48 -381 -220 -390 -220 -20 0 -364 202 -399 234 -60 56 -137 188 -158 270 -3
11 -8 66 -10 122 -4 82 -1 114 15 173 29 101 84 193 155 259 211 198 265 263
333 402 33 67 70 172 80 225 20 107 22 142 19 245 -3 102 -24 232 -43 266 -5
9 -32 -2 -90 -37z m498 -3365 c206 -119 481 -277 610 -351 457 -264 454 -261
515 -358 45 -70 65 -150 61 -248 -6 -133 -79 -254 -201 -332 -27 -17 -57 -35
-65 -38 -8 -4 -22 -11 -30 -17 -42 -28 -172 -100 -180 -100 -6 0 -10 -4 -10
-10 0 -5 -4 -10 -9 -10 -5 0 -129 -70 -276 -155 -147 -85 -269 -155 -272 -155
-2 0 -20 -11 -41 -24 -20 -13 -77 -47 -126 -76 -124 -73 -189 -132 -254 -230
-67 -100 -99 -183 -116 -302 -4 -34 -12 -27 -14 12 -4 60 -48 184 -92 260 -46
80 -139 177 -213 224 -86 55 -368 216 -378 216 -5 0 -9 5 -9 10 0 6 -4 10 -9
10 -7 0 -117 61 -181 100 -8 5 -118 68 -244 140 -284 163 -293 169 -338 215
-120 124 -150 316 -74 470 51 103 104 148 326 276 107 62 255 147 328 191 73
43 135 78 137 78 1 0 65 37 141 81 77 45 162 94 189 109 28 15 131 75 230 134
116 68 187 104 200 101 11 -2 189 -102 395 -221z"/>
</g>
</svg>
