<svg xmlns="http://www.w3.org/2000/svg" viewBox="0 0 128 128"><title>AppVeyor Logo</title><circle cx="64" cy="64.15" r="59.75" fill="#fff"/><path fill="#09a9ed" fill-rule="evenodd" d="M64 0A64 64 0 1 1 0 64 64 64 0 0 1 64 0zm15.71 76.43c7.16-8.91 5.92-21.69-2.75-28.56s-21.51-5.21-28.67 3.7-5.92 21.7 2.71 28.56 21.51 5.21 28.67-3.7zM45.54 118c3.87 1.69 12.17 3.1 16.46 3.13l27.83-40.26c9.11-13.53 6.74-31.69-5.9-41.69-11.17-8.84-26.82-8.49-38.09-.11L7.14 69.1c.94 10.29 4 15.4 3.74 15.65L33 60.61a30.25 30.25 0 0 0 37 33.91z"/></svg>
