<?xml version="1.0" encoding="UTF-8"?>
<!DOCTYPE svg PUBLIC "-//W3C//DTD SVG 1.1//EN" "http://www.w3.org/Graphics/SVG/1.1/DTD/svg11.dtd">
<svg version="1.1" xmlns="http://www.w3.org/2000/svg" xmlns:xlink="http://www.w3.org/1999/xlink" x="0" y="0" width="600" height="200" viewBox="0, 0, 600, 200">
  <g id="Background">
    <rect x="0" y="0" width="600" height="200" fill="#000000" fill-opacity="0"/>
    <g stroke-width="1px">
      <line x1="12" y1="0" x2="12" y2="200" stroke="#AAAAAA" stroke-opacity="0.25"/>
      <line x1="24" y1="0" x2="24" y2="200" stroke="#AAAAAA" stroke-opacity="0.25"/>
      <line x1="36" y1="0" x2="36" y2="200" stroke="#AAAAAA" stroke-opacity="0.25"/>
      <line x1="48" y1="0" x2="48" y2="200" stroke="#AAAAAA" stroke-opacity="0.25"/>
      <line x1="60" y1="0" x2="60" y2="200" stroke="#AAAAAA" stroke-opacity="0.25"/>
      <line x1="72" y1="0" x2="72" y2="200" stroke="#AAAAAA" stroke-opacity="0.5"/>
      <line x1="84" y1="0" x2="84" y2="200" stroke="#AAAAAA" stroke-opacity="0.25"/>
      <line x1="96" y1="0" x2="96" y2="200" stroke="#AAAAAA" stroke-opacity="0.25"/>
      <line x1="108" y1="0" x2="108" y2="200" stroke="#AAAAAA" stroke-opacity="0.25"/>
      <line x1="120" y1="0" x2="120" y2="200" stroke="#AAAAAA" stroke-opacity="0.25"/>
      <line x1="132" y1="0" x2="132" y2="200" stroke="#AAAAAA" stroke-opacity="0.25"/>
      <line x1="144" y1="0" x2="144" y2="200" stroke="#AAAAAA" stroke-opacity="0.5"/>
      <line x1="156" y1="0" x2="156" y2="200" stroke="#AAAAAA" stroke-opacity="0.25"/>
      <line x1="168" y1="0" x2="168" y2="200" stroke="#AAAAAA" stroke-opacity="0.25"/>
      <line x1="180" y1="0" x2="180" y2="200" stroke="#AAAAAA" stroke-opacity="0.25"/>
      <line x1="192" y1="0" x2="192" y2="200" stroke="#AAAAAA" stroke-opacity="0.25"/>
      <line x1="204" y1="0" x2="204" y2="200" stroke="#AAAAAA" stroke-opacity="0.25"/>
      <line x1="216" y1="0" x2="216" y2="200" stroke="#AAAAAA" stroke-opacity="0.5"/>
      <line x1="228" y1="0" x2="228" y2="200" stroke="#AAAAAA" stroke-opacity="0.25"/>
      <line x1="240" y1="0" x2="240" y2="200" stroke="#AAAAAA" stroke-opacity="0.25"/>
      <line x1="252" y1="0" x2="252" y2="200" stroke="#AAAAAA" stroke-opacity="0.25"/>
      <line x1="264" y1="0" x2="264" y2="200" stroke="#AAAAAA" stroke-opacity="0.25"/>
      <line x1="276" y1="0" x2="276" y2="200" stroke="#AAAAAA" stroke-opacity="0.25"/>
      <line x1="288" y1="0" x2="288" y2="200" stroke="#AAAAAA" stroke-opacity="0.5"/>
      <line x1="300" y1="0" x2="300" y2="200" stroke="#AAAAAA" stroke-opacity="0.25"/>
      <line x1="312" y1="0" x2="312" y2="200" stroke="#AAAAAA" stroke-opacity="0.25"/>
      <line x1="324" y1="0" x2="324" y2="200" stroke="#AAAAAA" stroke-opacity="0.25"/>
      <line x1="336" y1="0" x2="336" y2="200" stroke="#AAAAAA" stroke-opacity="0.25"/>
      <line x1="348" y1="0" x2="348" y2="200" stroke="#AAAAAA" stroke-opacity="0.25"/>
      <line x1="360" y1="0" x2="360" y2="200" stroke="#AAAAAA" stroke-opacity="0.5"/>
      <line x1="372" y1="0" x2="372" y2="200" stroke="#AAAAAA" stroke-opacity="0.25"/>
      <line x1="384" y1="0" x2="384" y2="200" stroke="#AAAAAA" stroke-opacity="0.25"/>
      <line x1="396" y1="0" x2="396" y2="200" stroke="#AAAAAA" stroke-opacity="0.25"/>
      <line x1="408" y1="0" x2="408" y2="200" stroke="#AAAAAA" stroke-opacity="0.25"/>
      <line x1="420" y1="0" x2="420" y2="200" stroke="#AAAAAA" stroke-opacity="0.25"/>
      <line x1="432" y1="0" x2="432" y2="200" stroke="#AAAAAA" stroke-opacity="0.5"/>
      <line x1="444" y1="0" x2="444" y2="200" stroke="#AAAAAA" stroke-opacity="0.25"/>
      <line x1="456" y1="0" x2="456" y2="200" stroke="#AAAAAA" stroke-opacity="0.25"/>
      <line x1="468" y1="0" x2="468" y2="200" stroke="#AAAAAA" stroke-opacity="0.25"/>
      <line x1="480" y1="0" x2="480" y2="200" stroke="#AAAAAA" stroke-opacity="0.25"/>
      <line x1="492" y1="0" x2="492" y2="200" stroke="#AAAAAA" stroke-opacity="0.25"/>
      <line x1="504" y1="0" x2="504" y2="200" stroke="#AAAAAA" stroke-opacity="0.5"/>
      <line x1="516" y1="0" x2="516" y2="200" stroke="#AAAAAA" stroke-opacity="0.25"/>
      <line x1="528" y1="0" x2="528" y2="200" stroke="#AAAAAA" stroke-opacity="0.25"/>
      <line x1="540" y1="0" x2="540" y2="200" stroke="#AAAAAA" stroke-opacity="0.25"/>
      <line x1="552" y1="0" x2="552" y2="200" stroke="#AAAAAA" stroke-opacity="0.25"/>
      <line x1="564" y1="0" x2="564" y2="200" stroke="#AAAAAA" stroke-opacity="0.25"/>
      <line x1="576" y1="0" x2="576" y2="200" stroke="#AAAAAA" stroke-opacity="0.5"/>
      <line x1="588" y1="0" x2="588" y2="200" stroke="#AAAAAA" stroke-opacity="0.25"/>
      <line x1="600" y1="0" x2="600" y2="200" stroke="#AAAAAA" stroke-opacity="0.25"/>
      <line x1="0" y1="12" x2="600" y2="12" stroke="#AAAAAA" stroke-opacity="0.25"/>
      <line x1="0" y1="24" x2="600" y2="24" stroke="#AAAAAA" stroke-opacity="0.25"/>
      <line x1="0" y1="36" x2="600" y2="36" stroke="#AAAAAA" stroke-opacity="0.25"/>
      <line x1="0" y1="48" x2="600" y2="48" stroke="#AAAAAA" stroke-opacity="0.25"/>
      <line x1="0" y1="60" x2="600" y2="60" stroke="#AAAAAA" stroke-opacity="0.25"/>
      <line x1="0" y1="72" x2="600" y2="72" stroke="#AAAAAA" stroke-opacity="0.5"/>
      <line x1="0" y1="84" x2="600" y2="84" stroke="#AAAAAA" stroke-opacity="0.25"/>
      <line x1="0" y1="96" x2="600" y2="96" stroke="#AAAAAA" stroke-opacity="0.25"/>
      <line x1="0" y1="108" x2="600" y2="108" stroke="#AAAAAA" stroke-opacity="0.25"/>
      <line x1="0" y1="120" x2="600" y2="120" stroke="#AAAAAA" stroke-opacity="0.25"/>
      <line x1="0" y1="132" x2="600" y2="132" stroke="#AAAAAA" stroke-opacity="0.25"/>
      <line x1="0" y1="144" x2="600" y2="144" stroke="#AAAAAA" stroke-opacity="0.5"/>
      <line x1="0" y1="156" x2="600" y2="156" stroke="#AAAAAA" stroke-opacity="0.25"/>
      <line x1="0" y1="168" x2="600" y2="168" stroke="#AAAAAA" stroke-opacity="0.25"/>
      <line x1="0" y1="180" x2="600" y2="180" stroke="#AAAAAA" stroke-opacity="0.25"/>
      <line x1="0" y1="192" x2="600" y2="192" stroke="#AAAAAA" stroke-opacity="0.25"/>
    </g>
  </g>
  <defs>
    <clipPath id="Clip_1">
      <path d="M2.429,48.364 L133.61,48.364 L133.61,178.477 L2.429,178.477 z"/>
    </clipPath>
  </defs>
  <g id="logos">
    <g>
      <path d="M359.75,116.15 C359.75,149.149 332.999,175.9 300,175.9 C267.001,175.9 240.25,149.149 240.25,116.15 C240.25,83.151 267.001,56.4 300,56.4 C332.999,56.4 359.75,83.151 359.75,116.15 z" fill="#FFFFFF"/>
      <path d="M300,52 C335.346,52 364,80.654 364,116 C364,151.346 335.346,180 300,180 C264.654,180 236,151.346 236,116 C236,80.654 264.654,52 300,52 z M315.71,128.43 C322.87,119.52 321.63,106.74 312.96,99.87 C304.29,93 291.45,94.66 284.29,103.57 C277.13,112.48 278.37,125.27 287,132.13 C295.63,138.99 308.51,137.34 315.67,128.43 z M281.54,170 C285.41,171.69 293.71,173.1 298,173.13 L325.83,132.87 C334.94,119.34 332.57,101.18 319.93,91.18 C308.76,82.34 293.11,82.69 281.84,91.07 L243.14,121.1 C244.08,131.39 247.14,136.5 246.88,136.75 L269,112.61 C267.502,122.564 271.054,132.611 278.475,139.413 C285.896,146.214 296.214,148.878 306,146.52 z" fill="#09A9ED"/>
      <g>
        <path d="M263.236,36 L261.104,30.551 L254.236,30.551 L252.127,36 L250.111,36 L256.885,18.797 L258.561,18.797 L265.299,36 z M260.482,28.758 L258.49,23.449 Q258.104,22.441 257.693,20.977 Q257.436,22.102 256.955,23.449 L254.939,28.758 z" fill="#000000"/>
        <path d="M273.338,36.234 Q272.084,36.234 271.047,35.771 Q270.01,35.309 269.307,34.348 L269.166,34.348 Q269.307,35.473 269.307,36.48 L269.307,41.766 L267.361,41.766 L267.361,23.156 L268.943,23.156 L269.213,24.914 L269.307,24.914 Q270.057,23.859 271.053,23.391 Q272.049,22.922 273.338,22.922 Q275.893,22.922 277.281,24.668 Q278.67,26.414 278.67,29.566 Q278.67,32.73 277.258,34.482 Q275.846,36.234 273.338,36.234 z M273.057,24.574 Q271.088,24.574 270.209,25.664 Q269.33,26.754 269.307,29.133 L269.307,29.566 Q269.307,32.273 270.209,33.439 Q271.111,34.605 273.104,34.605 Q274.768,34.605 275.711,33.258 Q276.654,31.91 276.654,29.543 Q276.654,27.141 275.711,25.857 Q274.768,24.574 273.057,24.574 z" fill="#000000"/>
        <path d="M288.045,36.234 Q286.791,36.234 285.754,35.771 Q284.717,35.309 284.014,34.348 L283.873,34.348 Q284.014,35.473 284.014,36.48 L284.014,41.766 L282.068,41.766 L282.068,23.156 L283.65,23.156 L283.92,24.914 L284.014,24.914 Q284.764,23.859 285.76,23.391 Q286.756,22.922 288.045,22.922 Q290.6,22.922 291.988,24.668 Q293.377,26.414 293.377,29.566 Q293.377,32.73 291.965,34.482 Q290.553,36.234 288.045,36.234 z M287.764,24.574 Q285.795,24.574 284.916,25.664 Q284.037,26.754 284.014,29.133 L284.014,29.566 Q284.014,32.273 284.916,33.439 Q285.818,34.605 287.811,34.605 Q289.475,34.605 290.418,33.258 Q291.361,31.91 291.361,29.543 Q291.361,27.141 290.418,25.857 Q289.475,24.574 287.764,24.574 z" fill="#000000"/>
        <path d="M306.854,18.867 L308.998,18.867 L302.822,36 L300.854,36 L294.713,18.867 L296.822,18.867 L300.76,29.953 Q301.439,31.863 301.838,33.668 Q302.26,31.77 302.939,29.883 z" fill="#000000"/>
        <path d="M316.006,36.234 Q313.158,36.234 311.512,34.5 Q309.865,32.766 309.865,29.684 Q309.865,26.578 311.395,24.75 Q312.924,22.922 315.502,22.922 Q317.916,22.922 319.322,24.51 Q320.729,26.098 320.729,28.699 L320.729,29.93 L311.881,29.93 Q311.939,32.191 313.023,33.363 Q314.107,34.535 316.076,34.535 Q318.15,34.535 320.178,33.668 L320.178,35.402 Q319.146,35.848 318.227,36.041 Q317.307,36.234 316.006,36.234 z M315.479,24.551 Q313.932,24.551 313.012,25.559 Q312.092,26.566 311.928,28.348 L318.643,28.348 Q318.643,26.508 317.822,25.529 Q317.002,24.551 315.479,24.551 z" fill="#000000"/>
        <path d="M321.525,23.156 L323.611,23.156 L326.424,30.48 Q327.35,32.988 327.572,34.102 L327.666,34.102 Q327.818,33.504 328.305,32.057 Q328.791,30.609 331.486,23.156 L333.572,23.156 L328.053,37.781 Q327.232,39.949 326.137,40.857 Q325.041,41.766 323.447,41.766 Q322.557,41.766 321.689,41.566 L321.689,40.008 Q322.334,40.148 323.131,40.148 Q325.135,40.148 325.99,37.898 L326.705,36.07 z" fill="#000000"/>
        <path d="M346.744,29.566 Q346.744,32.707 345.162,34.471 Q343.58,36.234 340.791,36.234 Q339.068,36.234 337.732,35.426 Q336.396,34.617 335.67,33.105 Q334.943,31.594 334.943,29.566 Q334.943,26.426 336.514,24.674 Q338.084,22.922 340.873,22.922 Q343.568,22.922 345.156,24.715 Q346.744,26.508 346.744,29.566 z M336.959,29.566 Q336.959,32.027 337.943,33.316 Q338.928,34.605 340.838,34.605 Q342.748,34.605 343.738,33.322 Q344.729,32.039 344.729,29.566 Q344.729,27.117 343.738,25.846 Q342.748,24.574 340.814,24.574 Q338.904,24.574 337.932,25.828 Q336.959,27.082 336.959,29.566 z" fill="#000000"/>
        <path d="M356.014,22.922 Q356.869,22.922 357.549,23.062 L357.279,24.867 Q356.482,24.691 355.873,24.691 Q354.314,24.691 353.207,25.957 Q352.1,27.223 352.1,29.109 L352.1,36 L350.154,36 L350.154,23.156 L351.76,23.156 L351.982,25.535 L352.076,25.535 Q352.791,24.281 353.799,23.602 Q354.807,22.922 356.014,22.922 z" fill="#000000"/>
      </g>
    </g>
    <g>
      <path d="M514.739,115.4 C514.739,107.431 521.207,100.963 529.176,100.963 C537.146,100.963 543.614,107.431 543.614,115.4 C543.614,123.37 537.146,129.838 529.176,129.838 C521.207,129.953 514.739,123.37 514.739,115.4 z M529.176,54.647 C500.763,54.647 476.97,74.051 470.271,100.385 C470.271,100.616 470.156,100.732 470.156,100.963 C470.156,102.58 471.426,103.85 473.043,103.85 L497.529,103.85 C498.684,103.85 499.724,103.157 500.186,102.118 L500.186,102.118 C505.268,91.145 516.24,83.522 529.176,83.522 C546.732,83.522 561.054,97.844 561.054,115.4 C561.054,132.956 546.732,147.278 529.176,147.278 C516.356,147.278 505.268,139.655 500.186,128.683 L500.186,128.683 C499.724,127.643 498.684,126.95 497.529,126.95 L473.043,126.95 C471.426,126.95 470.156,128.221 470.156,129.838 C470.156,130.069 470.156,130.184 470.271,130.415 C476.97,156.749 500.763,176.153 529.176,176.153 C562.787,176.153 590.045,148.895 590.045,115.285 C590.045,81.79 562.787,54.647 529.176,54.647 z" fill="#343434" id="circle_ci_logo"/>
      <g>
        <path d="M498.131,21.902 Q495.307,21.902 493.672,23.783 Q492.038,25.664 492.038,28.934 Q492.038,32.297 493.614,34.131 Q495.19,35.965 498.108,35.965 Q499.901,35.965 502.198,35.32 L502.198,37.066 Q500.416,37.734 497.803,37.734 Q494.018,37.734 491.961,35.438 Q489.905,33.141 489.905,28.91 Q489.905,26.262 490.895,24.27 Q491.885,22.277 493.754,21.199 Q495.623,20.121 498.155,20.121 Q500.85,20.121 502.866,21.105 L502.022,22.816 Q500.077,21.902 498.131,21.902 z" fill="#000000"/>
        <path d="M507.588,37.5 L505.643,37.5 L505.643,24.656 L507.588,24.656 z M505.479,21.176 Q505.479,20.508 505.807,20.197 Q506.135,19.887 506.627,19.887 Q507.096,19.887 507.436,20.203 Q507.776,20.52 507.776,21.176 Q507.776,21.832 507.436,22.154 Q507.096,22.477 506.627,22.477 Q506.135,22.477 505.807,22.154 Q505.479,21.832 505.479,21.176 z" fill="#000000"/>
        <path d="M517.573,24.422 Q518.428,24.422 519.108,24.562 L518.838,26.367 Q518.041,26.191 517.432,26.191 Q515.873,26.191 514.766,27.457 Q513.659,28.723 513.659,30.609 L513.659,37.5 L511.713,37.5 L511.713,24.656 L513.319,24.656 L513.541,27.035 L513.635,27.035 Q514.35,25.781 515.358,25.102 Q516.366,24.422 517.573,24.422 z" fill="#000000"/>
        <path d="M526.163,37.734 Q523.373,37.734 521.844,36.018 Q520.315,34.301 520.315,31.16 Q520.315,27.938 521.868,26.18 Q523.42,24.422 526.291,24.422 Q527.217,24.422 528.143,24.621 Q529.069,24.82 529.596,25.09 L528.998,26.742 Q528.354,26.484 527.592,26.314 Q526.831,26.145 526.245,26.145 Q522.331,26.145 522.331,31.137 Q522.331,33.504 523.286,34.77 Q524.241,36.035 526.116,36.035 Q527.721,36.035 529.409,35.344 L529.409,37.066 Q528.12,37.734 526.163,37.734 z" fill="#000000"/>
        <path d="M534.401,37.5 L532.456,37.5 L532.456,19.266 L534.401,19.266 z" fill="#000000"/>
        <path d="M543.952,37.734 Q541.104,37.734 539.457,36 Q537.811,34.266 537.811,31.184 Q537.811,28.078 539.34,26.25 Q540.87,24.422 543.448,24.422 Q545.862,24.422 547.268,26.01 Q548.674,27.598 548.674,30.199 L548.674,31.43 L539.827,31.43 Q539.885,33.691 540.969,34.863 Q542.053,36.035 544.022,36.035 Q546.096,36.035 548.123,35.168 L548.123,36.902 Q547.092,37.348 546.172,37.541 Q545.252,37.734 543.952,37.734 z M543.424,26.051 Q541.877,26.051 540.957,27.059 Q540.038,28.066 539.873,29.848 L546.588,29.848 Q546.588,28.008 545.768,27.029 Q544.948,26.051 543.424,26.051 z" fill="#000000"/>
        <path d="M559.62,21.902 Q556.795,21.902 555.161,23.783 Q553.526,25.664 553.526,28.934 Q553.526,32.297 555.102,34.131 Q556.678,35.965 559.596,35.965 Q561.389,35.965 563.686,35.32 L563.686,37.066 Q561.905,37.734 559.291,37.734 Q555.506,37.734 553.45,35.438 Q551.393,33.141 551.393,28.91 Q551.393,26.262 552.383,24.27 Q553.373,22.277 555.243,21.199 Q557.112,20.121 559.643,20.121 Q562.338,20.121 564.354,21.105 L563.51,22.816 Q561.565,21.902 559.62,21.902 z" fill="#000000"/>
        <path d="M567.424,37.5 L567.424,20.367 L569.416,20.367 L569.416,37.5 z" fill="#000000"/>
      </g>
    </g>
    <g>
      <g>
        <path d="M35.951,36.5 L33.959,36.5 L33.959,21.137 L28.533,21.137 L28.533,19.367 L41.377,19.367 L41.377,21.137 L35.951,21.137 z" fill="#000000"/>
        <path d="M48.326,23.422 Q49.182,23.422 49.861,23.562 L49.592,25.367 Q48.795,25.191 48.186,25.191 Q46.627,25.191 45.52,26.457 Q44.412,27.723 44.412,29.609 L44.412,36.5 L42.467,36.5 L42.467,23.656 L44.072,23.656 L44.295,26.035 L44.389,26.035 Q45.104,24.781 46.111,24.102 Q47.119,23.422 48.326,23.422 z" fill="#000000"/>
        <path d="M59.682,36.5 L59.295,34.672 L59.201,34.672 Q58.24,35.879 57.285,36.307 Q56.33,36.734 54.9,36.734 Q52.99,36.734 51.906,35.75 Q50.822,34.766 50.822,32.949 Q50.822,29.059 57.045,28.871 L59.225,28.801 L59.225,28.004 Q59.225,26.492 58.574,25.771 Q57.924,25.051 56.494,25.051 Q54.889,25.051 52.861,26.035 L52.264,24.547 Q53.213,24.031 54.344,23.738 Q55.475,23.445 56.611,23.445 Q58.908,23.445 60.016,24.465 Q61.123,25.484 61.123,27.734 L61.123,36.5 z M55.287,35.129 Q57.104,35.129 58.141,34.133 Q59.178,33.137 59.178,31.344 L59.178,30.184 L57.232,30.266 Q54.912,30.348 53.887,30.986 Q52.861,31.625 52.861,32.973 Q52.861,34.027 53.5,34.578 Q54.139,35.129 55.287,35.129 z" fill="#000000"/>
        <path d="M67.943,36.5 L63.068,23.656 L65.154,23.656 L67.92,31.273 Q68.857,33.945 69.021,34.742 L69.115,34.742 Q69.244,34.121 69.93,32.17 Q70.615,30.219 73.006,23.656 L75.092,23.656 L70.217,36.5 z" fill="#000000"/>
        <path d="M79.1,36.5 L77.154,36.5 L77.154,23.656 L79.1,23.656 z M76.99,20.176 Q76.99,19.508 77.318,19.197 Q77.646,18.887 78.139,18.887 Q78.607,18.887 78.947,19.203 Q79.287,19.52 79.287,20.176 Q79.287,20.832 78.947,21.154 Q78.607,21.477 78.139,21.477 Q77.646,21.477 77.318,21.154 Q76.99,20.832 76.99,20.176 z" fill="#000000"/>
        <path d="M91.51,32.996 Q91.51,34.789 90.174,35.762 Q88.838,36.734 86.424,36.734 Q83.869,36.734 82.439,35.926 L82.439,34.121 Q83.365,34.59 84.426,34.859 Q85.486,35.129 86.471,35.129 Q87.994,35.129 88.814,34.643 Q89.635,34.156 89.635,33.16 Q89.635,32.41 88.984,31.877 Q88.334,31.344 86.447,30.617 Q84.654,29.949 83.898,29.451 Q83.143,28.953 82.773,28.32 Q82.404,27.688 82.404,26.809 Q82.404,25.238 83.682,24.33 Q84.959,23.422 87.186,23.422 Q89.26,23.422 91.24,24.266 L90.549,25.848 Q88.615,25.051 87.045,25.051 Q85.662,25.051 84.959,25.484 Q84.256,25.918 84.256,26.68 Q84.256,27.195 84.52,27.559 Q84.783,27.922 85.369,28.25 Q85.955,28.578 87.619,29.199 Q89.904,30.031 90.707,30.875 Q91.51,31.719 91.51,32.996 z" fill="#000000"/>
        <path d="M108.537,20.902 Q105.713,20.902 104.078,22.783 Q102.443,24.664 102.443,27.934 Q102.443,31.297 104.02,33.131 Q105.596,34.965 108.514,34.965 Q110.307,34.965 112.604,34.32 L112.604,36.066 Q110.822,36.734 108.209,36.734 Q104.424,36.734 102.367,34.438 Q100.311,32.141 100.311,27.91 Q100.311,25.262 101.301,23.27 Q102.291,21.277 104.16,20.199 Q106.029,19.121 108.561,19.121 Q111.256,19.121 113.271,20.105 L112.428,21.816 Q110.482,20.902 108.537,20.902 z" fill="#000000"/>
        <path d="M116.342,36.5 L116.342,19.367 L118.334,19.367 L118.334,36.5 z" fill="#000000"/>
      </g>
      <g id="travis_ci_mascot">
        <g id="Layer_1">
          <path d="M33.739,105.164 C33.739,105.164 13.323,119.534 12.524,125.009 L14.056,124.694 C14.056,124.694 38.505,108.489 57.886,106.513 L58.324,104.053 L33.739,105.164" fill="#B93446"/>
          <path d="M65.788,103.11 L49.707,114.516 L50.576,115.214 C51.231,114.685 79.142,106.161 79.142,106.161 L85.026,102.472 C81.078,102.963 65.788,103.11 65.788,103.11" fill="#B93446"/>
          <path d="M79.765,116.906 C91.185,116.906 108.302,105.722 108.302,105.722 L102.769,104.669 C102.495,104.943 93.846,104.366 93.846,104.366 L89.74,103.226 L79.931,114.403 L79.132,116.342 C79.837,116.056 79.765,116.906 79.765,116.906" fill="#B93446"/>
          <path d="M31.558,159.27 C31.479,159.234 31.399,159.197 31.321,159.161 C30.759,158.676 30.3,158.28 30,158.022 L31.558,159.27 z M117.029,152.573 L113.501,153.567 L97.202,153.214 L87.005,145.286 L74.681,148.369 L60.427,147.136 L52.445,155.858 L37.467,160.332 L29.989,158.013 C29.751,157.808 29.612,157.689 29.612,157.689 L32.969,165.908 C32.969,165.908 40.572,174.059 44.819,175.018 C49.065,175.977 56.737,174.949 62.491,174.058 C68.244,173.168 72.833,171.113 74.682,167.758 C76.531,164.4 76.806,163.442 76.806,163.442 C76.806,163.442 82.286,171.182 87.012,172.073 C91.738,172.963 105.78,168.168 105.78,168.168 C105.78,168.168 114.342,165.839 115.848,162.894 C117.355,159.949 121.328,150.291 121.328,150.291 L117.029,152.573" fill="#B93446"/>
          <path d="M130.875,94.347 C130.84,93.906 130.791,93.466 130.738,93.028 C130.7,92.718 130.65,92.394 130.597,92.094 C129.42,91.104 128.083,90.224 126.691,89.423 C125.183,88.542 123.605,87.753 121.994,87.02 C120.395,86.265 118.752,85.582 117.099,84.916 C116.275,84.581 115.443,84.256 114.607,83.947 C113.775,83.622 112.934,83.319 112.091,83.012 C113.861,83.306 115.612,83.707 117.35,84.155 C118.48,84.447 119.605,84.775 120.722,85.124 C112.776,64.355 93.776,50.829 73.032,50.829 C52.285,50.829 33.288,64.355 25.343,85.124 C26.46,84.775 27.585,84.447 28.713,84.155 C30.454,83.707 32.206,83.306 33.974,83.012 C33.128,83.319 32.29,83.622 31.455,83.947 C30.623,84.256 29.791,84.581 28.963,84.916 C27.31,85.582 25.672,86.265 24.068,87.02 C22.461,87.753 20.882,88.542 19.373,89.423 C17.982,90.223 16.646,91.104 15.465,92.094 C15.416,92.394 15.366,92.718 15.327,93.028 C15.274,93.466 15.225,93.906 15.189,94.347 C15.112,95.232 15.08,96.12 15.073,97.011 C15.055,98.791 15.175,100.571 15.401,102.332 C15.644,104.098 15.968,105.853 16.448,107.549 C16.684,108.398 16.951,109.236 17.261,110.047 C17.417,110.452 17.586,110.851 17.762,111.239 C17.85,111.431 17.942,111.622 18.033,111.805 L18.146,112.021 C18.277,112.087 18.414,112.154 18.544,112.217 L19.334,112.595 C19.775,112.795 20.384,113.084 20.888,113.31 L20.969,113.235 L19.502,107.65 C19.813,107.564 22.598,106.846 27.397,105.933 C27.009,105.859 26.618,105.775 26.234,105.683 C25.142,105.411 24.063,105.08 23.02,104.657 C22.501,104.438 21.991,104.199 21.505,103.925 C21.018,103.645 20.539,103.329 20.168,102.909 C25.441,104.63 36.335,103.85 46.018,102.85 C54.875,101.937 63.752,101.345 72.675,101.327 C81.6,101.345 90.48,101.937 99.333,102.85 C109.021,103.85 119.915,104.63 125.186,102.909 C124.816,103.329 124.338,103.646 123.851,103.925 C123.365,104.199 122.855,104.438 122.337,104.657 C121.292,105.08 120.215,105.411 119.123,105.683 C118.961,105.721 118.797,105.757 118.635,105.792 C123.897,106.768 126.96,107.561 127.288,107.649 L125.885,112.97 C126.167,112.843 126.452,112.72 126.731,112.593 L127.52,112.216 C127.651,112.152 127.784,112.086 127.918,112.019 L128.027,111.804 C128.123,111.621 128.215,111.43 128.302,111.237 C128.479,110.849 128.649,110.451 128.803,110.046 C129.114,109.235 129.382,108.397 129.618,107.547 C130.097,105.851 130.421,104.097 130.664,102.331 C130.89,100.569 131.009,98.789 130.993,97.01 C130.986,96.12 130.953,95.232 130.875,94.347" fill="#F2EDA9"/>
          <path d="M79.014,168.208 C78.316,168.313 77.618,168.401 76.924,168.454 C76.476,168.475 76.002,168.521 75.573,168.521 L75.414,168.524 C75.953,167.319 76.363,166.385 76.673,165.677 C77.305,166.386 78.109,167.263 79.014,168.208" fill="#E1C8A6"/>
          <path d="M80.532,169.754 C82.7,171.901 85.386,173.13 88.342,173.349 C83.376,175.366 78.696,176.144 75.091,176.387 C71.497,176.627 67.853,176.204 64.283,175.225 C64.582,175.171 64.801,175.133 65.065,175.101 C65.359,175.065 71.761,174.23 74.648,169.938 L74.919,169.944 L75.627,169.938 C76.107,169.938 76.542,169.899 77.001,169.881 C78.09,169.787 79.155,169.631 80.201,169.42 C80.311,169.532 80.42,169.642 80.532,169.754" fill="#E1C8A6"/>
          <path d="M86.675,105.491 C86.467,105.762 86.235,106.061 85.988,106.372 C84.719,107.976 82.96,110.027 80.874,112.032 C78.449,111.958 75.957,111.916 73.392,111.916 C69.153,111.916 65.089,112.028 61.23,112.216 C66.683,109.953 73.234,107.743 80.328,106.415 C82.4,106.023 84.521,105.709 86.675,105.491" fill="#5F655E"/>
          <path d="M54.761,107.932 C52.815,109.3 50.616,111.045 48.484,113.162 C43.025,113.709 38.264,114.371 34.334,115.006 C40.375,112.229 47.268,109.674 54.761,107.932" fill="#5F655E"/>
          <path d="M121.459,119.202 L119.239,134.738 L108.602,142.188 L80.86,139.034 L76.684,125.282 C76.585,124.947 76.303,124.701 75.957,124.645 C74.929,124.479 74.02,124.394 73.262,124.394 C72.501,124.394 71.595,124.479 70.562,124.645 C70.22,124.701 69.939,124.947 69.836,125.282 L65.763,138.699 L38.176,144.838 L27.244,137.18 L25.09,119.746 C25.559,119.481 26.035,119.217 26.517,118.953 C27.194,118.807 27.955,118.653 28.797,118.491 L30.827,134.941 C30.859,135.199 31.001,135.428 31.212,135.576 L38.732,140.846 C38.887,140.951 39.071,141.007 39.254,141.007 C39.32,141.007 39.384,141.001 39.454,140.985 L62.136,135.939 C62.214,135.921 62.291,135.893 62.361,135.857 C62.573,135.745 62.739,135.552 62.809,135.315 L66.893,121.866 C67.989,121.584 70.795,120.928 73.261,120.928 C75.721,120.928 78.53,121.584 79.626,121.866 L83.71,135.315 C83.816,135.664 84.12,135.913 84.482,135.956 L107.163,138.532 C107.383,138.557 107.607,138.499 107.788,138.374 L115.313,133.108 C115.516,132.964 115.654,132.737 115.689,132.488 L117.698,118.433 C119.207,118.725 120.469,118.988 121.459,119.202" fill="#5F655E"/>
          <path d="M124.261,109.459 L122.309,116.867 C118.316,115.986 109.544,114.259 97.604,113.096 C101.505,111.433 105.477,109.346 109.106,106.738 C116.211,107.742 121.428,108.818 124.261,109.459" fill="#5F655E"/>
          <path d="M78.168,114.428 C77.076,115.313 75.924,116.14 74.724,116.863 L70.724,119.278 C68.215,119.583 66.038,120.204 65.914,120.24 C65.841,120.261 65.771,120.292 65.706,120.332 C65.512,120.444 65.364,120.631 65.294,120.853 L61.22,134.277 L39.447,139.119 L32.59,134.316 L30.594,118.153 C34.489,117.438 39.697,116.61 45.954,115.909 C45.283,116.713 44.632,117.555 44.015,118.439 L40.29,123.785 L45.714,120.169 C45.794,120.113 49.248,117.841 54.898,115.077 C60.528,114.655 66.742,114.383 73.392,114.383 C75.013,114.382 76.603,114.4 78.168,114.428 z M44.276,132.634 C45.823,131.798 47.57,131.922 50.306,131.926 C50.599,131.933 50.901,131.929 51.218,131.923 C51.487,131.919 51.757,131.916 52.043,131.908 C54.862,131.881 57.206,132.148 57.165,127.722 C57.122,123.296 55.156,119.719 52.34,119.747 C49.52,119.771 46.793,123.397 46.961,127.821 C47.007,128.973 47.177,129.804 47.448,130.404 C44.991,131.019 44.314,132.539 44.276,132.634" fill="#E0C69C"/>
          <path d="M115.905,118.101 L113.942,131.842 L107.027,136.683 L85.284,134.213 L81.227,120.852 C81.135,120.556 80.903,120.328 80.607,120.24 C80.472,120.2 77.78,119.433 74.926,119.185 L75.447,119.15 C75.898,119.118 83.398,118.198 92.353,115.111 C102.27,115.873 110.368,117.092 115.905,118.101 z M102.009,130.819 C101.981,130.714 101.389,128.934 98.766,129.246 C99.069,128.588 99.203,127.701 99.108,126.484 C98.762,122.068 96.193,118.559 93.377,118.656 C90.561,118.756 88.757,122.416 88.913,126.843 C89.067,131.266 91.432,131.235 94.248,131.136 C98.034,131.066 100.113,129.903 102.009,130.819" fill="#E0C69C"/>
          <path d="M78.168,114.428 C77.076,115.313 75.924,116.14 74.724,116.863 L70.724,119.278 C68.215,119.583 66.038,120.204 65.914,120.24 C65.841,120.261 65.771,120.292 65.706,120.332 C65.512,120.444 65.364,120.631 65.294,120.853 L61.22,134.277 L39.447,139.119 L32.59,134.316 L30.594,118.153 C34.489,117.438 39.697,116.61 45.954,115.909 C45.283,116.713 44.632,117.555 44.015,118.439 L40.29,123.785 L45.714,120.169 C45.794,120.113 49.248,117.841 54.898,115.077 C60.528,114.655 66.742,114.383 73.392,114.383 C75.013,114.382 76.603,114.4 78.168,114.428 z M44.276,132.634 C45.823,131.798 47.57,131.922 50.306,131.926 C50.599,131.933 50.901,131.929 51.218,131.923 C51.487,131.919 51.757,131.916 52.043,131.908 C54.862,131.881 57.206,132.148 57.165,127.722 C57.122,123.296 55.156,119.719 52.34,119.747 C49.52,119.771 46.793,123.397 46.961,127.821 C47.007,128.973 47.177,129.804 47.448,130.404 C44.991,131.019 44.314,132.539 44.276,132.634" fill="#BFAC91"/>
          <path d="M115.905,118.101 L113.942,131.842 L107.027,136.683 L85.284,134.213 L81.227,120.852 C81.135,120.556 80.903,120.328 80.607,120.24 C80.472,120.2 77.78,119.433 74.926,119.185 L75.447,119.15 C75.898,119.118 83.398,118.198 92.353,115.111 C102.27,115.873 110.368,117.092 115.905,118.101 z M102.009,130.819 C101.981,130.714 101.389,128.934 98.766,129.246 C99.069,128.588 99.203,127.701 99.108,126.484 C98.762,122.068 96.193,118.559 93.377,118.656 C90.561,118.756 88.757,122.416 88.913,126.843 C89.067,131.266 91.432,131.235 94.248,131.136 C98.034,131.066 100.113,129.903 102.009,130.819" fill="#BFAC91"/>
          <path d="M125.396,124.145 C125.73,124.42 125.994,125.131 125.695,128.447 C125.329,132.507 123.622,139.633 122.565,140.782 C121.399,141.008 118.953,140.74 117.462,140.392 C117.72,139.369 117.793,138.879 118.001,137.833 L120.609,136.008 C120.817,135.864 120.954,135.637 120.99,135.391 L122.813,122.619 C123.919,123.218 125.057,123.865 125.396,124.145" fill="#E1C8A6"/>
          <path d="M29.249,140.814 C29.379,141.275 29.516,141.737 29.658,142.191 C28.255,142.603 25.397,142.998 24.104,142.773 C23.033,141.693 21.034,134.266 20.597,130.321 C20.241,127.125 20.491,126.434 20.816,126.165 C21.193,125.849 22.606,125.045 23.829,124.389 L25.482,137.806 C25.514,138.064 25.651,138.292 25.867,138.44 L29.249,140.814" fill="#E1C8A6"/>
          <path d="M82.006,141.001 L81.907,141.857 C81.907,141.857 78.901,144.645 74.062,145.268 C69.224,145.892 65.421,142.918 65.421,142.918 C65.58,143.435 65.805,144.603 66.901,145.599 C65.612,145.445 64.22,145.341 62.759,145.341 C62.232,145.341 61.699,145.356 61.184,145.381 C58.206,145.537 54.017,150.04 51.071,154.576 C49.625,155.033 45.107,156.467 39.878,158.012 C34.996,151.248 32.596,144.337 32.353,143.622 L32.356,143.618 C32.258,143.343 32.159,143.068 32.067,142.786 L33.322,143.664 L33.322,143.668 L36.423,145.839 L37.459,146.561 C37.614,146.671 37.797,146.727 37.98,146.727 C38.047,146.727 38.114,146.72 38.18,146.707 L66.678,140.362 C66.997,140.292 67.256,140.052 67.35,139.739 L71.414,126.361 C72.116,126.266 72.732,126.217 73.261,126.217 C73.786,126.217 74.406,126.266 75.108,126.361 L79.29,140.137 C79.396,140.486 79.699,140.74 80.058,140.778 L82.006,141.001" fill="#E1C8A6"/>
          <path d="M114.535,140.261 L115.454,139.615 C115.302,140.254 115.137,140.888 114.964,141.516 C113.686,145.615 112.176,149.24 110.5,152.444 C110.129,152.469 109.738,152.484 109.319,152.484 C108.025,152.484 106.703,152.374 105.241,152.24 C102.703,152.007 98.675,151.546 97.403,151.398 C96.307,150.524 92.558,147.545 89.438,145.09 C89.315,144.991 89.21,144.899 89.107,144.814 C88.558,144.35 87.933,143.822 86.668,143.822 C85.519,143.822 83.842,144.24 79.786,145.467 C81.894,143.892 81.907,141.859 81.907,141.859 L82.006,141.002 L108.741,144.04 C108.959,144.065 109.185,144.008 109.368,143.881 L112.054,142 L114.535,140.261" fill="#E1C8A6"/>
          <path d="M94.859,84.014 C94.94,86.393 94.88,90.703 93.773,94.738 C93.728,94.894 93.735,95.053 93.773,95.2 C92.364,95.052 90.954,94.925 89.544,94.812 C91.126,91.496 91.471,87.965 91.546,86.721 C92.761,85.857 93.971,84.821 94.859,84.014" fill="#E7D194"/>
          <path d="M54.521,86.721 C54.595,87.965 54.94,91.489 56.52,94.802 C55.11,94.914 53.7,95.045 52.294,95.193 C52.332,95.048 52.336,94.893 52.294,94.738 C51.187,90.71 51.131,86.396 51.208,84.014 C52.096,84.821 53.301,85.857 54.521,86.721" fill="#E7D194"/>
          <path d="M93.159,124.338 C93.953,124.32 94.586,123.665 94.573,122.872 C94.559,122.075 93.903,121.441 93.106,121.459 C92.31,121.472 91.679,122.128 91.694,122.925 C91.708,123.718 92.364,124.353 93.159,124.338 z M102.009,130.819 C100.113,129.903 98.034,131.067 94.249,131.137 C91.433,131.236 89.068,131.267 88.913,126.844 C88.758,122.417 90.562,118.757 93.378,118.657 C96.194,118.559 98.763,122.069 99.109,126.485 C99.204,127.701 99.07,128.589 98.767,129.247 C101.389,128.934 101.981,130.714 102.009,130.819" fill="#292C2D"/>
          <path d="M93.106,121.454 C93.901,121.44 94.557,122.072 94.571,122.867 C94.586,123.662 93.953,124.318 93.159,124.332 C92.364,124.347 91.708,123.714 91.693,122.92 C91.679,122.125 92.311,121.468 93.106,121.454" fill="#F0F7F8"/>
          <path d="M52.811,125.406 C53.605,125.385 54.232,124.721 54.211,123.929 C54.189,123.132 53.528,122.505 52.735,122.527 C51.937,122.547 51.309,123.21 51.331,124.003 C51.352,124.8 52.015,125.427 52.811,125.406 z M57.164,127.721 C57.205,132.148 54.862,131.88 52.042,131.908 C51.757,131.915 51.486,131.918 51.217,131.922 C50.901,131.929 50.598,131.933 50.305,131.925 C47.57,131.922 45.822,131.798 44.275,132.633 C44.313,132.538 44.991,131.019 47.448,130.403 C47.176,129.803 47.006,128.972 46.961,127.819 C46.792,123.397 49.52,119.77 52.339,119.746 C55.155,119.718 57.121,123.296 57.164,127.721" fill="#292C2D"/>
          <path d="M52.736,122.529 C53.532,122.508 54.193,123.136 54.213,123.931 C54.234,124.727 53.606,125.387 52.811,125.408 C52.015,125.429 51.355,124.801 51.334,124.006 C51.313,123.21 51.941,122.549 52.736,122.529" fill="#F0F7F8"/>
          <path d="M34.88,98.134 L34.553,97.517 L34.54,95.894 L35.392,86.25 L50.195,82.665 L51.117,95.112 C50.399,94.139 49.325,91.936 48.659,88.914 C48.303,87.3 47.158,86.84 45.841,86.84 C44.692,86.84 43.412,87.19 42.41,87.429 C40.258,87.941 37.441,88.658 36.98,89.785 C36.086,91.97 35.648,97.673 35.648,97.673 L34.88,98.134" fill="#EAD798"/>
          <path d="M111.32,98.134 L110.551,97.673 C110.551,97.673 110.114,91.97 109.22,89.785 C108.759,88.658 105.942,87.941 103.791,87.429 C102.788,87.19 101.508,86.84 100.359,86.84 C99.041,86.84 97.897,87.3 97.541,88.914 C96.876,91.936 95.8,94.139 95.082,95.112 L96.005,82.665 L110.808,86.25 L111.534,94.471 L111.507,97.779 L111.32,98.134" fill="#EAD798"/>
          <path d="M88.159,95.9 L58.319,95.845 L56.772,92.363 L55.667,86.395 L53.234,84.462 L53.179,70.564 L56.604,60.435 C56.604,60.435 57.166,90.268 64.138,90.268 C71.11,90.268 72.505,90.268 72.505,90.268 L73.899,90.268 C73.899,90.268 75.293,90.268 82.264,90.268 C89.236,90.268 89.628,60.422 89.628,60.422 L94.163,77.152 L90.868,86.561 L90.701,89.214 L89.54,93.413 L88.159,95.9" fill="#EAD899"/>
          <path d="M118.503,101.228 C118.503,101.228 118.081,101.022 116.816,100.403 C116.816,100.403 118.504,101.228 118.503,101.228 M116.816,100.403 L111.499,98.8 L111.507,97.779 L111.781,97.264 L111.534,94.471 L111.584,88.251 C111.584,88.251 113.019,98.546 116.816,100.403" fill="#EAD899"/>
          <path d="M111.507,97.779 L111.534,94.471 L111.781,97.264 L111.507,97.779" fill="#E8D295"/>
          <path d="M27.559,101.228 C27.558,101.228 29.246,100.403 29.246,100.403 C27.981,101.022 27.559,101.228 27.559,101.228 M29.246,100.403 C33.044,98.546 34.479,88.251 34.479,88.251 L34.54,95.894 L34.419,97.264 L34.553,97.517 L34.563,98.8 L29.246,100.403" fill="#EAD899"/>
          <path d="M34.553,97.517 L34.419,97.264 L34.54,95.894 L34.553,97.517" fill="#E8D295"/>
          <path d="M50.658,95.369 L50.594,95.207 C49.298,90.491 49.354,85.547 49.47,83.266 L36.011,87.093 C35.106,92.986 35.528,97.317 35.619,98.114 C36.737,97.811 37.857,97.532 38.986,97.271 C40.846,96.859 42.721,96.514 44.6,96.197 C46.482,95.883 48.37,95.644 50.259,95.415 C50.394,95.397 50.524,95.387 50.658,95.369 z M56.519,94.802 C54.939,91.489 54.594,87.964 54.52,86.721 C53.301,85.857 52.095,84.821 51.208,84.014 C51.13,86.397 51.187,90.71 52.293,94.738 C52.336,94.894 52.331,95.049 52.293,95.194 C53.7,95.045 55.109,94.915 56.519,94.802 z M93.772,94.738 C94.88,90.703 94.939,86.392 94.858,84.014 C93.97,84.821 92.761,85.857 91.545,86.72 C91.471,87.964 91.126,91.495 89.543,94.811 C90.953,94.925 92.363,95.051 93.772,95.199 C93.734,95.052 93.728,94.894 93.772,94.738 z M110.443,98.117 C110.535,97.325 110.961,92.994 110.055,87.094 L96.592,83.267 C96.713,85.547 96.766,90.492 95.472,95.207 L95.406,95.377 C95.539,95.39 95.674,95.401 95.804,95.419 C99.589,95.852 103.356,96.458 107.081,97.275 C108.204,97.537 109.329,97.815 110.443,98.117 z M112.606,98.752 C114.414,99.344 116.232,99.971 117.879,100.934 C116.998,100.585 116.088,100.335 115.172,100.109 C114.259,99.876 113.339,99.679 112.415,99.503 C110.565,99.154 108.708,98.859 106.84,98.632 C104.976,98.389 103.109,98.185 101.233,98.026 C99.358,97.868 97.487,97.709 95.608,97.6 C88.098,97.138 80.568,97.022 73.032,97.014 C65.498,97.018 57.966,97.159 50.456,97.603 C48.578,97.712 46.706,97.871 44.832,98.03 C42.957,98.188 41.085,98.389 39.225,98.635 C37.357,98.862 35.499,99.158 33.649,99.506 C32.726,99.679 31.806,99.88 30.89,100.109 C29.977,100.335 29.064,100.585 28.183,100.934 C29.829,99.972 31.647,99.341 33.458,98.748 C33.611,98.699 33.765,98.657 33.92,98.608 L33.891,98.492 C33.86,98.284 33.19,93.336 34.356,86.259 C34.413,85.92 34.656,85.645 34.988,85.554 L36.902,85.008 C37.317,70.164 43.431,63.182 43.622,62.967 C38.159,71.757 38.209,82.182 38.304,84.609 L50.197,81.229 L50.225,81.223 L50.373,81.202 L50.422,81.198 C50.483,81.194 50.55,81.202 50.617,81.215 L50.652,81.226 L50.799,81.275 L50.855,81.307 L50.972,81.381 L51.004,81.402 L51.025,81.423 L51.06,81.452 C51.068,81.463 51.384,81.776 51.888,82.245 C51.769,78.327 51.955,67.084 57.309,57.766 C57.196,58.093 52.948,70.513 54.412,84.434 C54.887,84.814 55.387,85.187 55.875,85.515 C56.11,85.678 56.255,85.945 56.258,86.231 C56.262,86.277 56.364,90.714 58.324,94.488 C58.351,94.545 58.372,94.604 58.391,94.664 C63.265,94.333 68.152,94.199 73.03,94.196 C77.908,94.199 82.792,94.34 87.665,94.675 C87.683,94.612 87.705,94.549 87.737,94.488 C89.696,90.714 89.798,86.277 89.798,86.231 C89.805,85.945 89.95,85.678 90.186,85.515 C90.672,85.187 91.166,84.814 91.645,84.434 C93.111,70.513 88.863,58.093 88.751,57.766 C94.1,67.084 94.291,78.326 94.172,82.245 C94.672,81.776 94.989,81.463 94.999,81.452 L95.034,81.423 L95.056,81.402 L95.088,81.381 L95.204,81.303 L95.257,81.275 L95.412,81.223 L95.444,81.215 C95.507,81.202 95.575,81.194 95.638,81.198 L95.684,81.202 L95.836,81.223 L95.863,81.229 L107.758,84.609 C107.853,82.182 107.903,71.756 102.441,62.967 C102.63,63.182 108.745,70.164 109.157,85.008 L111.074,85.554 C111.402,85.645 111.648,85.92 111.705,86.259 C112.871,93.336 112.199,98.284 112.17,98.492 L112.142,98.611 C112.299,98.657 112.451,98.702 112.606,98.752" fill="#292C2D"/>
          <path d="M84.84,69.609 L84.84,63.186 L61.73,63.186 L61.73,69.609 L64.889,69.609 L64.889,66.346 L71.427,66.346 L71.427,86.176 L68.737,86.176 L68.737,89.854 L77.834,89.854 L77.834,86.176 L75.144,86.176 L75.144,66.346 L81.681,66.346 L81.681,69.609 L84.84,69.609 z M87.219,60.812 L87.219,71.982 L79.301,71.982 L79.301,68.719 L77.517,68.719 L77.517,83.796 L80.213,83.796 L80.213,92.227 L66.363,92.227 L66.363,83.796 L69.048,83.796 L69.048,68.719 L67.269,68.719 L67.269,71.983 L59.357,71.983 L59.357,60.812 L87.219,60.812" fill="#292C2D"/>
          <path d="M84.84,63.186 L84.84,69.609 L81.68,69.609 L81.68,66.346 L75.143,66.346 L75.143,86.176 L77.833,86.176 L77.833,89.854 L68.737,89.854 L68.737,86.176 L71.427,86.176 L71.427,66.346 L64.889,66.346 L64.889,69.609 L61.73,69.609 L61.73,63.186 L84.84,63.186" fill="#B93446"/>
          <path d="M22.528,109.459 C23.682,109.197 25.242,108.864 27.154,108.495 C25.979,109.296 24.59,110.302 23.072,111.511 L22.528,109.459" fill="#5F655E"/>
          <path d="M64.792,140.073 C64.792,140.073 65.115,142.15 62.209,143.038 C59.303,143.927 40.897,149.413 38.798,149.116 C36.699,148.82 31.371,145.262 31.371,145.262 L30.079,140.667 L37.963,145.582 L64.792,140.073" fill="#BFAC91"/>
          <path d="M81.281,139.671 C81.281,139.671 81.049,141.759 83.991,142.522 C86.933,143.284 105.56,147.964 107.644,147.577 C109.727,147.189 114.895,143.403 114.895,143.403 L115.986,138.755 L108.74,143.078 L81.281,139.671" fill="#BFAC91"/>
          <path d="M21.031,136.252 C21.031,136.252 23.581,141.354 27.701,139.587 L30.644,140.667 L30.35,142.825 L24.17,143.609 L22.503,142.629 L21.031,136.252" fill="#BFAC91"/>
          <g clip-path="url(#Clip_1)">
            <path d="M125.442,134.852 C125.442,134.852 121.274,140.176 117.154,138.411 L115.83,139.265 L116.124,141.423 L122.303,142.208 L123.97,141.227 L125.442,134.852" fill="#BFAC91"/>
            <path d="M60.966,174.928 C60.966,174.928 76.076,182.546 93.184,172.18 L87.69,171.806 C87.69,171.806 75.702,176.551 66.211,173.928 L60.966,174.928" fill="#BFAC91"/>
            <path d="M27.154,108.495 C25.242,108.865 23.682,109.197 22.528,109.459 L23.072,111.511 C24.59,110.301 25.979,109.296 27.154,108.495 z M29.658,142.192 C29.514,141.737 29.379,141.275 29.25,140.813 L25.863,138.443 C25.649,138.293 25.513,138.066 25.479,137.807 L23.828,124.391 C22.605,125.046 21.193,125.851 20.815,126.167 C20.489,126.435 20.241,127.125 20.595,130.321 C21.033,134.264 23.03,141.693 24.104,142.773 C25.395,143.001 28.255,142.604 29.658,142.192 z M49.898,106.633 C52.408,105.93 54.997,105.315 57.649,104.799 C53.845,104.938 50.038,105.114 46.237,105.329 C44.029,105.451 41.831,105.601 39.634,105.767 C38.533,105.851 37.439,105.939 36.348,106.059 C36.036,106.089 35.73,106.123 35.418,106.164 C32.552,107.879 21.557,114.781 14.009,123.805 C21.343,118.708 34.121,111.049 49.898,106.633 z M48.482,113.161 C50.615,111.045 52.815,109.299 54.759,107.934 C47.269,109.673 40.375,112.227 34.336,115.005 C38.265,114.37 43.024,113.708 48.482,113.161 z M77.228,104.537 C75.712,104.513 74.195,104.5 72.679,104.496 L72.676,104.496 C70.452,104.5 68.223,104.523 65.991,104.568 L61.878,106.517 L61.82,106.549 C61.202,106.851 55.801,109.575 50.72,114.436 C55.275,112.041 61.969,108.913 69.847,106.487 C72.207,105.764 74.68,105.097 77.228,104.537 z M74.724,116.864 C75.923,116.14 77.075,115.312 78.168,114.428 C76.602,114.402 75.013,114.381 73.393,114.381 C66.742,114.381 60.53,114.654 54.898,115.077 C49.249,117.839 45.795,120.111 45.714,120.169 L40.29,123.786 L44.016,118.44 C44.63,117.552 45.283,116.71 45.955,115.909 C39.698,116.609 34.488,117.437 30.596,118.154 L32.589,134.316 L39.447,139.119 L61.219,134.278 L65.295,120.852 C65.363,120.631 65.512,120.444 65.706,120.331 C65.771,120.29 65.839,120.26 65.913,120.24 C66.039,120.205 68.216,119.584 70.726,119.278 L74.724,116.864 z M76.925,168.454 C77.618,168.4 78.314,168.311 79.014,168.206 C78.107,167.263 77.305,166.386 76.673,165.676 C76.364,166.386 75.954,167.319 75.413,168.523 L75.573,168.523 C76.004,168.523 76.477,168.476 76.925,168.454 z M88.341,173.35 C85.387,173.132 82.7,171.903 80.532,169.756 C80.419,169.641 80.311,169.531 80.202,169.42 C79.154,169.631 78.09,169.787 77,169.882 C76.542,169.899 76.107,169.939 75.628,169.939 L74.917,169.946 L74.646,169.939 C71.762,174.229 65.357,175.065 65.064,175.103 C64.8,175.133 64.582,175.17 64.283,175.225 C67.853,176.203 71.497,176.627 75.091,176.386 C78.694,176.145 83.376,175.364 88.341,173.35 z M85.988,106.372 C86.235,106.063 86.466,105.764 86.673,105.492 C84.52,105.71 82.4,106.023 80.328,106.416 C73.233,107.744 66.681,109.952 61.229,112.214 C65.092,112.027 69.153,111.916 73.393,111.916 C75.957,111.916 78.45,111.96 80.875,112.031 C82.961,110.026 84.721,107.975 85.988,106.372 z M105.589,105.764 L105.569,105.756 C103.422,105.597 101.276,105.45 99.122,105.329 C96.134,105.158 93.144,105.016 90.155,104.891 C89.981,105.149 89.629,105.658 89.122,106.351 C87.496,108.552 84.269,112.59 80.131,116.014 C85.988,114.965 96.146,112.366 104.934,106.235 C105.154,106.079 105.372,105.916 105.589,105.764 z M115.453,139.614 L114.532,140.259 L112.053,141.998 L109.366,143.88 C109.183,144.006 108.958,144.064 108.74,144.04 L82.006,141 L80.06,140.779 C79.7,140.737 79.398,140.486 79.292,140.138 L75.108,126.361 C74.409,126.266 73.787,126.217 73.265,126.217 C72.734,126.217 72.116,126.265 71.416,126.361 L67.354,139.74 C67.259,140.052 67.001,140.291 66.681,140.361 L38.184,146.707 C38.116,146.72 38.048,146.726 37.983,146.726 C37.8,146.726 37.617,146.672 37.46,146.56 L36.425,145.84 L33.324,143.67 L33.324,143.663 L32.071,142.787 C32.159,143.069 32.26,143.345 32.36,143.619 L32.356,143.623 C32.597,144.339 34.999,151.248 39.88,158.011 C45.107,156.469 49.628,155.035 51.071,154.577 C54.015,150.038 58.207,145.537 61.186,145.382 C61.699,145.358 62.233,145.342 62.762,145.342 C64.22,145.342 65.612,145.447 66.902,145.6 C65.806,144.604 65.582,143.436 65.422,142.92 C65.422,142.92 69.223,145.892 74.063,145.271 C78.904,144.646 81.909,141.857 81.909,141.857 C81.909,141.857 81.896,143.892 79.786,145.467 C83.842,144.241 85.52,143.82 86.668,143.82 C87.935,143.82 88.56,144.35 89.107,144.816 C89.212,144.901 89.318,144.992 89.439,145.091 C92.558,147.546 96.307,150.526 97.405,151.399 C98.675,151.548 102.703,152.007 105.241,152.241 C106.704,152.373 108.026,152.485 109.32,152.485 C109.738,152.485 110.129,152.468 110.499,152.444 C112.177,149.242 113.686,145.613 114.966,141.518 C115.137,140.888 115.304,140.253 115.453,139.614 z M113.942,131.843 L115.905,118.099 C110.368,117.091 102.271,115.872 92.353,115.111 C83.399,118.199 75.9,119.118 75.448,119.149 L74.925,119.187 C77.781,119.432 80.472,120.2 80.607,120.24 C80.904,120.328 81.134,120.555 81.226,120.852 L85.285,134.214 L107.027,136.683 L113.942,131.843 z M119.237,134.737 L121.458,119.203 C120.47,118.989 119.207,118.725 117.698,118.436 L115.691,132.491 C115.653,132.739 115.517,132.967 115.313,133.11 L107.787,138.374 C107.609,138.499 107.382,138.557 107.165,138.533 L84.483,135.955 C84.119,135.914 83.817,135.663 83.711,135.317 L79.625,121.867 C78.531,121.584 75.722,120.928 73.264,120.928 C70.794,120.928 67.988,121.584 66.894,121.867 L62.808,135.317 C62.737,135.55 62.573,135.745 62.361,135.856 C62.293,135.893 62.215,135.92 62.136,135.938 L39.453,140.985 C39.382,140.999 39.321,141.006 39.252,141.006 C39.069,141.006 38.886,140.952 38.733,140.842 L31.209,135.575 C30.999,135.428 30.859,135.197 30.825,134.939 L28.797,118.49 C27.955,118.653 27.195,118.809 26.515,118.951 C26.033,119.217 25.557,119.482 25.088,119.747 L27.241,137.178 L38.176,144.838 L65.763,138.701 L69.835,125.284 C69.937,124.947 70.219,124.699 70.562,124.645 C71.595,124.479 72.498,124.394 73.263,124.394 C74.019,124.394 74.926,124.479 75.956,124.645 C76.302,124.699 76.584,124.947 76.683,125.284 L80.86,139.034 L108.601,142.188 L119.237,134.737 z M122.307,116.867 L124.261,109.459 C121.428,108.818 116.21,107.743 109.105,106.738 C105.476,109.346 101.506,111.432 97.603,113.096 C109.544,114.258 118.316,115.987 122.307,116.867 z M125.693,128.445 C125.993,125.131 125.732,124.418 125.395,124.145 C125.058,123.863 123.921,123.219 122.813,122.617 L120.99,135.388 C120.956,135.636 120.816,135.861 120.609,136.006 L118,137.83 C117.793,138.875 117.719,139.369 117.464,140.391 C118.955,140.737 121.4,141.006 122.565,140.781 C123.623,139.635 125.33,132.508 125.693,128.445 z M133.563,96.932 C133.659,98.844 133.608,100.759 133.394,102.662 C133.194,104.561 132.834,106.442 132.332,108.308 C132.069,109.235 131.768,110.152 131.411,111.062 C131.23,111.517 131.037,111.969 130.827,112.421 C130.721,112.645 130.61,112.866 130.484,113.093 L130.297,113.429 C130.229,113.551 130.175,113.643 130.069,113.806 L129.876,114.106 L129.574,114.261 C129.251,114.428 128.986,114.553 128.693,114.69 L127.842,115.073 C127.27,115.317 126.697,115.548 126.123,115.772 C125.722,115.929 125.368,116.072 125.032,116.214 L124.085,119.814 C124.061,119.809 123.776,119.736 123.243,119.608 L123.192,119.984 C124.238,120.531 126.293,121.639 126.993,122.217 C128.402,123.382 128.501,125.227 128.189,128.674 C128.029,130.443 127.441,133.887 126.626,137.05 C125.22,142.494 124.472,143.134 123.508,143.381 C123.019,143.507 122.265,143.632 121.534,143.632 C120.048,143.632 118.022,143.673 116.66,143.344 C116.311,144.583 115.312,147.813 113.335,151.848 C113.434,151.801 113.532,151.76 113.621,151.713 C116.059,150.432 120.747,148.39 120.944,148.302 L124.646,146.693 L122.75,150.259 C122.706,150.336 118.64,157.983 116.151,162.976 C113.678,167.922 109.042,168.998 106.266,169.636 C105.848,169.735 105.452,169.827 105.129,169.915 C103.138,170.475 99.106,171.436 95.551,172.292 L95.422,172.319 C93.234,173.672 90.846,174.878 88.234,175.87 C78.676,179.49 68.602,179.287 59.468,175.93 C57.985,176.121 56.034,176.354 53.437,176.65 C52.308,176.776 51.211,176.841 50.166,176.841 C41.463,176.841 36.851,172.421 33.485,168.094 C29.881,163.461 25.472,156.582 25.285,156.294 L22.729,152.307 L27.05,154.25 C29.118,155.181 35.267,158.027 37.026,158.843 C37.168,158.802 37.308,158.761 37.447,158.72 C34.522,154.55 32.124,149.794 30.43,144.526 C28.99,144.961 26.771,145.297 25.046,145.297 C24.415,145.297 23.85,145.25 23.416,145.148 C22.451,144.927 21.351,143.997 19.853,138.721 C18.983,135.659 18.335,132.315 18.145,130.594 C17.771,127.234 17.839,125.435 19.235,124.272 C20.077,123.569 22.917,122.078 23.505,121.773 L23.379,120.736 C14.357,126.038 8.95,130.722 8.841,130.818 L2.39,136.479 L6.986,129.231 C10.623,123.487 14.825,118.844 18.691,115.267 C18.531,115.203 18.382,115.138 18.225,115.074 L17.373,114.69 C17.081,114.554 16.816,114.428 16.494,114.262 L16.191,114.106 L15.998,113.806 C15.889,113.643 15.841,113.552 15.77,113.43 L15.58,113.094 C15.461,112.866 15.345,112.645 15.24,112.421 C15.025,111.969 14.832,111.517 14.656,111.063 C14.299,110.153 13.996,109.236 13.735,108.308 C13.229,106.443 12.872,104.562 12.672,102.663 C12.461,100.76 12.407,98.845 12.502,96.933 C12.553,95.978 12.645,95.024 12.777,94.076 C12.845,93.601 12.916,93.125 13.012,92.653 C13.11,92.171 13.206,91.722 13.351,91.195 L13.453,90.825 L13.718,90.617 C15.223,89.435 16.847,88.542 18.497,87.751 C19.856,87.112 21.242,86.548 22.638,86.034 C26.537,75.213 33.242,65.618 42.053,58.93 C51.163,52.018 61.875,48.364 73.033,48.364 C84.191,48.364 94.903,52.018 104.013,58.931 C112.824,65.619 119.529,75.215 123.425,86.032 C124.825,86.549 126.207,87.109 127.569,87.751 C129.219,88.543 130.843,89.436 132.348,90.618 L132.613,90.826 L132.715,91.196 C132.864,91.723 132.959,92.172 133.054,92.653 C133.15,93.126 133.225,93.601 133.289,94.077 C133.422,95.024 133.517,95.978 133.563,96.932 z M28.961,84.915 C27.311,85.58 25.67,86.267 24.067,87.021 C22.46,87.755 20.881,88.543 19.372,89.422 C17.981,90.224 16.645,91.103 15.466,92.096 C15.416,92.395 15.368,92.721 15.328,93.03 C15.276,93.467 15.225,93.906 15.191,94.348 C15.113,95.231 15.082,96.121 15.073,97.011 C15.056,98.791 15.178,100.571 15.402,102.333 C15.646,104.099 15.969,105.856 16.448,107.551 C16.686,108.4 16.951,109.239 17.264,110.046 C17.417,110.455 17.587,110.852 17.764,111.239 C17.852,111.432 17.944,111.623 18.035,111.806 L18.148,112.02 C18.279,112.088 18.416,112.156 18.544,112.217 L19.336,112.593 C19.777,112.797 20.386,113.086 20.888,113.31 L20.969,113.236 L19.506,107.652 C19.815,107.567 22.601,106.847 27.4,105.933 C27.013,105.862 26.618,105.777 26.235,105.685 C25.145,105.414 24.064,105.08 23.022,104.659 C22.505,104.439 21.992,104.201 21.507,103.925 C21.021,103.646 20.542,103.331 20.172,102.91 C25.443,104.632 36.336,103.85 46.021,102.852 C54.879,101.938 63.754,101.348 72.677,101.327 C81.6,101.347 90.482,101.938 99.334,102.852 C109.025,103.851 119.919,104.632 125.188,102.91 C124.818,103.331 124.34,103.646 123.854,103.925 C123.369,104.201 122.855,104.438 122.339,104.659 C121.292,105.08 120.216,105.413 119.122,105.685 C118.962,105.721 118.799,105.759 118.636,105.794 C123.898,106.769 126.961,107.563 127.287,107.652 L125.884,112.971 C126.167,112.845 126.451,112.723 126.729,112.594 L127.521,112.217 C127.65,112.156 127.786,112.089 127.919,112.021 L128.028,111.807 C128.122,111.624 128.214,111.433 128.303,111.24 C128.48,110.852 128.649,110.455 128.806,110.047 C129.115,109.239 129.383,108.4 129.617,107.551 C130.097,105.857 130.423,104.1 130.663,102.334 C130.89,100.572 131.01,98.791 130.993,97.012 C130.986,96.122 130.952,95.232 130.877,94.349 C130.84,93.907 130.792,93.469 130.738,93.03 C130.7,92.721 130.649,92.395 130.598,92.097 C129.419,91.104 128.084,90.225 126.691,89.423 C125.183,88.543 123.605,87.755 121.994,87.021 C120.395,86.267 118.751,85.581 117.1,84.916 C116.274,84.582 115.441,84.256 114.606,83.947 C113.775,83.625 112.932,83.32 112.09,83.014 C113.859,83.306 115.613,83.709 117.347,84.155 C118.478,84.447 119.607,84.777 120.72,85.126 C112.775,64.356 93.774,50.831 73.032,50.831 C52.284,50.831 33.288,64.356 25.344,85.126 C26.46,84.777 27.585,84.447 28.713,84.155 C30.452,83.71 32.204,83.306 33.975,83.014 C33.128,83.319 32.29,83.625 31.454,83.947 C30.622,84.256 29.791,84.582 28.961,84.915 z M76.284,160.891 L77.33,162.137 C77.353,162.167 79.677,164.932 82.517,167.748 C84.406,169.62 86.688,170.567 89.303,170.567 C90.196,170.567 91.134,170.452 92.081,170.224 C92.961,170.01 93.916,169.782 94.894,169.548 C98.427,168.704 102.428,167.744 104.367,167.201 C104.751,167.092 105.179,166.995 105.63,166.892 C108.212,166.295 111.751,165.472 113.626,161.716 C115.036,158.896 116.937,155.237 118.348,152.556 C117.125,153.119 115.844,153.73 114.934,154.209 C113.531,154.946 111.694,155.303 109.319,155.303 C107.907,155.303 106.52,155.184 104.986,155.048 C101.918,154.766 96.728,154.155 96.675,154.147 L96.277,154.104 L95.964,153.852 C95.917,153.818 91.369,150.194 87.693,147.304 C87.544,147.182 87.408,147.069 87.285,146.967 C86.898,146.637 86.898,146.637 86.667,146.637 C85.488,146.637 82.062,147.7 74.554,150.027 L74.093,150.173 L73.641,150.003 C73.59,149.986 68.665,148.159 62.762,148.159 C62.279,148.159 61.798,148.172 61.329,148.196 C60.738,148.226 57.42,149.802 53.177,156.515 L52.902,156.946 L52.416,157.103 C52.345,157.127 45.042,159.484 37.298,161.699 L36.795,161.842 L36.32,161.62 C36.269,161.6 33.239,160.194 30.355,158.869 C31.928,161.192 33.939,164.09 35.708,166.363 C38.799,170.343 42.695,174.022 50.165,174.022 C51.101,174.022 52.097,173.964 53.119,173.848 C60.717,172.989 62.674,172.643 63.727,172.459 C64.083,172.399 64.365,172.347 64.725,172.303 C64.783,172.296 71.005,171.491 72.751,167.575 C74.551,163.551 74.915,162.592 74.928,162.555 L75.564,160.861 C75.564,160.861 75.642,160.422 75.772,160.285 L75.775,160.289 L75.787,160.299 C75.987,160.443 76.284,160.891 76.284,160.891" fill="#292C2D"/>
          </g>
        </g>
      </g>
    </g>
  </g>
</svg>
