<svg version="1.1" x="0" y="0" width="600" height="200" viewBox="0 0 600 200" xmlns="http://www.w3.org/2000/svg">
<defs>
<clipPath id="a">
<path d="m2.429 48.364h131.18v130.11h-131.18z"/>
</clipPath>
</defs>
<path d="m359.75 116.15c0 32.999-26.751 59.75-59.75 59.75s-59.75-26.751-59.75-59.75 26.751-59.75 59.75-59.75 59.75 26.751 59.75 59.75z" fill="#fff"/>
<path d="m300 52c35.346 0 64 28.654 64 64s-28.654 64-64 64-64-28.654-64-64 28.654-64 64-64zm15.71 76.43c7.16-8.91 5.92-21.69-2.75-28.56s-21.51-5.21-28.67 3.7-5.92 21.7 2.71 28.56 21.51 5.21 28.67-3.7zm-34.17 41.57c3.87 1.69 12.17 3.1 16.46 3.13l27.83-40.26c9.11-13.53 6.74-31.69-5.9-41.69-11.17-8.84-26.82-8.49-38.09-0.11l-38.7 30.03c0.94 10.29 4 15.4 3.74 15.65l22.12-24.14c-1.498 9.954 2.054 20.001 9.475 26.803 7.421 6.801 17.739 9.465 27.525 7.107z" fill="#09A9ED"/>
<g>
<path d="m263.24 36l-2.132-5.449h-6.868l-2.109 5.449h-2.016l6.774-17.203h1.676l6.738 17.203zm-2.754-7.242l-1.992-5.309q-0.386-1.008-0.797-2.472-0.257 1.125-0.738 2.472l-2.016 5.309z"/>
<path d="m273.34 36.234q-1.254 0-2.291-0.463-1.037-0.462-1.74-1.423h-0.141q0.141 1.125 0.141 2.132v5.286h-1.946v-18.61h1.582l0.27 1.758h0.094q0.75-1.055 1.746-1.523 0.996-0.469 2.285-0.469 2.555 0 3.943 1.746 1.389 1.746 1.389 4.898 0 3.164-1.412 4.916t-3.92 1.752zm-0.281-11.66q-1.969 0-2.848 1.09t-0.902 3.469v0.433q0 2.707 0.902 3.873t2.895 1.166q1.664 0 2.607-1.347 0.943-1.348 0.943-3.715 0-2.402-0.943-3.686-0.943-1.283-2.654-1.283z"/>
<path d="m288.04 36.234q-1.254 0-2.291-0.463-1.037-0.462-1.74-1.423h-0.141q0.141 1.125 0.141 2.132v5.286h-1.946v-18.61h1.582l0.27 1.758h0.094q0.75-1.055 1.746-1.523 0.996-0.469 2.285-0.469 2.555 0 3.943 1.746 1.389 1.746 1.389 4.898 0 3.164-1.412 4.916t-3.92 1.752zm-0.281-11.66q-1.969 0-2.848 1.09t-0.902 3.469v0.433q0 2.707 0.902 3.873t2.895 1.166q1.664 0 2.607-1.347 0.943-1.348 0.943-3.715 0-2.402-0.943-3.686-0.943-1.283-2.654-1.283z"/>
<path d="m306.85 18.867h2.144l-6.176 17.133h-1.968l-6.141-17.133h2.109l3.938 11.086q0.679 1.91 1.078 3.715 0.422-1.898 1.101-3.785z"/>
<path d="m316.01 36.234q-2.848 0-4.494-1.734-1.647-1.734-1.647-4.816 0-3.106 1.53-4.934 1.529-1.828 4.107-1.828 2.414 0 3.82 1.588 1.407 1.588 1.407 4.189v1.231h-8.848q0.058 2.261 1.142 3.433t3.053 1.172q2.074 0 4.102-0.867v1.734q-1.032 0.446-1.951 0.639-0.92 0.193-2.221 0.193zm-0.527-11.683q-1.547 0-2.467 1.008-0.92 1.007-1.084 2.789h6.715q0-1.84-0.821-2.819-0.82-0.978-2.343-0.978z"/>
<path d="m321.52 23.156h2.086l2.813 7.324q0.926 2.508 1.148 3.622h0.094q0.152-0.598 0.639-2.045 0.486-1.448 3.181-8.901h2.086l-5.519 14.625q-0.821 2.168-1.916 3.076-1.096 0.909-2.69 0.909-0.89 0-1.758-0.2v-1.558q0.645 0.14 1.442 0.14 2.004 0 2.859-2.25l0.715-1.828z"/>
<path d="m346.74 29.566q0 3.141-1.582 4.905-1.582 1.763-4.371 1.763-1.723 0-3.059-0.808-1.336-0.809-2.062-2.321-0.727-1.511-0.727-3.539 0-3.14 1.571-4.892 1.57-1.752 4.359-1.752 2.695 0 4.283 1.793t1.588 4.851zm-9.785 0q0 2.461 0.984 3.75 0.985 1.289 2.895 1.289t2.9-1.283q0.991-1.283 0.991-3.756 0-2.449-0.991-3.72-0.99-1.272-2.924-1.272-1.91 0-2.882 1.254-0.973 1.254-0.973 3.738z"/>
<path d="m356.01 22.922q0.855 0 1.535 0.14l-0.27 1.805q-0.797-0.176-1.406-0.176-1.559 0-2.666 1.266t-1.107 3.152v6.891h-1.946v-12.844h1.606l0.222 2.379h0.094q0.715-1.254 1.723-1.933 1.008-0.68 2.215-0.68z"/>
</g>
<path d="m514.74 115.4c0-7.969 6.468-14.437 14.437-14.437 7.97 0 14.438 6.468 14.438 14.437 0 7.97-6.468 14.438-14.438 14.438-7.969 0.115-14.437-6.468-14.437-14.438zm14.437-60.753c-28.413 0-52.206 19.404-58.905 45.738 0 0.231-0.115 0.347-0.115 0.578 0 1.617 1.27 2.887 2.887 2.887h24.486c1.155 0 2.195-0.693 2.657-1.732 5.082-10.973 16.054-18.596 28.99-18.596 17.556 0 31.878 14.322 31.878 31.878s-14.322 31.878-31.878 31.878c-12.82 0-23.908-7.623-28.99-18.595-0.462-1.04-1.502-1.733-2.657-1.733h-24.486c-1.617 0-2.887 1.271-2.887 2.888 0 0.231 0 0.346 0.115 0.577 6.699 26.334 30.492 45.738 58.905 45.738 33.611 0 60.869-27.258 60.869-60.868 0-33.495-27.258-60.638-60.869-60.638z" fill="#343434"/>
<g>
<path d="m498.13 21.902q-2.824 0-4.459 1.881-1.634 1.881-1.634 5.151 0 3.363 1.576 5.197t4.494 1.834q1.793 0 4.09-0.645v1.746q-1.782 0.668-4.395 0.668-3.785 0-5.842-2.296-2.056-2.297-2.056-6.528 0-2.648 0.99-4.64 0.99-1.993 2.859-3.071t4.401-1.078q2.695 0 4.711 0.984l-0.844 1.711q-1.945-0.914-3.891-0.914z"/>
<path d="m507.59 37.5h-1.945v-12.844h1.945zm-2.109-16.324q0-0.668 0.328-0.979 0.328-0.31 0.82-0.31 0.469 0 0.809 0.316 0.34 0.317 0.34 0.973t-0.34 0.978q-0.34 0.323-0.809 0.323-0.492 0-0.82-0.323-0.328-0.322-0.328-0.978z"/>
<path d="m517.57 24.422q0.855 0 1.535 0.14l-0.27 1.805q-0.797-0.176-1.406-0.176-1.559 0-2.666 1.266t-1.107 3.152v6.891h-1.946v-12.844h1.606l0.222 2.379h0.094q0.715-1.254 1.723-1.933 1.008-0.68 2.215-0.68z"/>
<path d="m526.16 37.734q-2.79 0-4.319-1.716-1.529-1.717-1.529-4.858 0-3.222 1.553-4.98 1.552-1.758 4.423-1.758 0.926 0 1.852 0.199t1.453 0.469l-0.598 1.652q-0.644-0.258-1.406-0.428-0.761-0.169-1.347-0.169-3.914 0-3.914 4.992 0 2.367 0.955 3.633 0.955 1.265 2.83 1.265 1.605 0 3.293-0.691v1.722q-1.289 0.668-3.246 0.668z"/>
<path d="m534.4 37.5h-1.945v-18.234h1.945z"/>
<path d="m543.95 37.734q-2.848 0-4.495-1.734-1.646-1.734-1.646-4.816 0-3.106 1.529-4.934 1.53-1.828 4.108-1.828 2.414 0 3.82 1.588t1.406 4.189v1.231h-8.847q0.058 2.261 1.142 3.433t3.053 1.172q2.074 0 4.101-0.867v1.734q-1.031 0.446-1.951 0.639t-2.22 0.193zm-0.528-11.683q-1.547 0-2.467 1.008-0.919 1.007-1.084 2.789h6.715q0-1.84-0.82-2.819-0.82-0.978-2.344-0.978z"/>
<path d="m559.62 21.902q-2.825 0-4.459 1.881-1.635 1.881-1.635 5.151 0 3.363 1.576 5.197t4.494 1.834q1.793 0 4.09-0.645v1.746q-1.781 0.668-4.395 0.668-3.785 0-5.841-2.296-2.057-2.297-2.057-6.528 0-2.648 0.99-4.64 0.99-1.993 2.86-3.071 1.869-1.078 4.4-1.078 2.695 0 4.711 0.984l-0.844 1.711q-1.945-0.914-3.89-0.914z"/>
<path d="m567.42 37.5v-17.133h1.992v17.133z"/>
</g>
<g>
<path d="m35.951 36.5h-1.992v-15.363h-5.426v-1.77h12.844v1.77h-5.426z"/>
<path d="m48.326 23.422q0.856 0 1.535 0.14l-0.269 1.805q-0.797-0.176-1.406-0.176-1.559 0-2.666 1.266-1.108 1.266-1.108 3.152v6.891h-1.945v-12.844h1.605l0.223 2.379h0.094q0.715-1.254 1.722-1.933 1.008-0.68 2.215-0.68z"/>
<path d="m59.682 36.5l-0.387-1.828h-0.094q-0.961 1.207-1.916 1.635-0.955 0.427-2.385 0.427-1.91 0-2.994-0.984t-1.084-2.801q0-3.89 6.223-4.078l2.18-0.07v-0.797q0-1.512-0.651-2.233-0.65-0.72-2.08-0.72-1.605 0-3.633 0.984l-0.597-1.488q0.949-0.516 2.08-0.809t2.267-0.293q2.297 0 3.405 1.02 1.107 1.019 1.107 3.269v8.766zm-4.395-1.371q1.817 0 2.854-0.996t1.037-2.789v-1.16l-1.946 0.082q-2.32 0.082-3.345 0.72-1.026 0.639-1.026 1.987 0 1.054 0.639 1.605t1.787 0.551z"/>
<path d="m67.943 36.5l-4.875-12.844h2.086l2.766 7.617q0.937 2.672 1.101 3.469h0.094q0.129-0.621 0.815-2.572 0.685-1.951 3.076-8.514h2.086l-4.875 12.844z"/>
<path d="m79.1 36.5h-1.946v-12.844h1.946zm-2.11-16.324q0-0.668 0.328-0.979 0.328-0.31 0.821-0.31 0.468 0 0.808 0.316 0.34 0.317 0.34 0.973t-0.34 0.978q-0.34 0.323-0.808 0.323-0.493 0-0.821-0.323-0.328-0.322-0.328-0.978z"/>
<path d="m91.51 32.996q0 1.793-1.336 2.766-1.336 0.972-3.75 0.972-2.555 0-3.985-0.808v-1.805q0.926 0.469 1.987 0.738 1.06 0.27 2.045 0.27 1.523 0 2.343-0.486 0.821-0.487 0.821-1.483 0-0.75-0.651-1.283-0.65-0.533-2.537-1.26-1.793-0.668-2.549-1.166-0.755-0.498-1.125-1.131-0.369-0.632-0.369-1.511 0-1.571 1.278-2.479 1.277-0.908 3.504-0.908 2.074 0 4.054 0.844l-0.691 1.582q-1.934-0.797-3.504-0.797-1.383 0-2.086 0.433-0.703 0.434-0.703 1.196 0 0.515 0.264 0.879 0.263 0.363 0.849 0.691t2.25 0.949q2.285 0.832 3.088 1.676t0.803 2.121z"/>
<path d="m108.54 20.902q-2.824 0-4.459 1.881t-1.635 5.151q0 3.363 1.577 5.197 1.576 1.834 4.494 1.834 1.793 0 4.09-0.645v1.746q-1.782 0.668-4.395 0.668-3.785 0-5.842-2.296-2.056-2.297-2.056-6.528 0-2.648 0.99-4.64 0.99-1.993 2.859-3.071t4.401-1.078q2.695 0 4.71 0.984l-0.843 1.711q-1.946-0.914-3.891-0.914z"/>
<path d="m116.34 36.5v-17.133h1.992v17.133z"/>
</g>
<path d="m33.739 105.16s-20.416 14.37-21.215 19.845l1.532-0.315s24.449-16.205 43.83-18.181l0.438-2.46-24.585 1.111" fill="#B93446"/>
<path d="m65.788 103.11l-16.081 11.406 0.869 0.698c0.655-0.529 28.566-9.053 28.566-9.053l5.884-3.689c-3.948 0.491-19.238 0.638-19.238 0.638" fill="#B93446"/>
<path d="m79.765 116.91c11.42 0 28.537-11.184 28.537-11.184l-5.533-1.053c-0.274 0.274-8.923-0.303-8.923-0.303l-4.106-1.14-9.809 11.177-0.799 1.939c0.705-0.286 0.633 0.564 0.633 0.564" fill="#B93446"/>
<path d="m31.558 159.27c-0.079-0.036-0.159-0.073-0.237-0.109-0.562-0.485-1.021-0.881-1.321-1.139l1.558 1.248zm85.471-6.697l-3.528 0.994-16.299-0.353-10.197-7.928-12.324 3.083-14.254-1.233-7.982 8.722-14.978 4.474-7.478-2.319c-0.238-0.205-0.377-0.324-0.377-0.324l3.357 8.219s7.603 8.151 11.85 9.11c4.246 0.959 11.918-0.069 17.672-0.96 5.753-0.89 10.342-2.945 12.191-6.3 1.849-3.358 2.124-4.316 2.124-4.316s5.48 7.74 10.206 8.631c4.726 0.89 18.768-3.905 18.768-3.905s8.562-2.329 10.068-5.274c1.507-2.945 5.48-12.603 5.48-12.603l-4.299 2.282" fill="#B93446"/>
<path d="m130.88 94.347c-0.035-0.441-0.084-0.881-0.137-1.319-0.038-0.31-0.088-0.634-0.141-0.934-1.177-0.99-2.514-1.87-3.906-2.671-1.508-0.881-3.086-1.67-4.697-2.403-1.599-0.755-3.242-1.438-4.895-2.104-0.824-0.335-1.656-0.66-2.492-0.969-0.832-0.325-1.673-0.628-2.516-0.935 1.77 0.294 3.521 0.695 5.259 1.143 1.13 0.292 2.255 0.62 3.372 0.969-7.946-20.769-26.946-34.295-47.69-34.295-20.747 0-39.744 13.526-47.689 34.295 1.117-0.349 2.242-0.677 3.37-0.969 1.741-0.448 3.493-0.849 5.261-1.143-0.846 0.307-1.684 0.61-2.519 0.935-0.832 0.309-1.664 0.634-2.492 0.969-1.653 0.666-3.291 1.349-4.895 2.104-1.607 0.733-3.186 1.522-4.695 2.403-1.391 0.8-2.727 1.681-3.908 2.671-0.049 0.3-0.099 0.624-0.138 0.934-0.053 0.438-0.102 0.878-0.138 1.319-0.077 0.885-0.109 1.773-0.116 2.664-0.018 1.78 0.102 3.56 0.328 5.321 0.243 1.766 0.567 3.521 1.047 5.217 0.236 0.849 0.503 1.687 0.813 2.498 0.156 0.405 0.325 0.804 0.501 1.192 0.088 0.192 0.18 0.383 0.271 0.566l0.113 0.216c0.131 0.066 0.268 0.133 0.398 0.196l0.79 0.378c0.441 0.2 1.05 0.489 1.554 0.715l0.081-0.075-1.467-5.585c0.311-0.086 3.096-0.804 7.895-1.717-0.388-0.074-0.779-0.158-1.163-0.25-1.092-0.272-2.171-0.603-3.214-1.026-0.519-0.219-1.029-0.458-1.515-0.732-0.487-0.28-0.966-0.596-1.337-1.016 5.273 1.721 16.167 0.941 25.85-0.059 8.857-0.913 17.734-1.505 26.657-1.523 8.925 0.018 17.805 0.61 26.658 1.523 9.688 1 20.582 1.78 25.853 0.059-0.37 0.42-0.848 0.737-1.335 1.016-0.486 0.274-0.996 0.513-1.514 0.732-1.045 0.423-2.122 0.754-3.214 1.026-0.162 0.038-0.326 0.074-0.488 0.109 5.262 0.976 8.325 1.769 8.653 1.857l-1.403 5.321c0.282-0.127 0.567-0.25 0.846-0.377l0.789-0.377c0.131-0.064 0.264-0.13 0.398-0.197l0.109-0.215c0.096-0.183 0.188-0.374 0.275-0.567 0.177-0.388 0.347-0.786 0.501-1.191 0.311-0.811 0.579-1.649 0.815-2.499 0.479-1.696 0.803-3.45 1.046-5.216 0.226-1.762 0.345-3.542 0.329-5.321-7e-3 -0.89-0.04-1.778-0.118-2.663" fill="#F2EDA9"/>
<path d="m79.014 168.21c-0.698 0.105-1.396 0.193-2.09 0.246-0.448 0.021-0.922 0.067-1.351 0.067l-0.159 3e-3c0.539-1.205 0.949-2.139 1.259-2.847 0.632 0.709 1.436 1.586 2.341 2.531" fill="#E1C8A6"/>
<path d="m80.532 169.75c2.168 2.147 4.854 3.376 7.81 3.595-4.966 2.017-9.646 2.795-13.251 3.038-3.594 0.24-7.238-0.183-10.808-1.162 0.299-0.054 0.518-0.092 0.782-0.124 0.294-0.036 6.696-0.871 9.583-5.163l0.271 6e-3 0.708-6e-3c0.48 0 0.915-0.039 1.374-0.057 1.089-0.094 2.154-0.25 3.2-0.461 0.11 0.112 0.219 0.222 0.331 0.334" fill="#E1C8A6"/>
<path d="m86.675 105.49c-0.208 0.271-0.44 0.57-0.687 0.881-1.269 1.604-3.028 3.655-5.114 5.66-2.425-0.074-4.917-0.116-7.482-0.116-4.239 0-8.303 0.112-12.162 0.3 5.453-2.263 12.004-4.473 19.098-5.801 2.072-0.392 4.193-0.706 6.347-0.924" fill="#5F655E"/>
<path d="m54.761 107.93c-1.946 1.368-4.145 3.113-6.277 5.23-5.459 0.547-10.22 1.209-14.15 1.844 6.041-2.777 12.934-5.332 20.427-7.074" fill="#5F655E"/>
<path d="m121.46 119.2l-2.22 15.536-10.637 7.45-27.742-3.154-4.176-13.752c-0.099-0.335-0.381-0.581-0.727-0.637-1.028-0.166-1.937-0.251-2.695-0.251-0.761 0-1.667 0.085-2.7 0.251-0.342 0.056-0.623 0.302-0.726 0.637l-4.073 13.417-27.587 6.139-10.932-7.658-2.154-17.434c0.469-0.265 0.945-0.529 1.427-0.793 0.677-0.146 1.438-0.3 2.28-0.462l2.03 16.45c0.032 0.258 0.174 0.487 0.385 0.635l7.52 5.27c0.155 0.105 0.339 0.161 0.522 0.161 0.066 0 0.13-6e-3 0.2-0.022l22.682-5.046c0.078-0.018 0.155-0.046 0.225-0.082 0.212-0.112 0.378-0.305 0.448-0.542l4.084-13.449c1.096-0.282 3.902-0.938 6.368-0.938 2.46 0 5.269 0.656 6.365 0.938l4.084 13.449c0.106 0.349 0.41 0.598 0.772 0.641l22.681 2.576c0.22 0.025 0.444-0.033 0.625-0.158l7.525-5.266c0.203-0.144 0.341-0.371 0.376-0.62l2.009-14.055c1.509 0.292 2.771 0.555 3.761 0.769" fill="#5F655E"/>
<path d="m124.26 109.46l-1.952 7.408c-3.993-0.881-12.765-2.608-24.705-3.771 3.901-1.663 7.873-3.75 11.502-6.358 7.105 1.004 12.322 2.08 15.155 2.721" fill="#5F655E"/>
<path d="m78.168 114.43c-1.092 0.885-2.244 1.712-3.444 2.435l-4 2.415c-2.509 0.305-4.686 0.926-4.81 0.962-0.073 0.021-0.143 0.052-0.208 0.092-0.194 0.112-0.342 0.299-0.412 0.521l-4.074 13.424-21.773 4.842-6.857-4.803-1.996-16.163c3.895-0.715 9.103-1.543 15.36-2.244-0.671 0.804-1.322 1.646-1.939 2.53l-3.725 5.346 5.424-3.616c0.08-0.056 3.534-2.328 9.184-5.092 5.63-0.422 11.844-0.694 18.494-0.694 1.621-1e-3 3.211 0.017 4.776 0.045zm-33.892 18.206c1.547-0.836 3.294-0.712 6.03-0.708 0.293 7e-3 0.595 3e-3 0.912-3e-3 0.269-4e-3 0.539-7e-3 0.825-0.015 2.819-0.027 5.163 0.24 5.122-4.186-0.043-4.426-2.009-8.003-4.825-7.975-2.82 0.024-5.547 3.65-5.379 8.074 0.046 1.152 0.216 1.983 0.487 2.583-2.457 0.615-3.134 2.135-3.172 2.23" fill="#E0C69C"/>
<path d="m115.9 118.1l-1.963 13.741-6.915 4.841-21.743-2.47-4.057-13.361c-0.092-0.296-0.324-0.524-0.62-0.612-0.135-0.04-2.827-0.807-5.681-1.055l0.521-0.035c0.451-0.032 7.951-0.952 16.906-4.039 9.917 0.762 18.015 1.981 23.552 2.99zm-13.896 12.718c-0.028-0.105-0.62-1.885-3.243-1.573 0.303-0.658 0.437-1.545 0.342-2.762-0.346-4.416-2.915-7.925-5.731-7.828-2.816 0.1-4.62 3.76-4.464 8.187 0.154 4.423 2.519 4.392 5.335 4.293 3.786-0.07 5.865-1.233 7.761-0.317" fill="#E0C69C"/>
<path d="m78.168 114.43c-1.092 0.885-2.244 1.712-3.444 2.435l-4 2.415c-2.509 0.305-4.686 0.926-4.81 0.962-0.073 0.021-0.143 0.052-0.208 0.092-0.194 0.112-0.342 0.299-0.412 0.521l-4.074 13.424-21.773 4.842-6.857-4.803-1.996-16.163c3.895-0.715 9.103-1.543 15.36-2.244-0.671 0.804-1.322 1.646-1.939 2.53l-3.725 5.346 5.424-3.616c0.08-0.056 3.534-2.328 9.184-5.092 5.63-0.422 11.844-0.694 18.494-0.694 1.621-1e-3 3.211 0.017 4.776 0.045zm-33.892 18.206c1.547-0.836 3.294-0.712 6.03-0.708 0.293 7e-3 0.595 3e-3 0.912-3e-3 0.269-4e-3 0.539-7e-3 0.825-0.015 2.819-0.027 5.163 0.24 5.122-4.186-0.043-4.426-2.009-8.003-4.825-7.975-2.82 0.024-5.547 3.65-5.379 8.074 0.046 1.152 0.216 1.983 0.487 2.583-2.457 0.615-3.134 2.135-3.172 2.23" fill="#BFAC91"/>
<path d="m115.9 118.1l-1.963 13.741-6.915 4.841-21.743-2.47-4.057-13.361c-0.092-0.296-0.324-0.524-0.62-0.612-0.135-0.04-2.827-0.807-5.681-1.055l0.521-0.035c0.451-0.032 7.951-0.952 16.906-4.039 9.917 0.762 18.015 1.981 23.552 2.99zm-13.896 12.718c-0.028-0.105-0.62-1.885-3.243-1.573 0.303-0.658 0.437-1.545 0.342-2.762-0.346-4.416-2.915-7.925-5.731-7.828-2.816 0.1-4.62 3.76-4.464 8.187 0.154 4.423 2.519 4.392 5.335 4.293 3.786-0.07 5.865-1.233 7.761-0.317" fill="#BFAC91"/>
<path d="m125.4 124.14c0.334 0.275 0.598 0.986 0.299 4.302-0.366 4.06-2.073 11.186-3.13 12.335-1.166 0.226-3.612-0.042-5.103-0.39 0.258-1.023 0.331-1.513 0.539-2.559l2.608-1.825c0.208-0.144 0.345-0.371 0.381-0.617l1.823-12.772c1.106 0.599 2.244 1.246 2.583 1.526" fill="#E1C8A6"/>
<path d="m29.249 140.81c0.13 0.461 0.267 0.923 0.409 1.377-1.403 0.412-4.261 0.807-5.554 0.582-1.071-1.08-3.07-8.507-3.507-12.452-0.356-3.196-0.106-3.887 0.219-4.156 0.377-0.316 1.79-1.12 3.013-1.776l1.653 13.417c0.032 0.258 0.169 0.486 0.385 0.634l3.382 2.374" fill="#E1C8A6"/>
<path d="m82.006 141l-0.099 0.856s-3.006 2.788-7.845 3.411c-4.838 0.624-8.641-2.35-8.641-2.35 0.159 0.517 0.384 1.685 1.48 2.681-1.289-0.154-2.681-0.258-4.142-0.258-0.527 0-1.06 0.015-1.575 0.04-2.978 0.156-7.167 4.659-10.113 9.195-1.446 0.457-5.964 1.891-11.193 3.436-4.882-6.764-7.282-13.675-7.525-14.39l3e-3 -4e-3c-0.098-0.275-0.197-0.55-0.289-0.832l1.255 0.878v4e-3l3.101 2.171 1.036 0.722c0.155 0.11 0.338 0.166 0.521 0.166 0.067 0 0.134-7e-3 0.2-0.02l28.498-6.345c0.319-0.07 0.578-0.31 0.672-0.623l4.064-13.378c0.702-0.095 1.318-0.144 1.847-0.144 0.525 0 1.145 0.049 1.847 0.144l4.182 13.776c0.106 0.349 0.409 0.603 0.768 0.641l1.948 0.223" fill="#E1C8A6"/>
<path d="m114.54 140.26l0.919-0.646c-0.152 0.639-0.317 1.273-0.49 1.901-1.278 4.099-2.788 7.724-4.464 10.928-0.371 0.025-0.762 0.04-1.181 0.04-1.294 0-2.616-0.11-4.078-0.244-2.538-0.233-6.566-0.694-7.838-0.842-1.096-0.874-4.845-3.853-7.965-6.308-0.123-0.099-0.228-0.191-0.331-0.276-0.549-0.464-1.174-0.992-2.439-0.992-1.149 0-2.826 0.418-6.882 1.645 2.108-1.575 2.121-3.608 2.121-3.608l0.099-0.857 26.735 3.038c0.218 0.025 0.444-0.032 0.627-0.159l2.686-1.881 2.481-1.739" fill="#E1C8A6"/>
<path d="m94.859 84.014c0.081 2.379 0.021 6.689-1.086 10.724-0.045 0.156-0.038 0.315 0 0.462-1.409-0.148-2.819-0.275-4.229-0.388 1.582-3.316 1.927-6.847 2.002-8.091 1.215-0.864 2.425-1.9 3.313-2.707" fill="#E7D194"/>
<path d="m54.521 86.721c0.074 1.244 0.419 4.768 1.999 8.081-1.41 0.112-2.82 0.243-4.226 0.391 0.038-0.145 0.042-0.3 0-0.455-1.107-4.028-1.163-8.342-1.086-10.724 0.888 0.807 2.093 1.843 3.313 2.707" fill="#E7D194"/>
<path d="m93.159 124.34c0.794-0.018 1.427-0.673 1.414-1.466-0.014-0.797-0.67-1.431-1.467-1.413-0.796 0.013-1.427 0.669-1.412 1.466 0.014 0.793 0.67 1.428 1.465 1.413zm8.85 6.481c-1.896-0.916-3.975 0.248-7.76 0.318-2.816 0.099-5.181 0.13-5.336-4.293-0.155-4.427 1.649-8.087 4.465-8.187 2.816-0.098 5.385 3.412 5.731 7.828 0.095 1.216-0.039 2.104-0.342 2.762 2.622-0.313 3.214 1.467 3.242 1.572" fill="#292C2D"/>
<path d="m93.106 121.45c0.795-0.014 1.451 0.618 1.465 1.413 0.015 0.795-0.618 1.451-1.412 1.465-0.795 0.015-1.451-0.618-1.466-1.412-0.014-0.795 0.618-1.452 1.413-1.466" fill="#F0F7F8"/>
<path d="m52.811 125.41c0.794-0.021 1.421-0.685 1.4-1.477-0.022-0.797-0.683-1.424-1.476-1.402-0.798 0.02-1.426 0.683-1.404 1.476 0.021 0.797 0.684 1.424 1.48 1.403zm4.353 2.315c0.041 4.427-2.302 4.159-5.122 4.187-0.285 7e-3 -0.556 0.01-0.825 0.014-0.316 7e-3 -0.619 0.011-0.912 3e-3 -2.735-3e-3 -4.483-0.127-6.03 0.708 0.038-0.095 0.716-1.614 3.173-2.23-0.272-0.6-0.442-1.431-0.487-2.584-0.169-4.422 2.559-8.049 5.378-8.073 2.816-0.028 4.782 3.55 4.825 7.975" fill="#292C2D"/>
<path d="m52.736 122.53c0.796-0.021 1.457 0.607 1.477 1.402 0.021 0.796-0.607 1.456-1.402 1.477-0.796 0.021-1.456-0.607-1.477-1.402-0.021-0.796 0.607-1.457 1.402-1.477" fill="#F0F7F8"/>
<path d="m34.88 98.134l-0.327-0.617-0.013-1.623 0.852-9.644 14.803-3.585 0.922 12.447c-0.718-0.973-1.792-3.176-2.458-6.198-0.356-1.614-1.501-2.074-2.818-2.074-1.149 0-2.429 0.35-3.431 0.589-2.152 0.512-4.969 1.229-5.43 2.356-0.894 2.185-1.332 7.888-1.332 7.888l-0.768 0.461" fill="#EAD798"/>
<path d="m111.32 98.134l-0.769-0.461s-0.437-5.703-1.331-7.888c-0.461-1.127-3.278-1.844-5.429-2.356-1.003-0.239-2.283-0.589-3.432-0.589-1.318 0-2.462 0.46-2.818 2.074-0.665 3.022-1.741 5.225-2.459 6.198l0.923-12.447 14.803 3.585 0.726 8.221-0.027 3.308-0.187 0.355" fill="#EAD798"/>
<path d="m88.159 95.9l-29.84-0.055-1.547-3.482-1.105-5.968-2.433-1.933-0.055-13.898 3.425-10.129s0.562 29.833 7.534 29.833h8.367 1.394 8.365c6.972 0 7.364-29.846 7.364-29.846l4.535 16.73-3.295 9.409-0.167 2.653-1.161 4.199-1.381 2.487" fill="#EAD899"/>
<path d="m118.5 101.23s-0.422-0.206-1.687-0.825c0 0 1.688 0.825 1.687 0.825m-1.687-0.825l-5.317-1.603 8e-3 -1.021 0.274-0.515-0.247-2.793 0.05-6.22s1.435 10.295 5.232 12.152" fill="#EAD899"/>
<path d="m111.51 97.779l0.027-3.308 0.247 2.793-0.274 0.515" fill="#E8D295"/>
<path d="m27.559 101.23c-1e-3 0 1.687-0.825 1.687-0.825-1.265 0.619-1.687 0.825-1.687 0.825m1.687-0.825c3.798-1.857 5.233-12.152 5.233-12.152l0.061 7.643-0.121 1.37 0.134 0.253 0.01 1.283-5.317 1.603" fill="#EAD899"/>
<path d="m34.553 97.517l-0.134-0.253 0.121-1.37 0.013 1.623" fill="#E8D295"/>
<path d="m50.658 95.369l-0.064-0.162c-1.296-4.716-1.24-9.66-1.124-11.941l-13.459 3.827c-0.905 5.893-0.483 10.224-0.392 11.021 1.118-0.303 2.238-0.582 3.367-0.843 1.86-0.412 3.735-0.757 5.614-1.074 1.882-0.314 3.77-0.553 5.659-0.782 0.135-0.018 0.265-0.028 0.399-0.046zm5.861-0.567c-1.58-3.313-1.925-6.838-1.999-8.081-1.219-0.864-2.425-1.9-3.312-2.707-0.078 2.383-0.021 6.696 1.085 10.724 0.043 0.156 0.038 0.311 0 0.456 1.407-0.149 2.816-0.279 4.226-0.392zm37.253-0.064c1.108-4.035 1.167-8.346 1.086-10.724-0.888 0.807-2.097 1.843-3.313 2.706-0.074 1.244-0.419 4.775-2.002 8.091 1.41 0.114 2.82 0.24 4.229 0.388-0.038-0.147-0.044-0.305 0-0.461zm16.671 3.379c0.092-0.792 0.518-5.123-0.388-11.023l-13.463-3.827c0.121 2.28 0.174 7.225-1.12 11.94l-0.066 0.17c0.133 0.013 0.268 0.024 0.398 0.042 3.785 0.433 7.552 1.039 11.277 1.856 1.123 0.262 2.248 0.54 3.362 0.842zm2.163 0.635c1.808 0.592 3.626 1.219 5.273 2.182-0.881-0.349-1.791-0.599-2.707-0.825-0.913-0.233-1.833-0.43-2.757-0.606-1.85-0.349-3.707-0.644-5.575-0.871-1.864-0.243-3.731-0.447-5.607-0.606-1.875-0.158-3.746-0.317-5.625-0.426-7.51-0.462-15.04-0.578-22.576-0.586-7.534 4e-3 -15.066 0.145-22.576 0.589-1.878 0.109-3.75 0.268-5.624 0.427-1.875 0.158-3.747 0.359-5.607 0.605-1.868 0.227-3.726 0.523-5.576 0.871-0.923 0.173-1.843 0.374-2.759 0.603-0.913 0.226-1.826 0.476-2.707 0.825 1.646-0.962 3.464-1.593 5.275-2.186 0.153-0.049 0.307-0.091 0.462-0.14l-0.029-0.116c-0.031-0.208-0.701-5.156 0.465-12.233 0.057-0.339 0.3-0.614 0.632-0.705l1.914-0.546c0.415-14.844 6.529-21.826 6.72-22.041-5.463 8.79-5.413 19.215-5.318 21.642l11.893-3.38 0.028-6e-3 0.148-0.021 0.049-4e-3c0.061-4e-3 0.128 4e-3 0.195 0.017l0.035 0.011 0.147 0.049 0.056 0.032 0.117 0.074 0.032 0.021 0.021 0.021 0.035 0.029c8e-3 0.011 0.324 0.324 0.828 0.793-0.119-3.918 0.067-15.161 5.421-24.479-0.113 0.327-4.361 12.747-2.897 26.668 0.475 0.38 0.975 0.753 1.463 1.081 0.235 0.163 0.38 0.43 0.383 0.716 4e-3 0.046 0.106 4.483 2.066 8.257 0.027 0.057 0.048 0.116 0.067 0.176 4.874-0.331 9.761-0.465 14.639-0.468 4.878 3e-3 9.762 0.144 14.635 0.479 0.018-0.063 0.04-0.126 0.072-0.187 1.959-3.774 2.061-8.211 2.061-8.257 7e-3 -0.286 0.152-0.553 0.388-0.716 0.486-0.328 0.98-0.701 1.459-1.081 1.466-13.921-2.782-26.341-2.894-26.668 5.349 9.318 5.54 20.56 5.421 24.479 0.5-0.469 0.817-0.782 0.827-0.793l0.035-0.029 0.022-0.021 0.032-0.021 0.116-0.078 0.053-0.028 0.155-0.052 0.032-8e-3c0.063-0.013 0.131-0.021 0.194-0.017l0.046 4e-3 0.152 0.021 0.027 6e-3 11.895 3.38c0.095-2.427 0.145-12.853-5.317-21.642 0.189 0.215 6.304 7.197 6.716 22.041l1.917 0.546c0.328 0.091 0.574 0.366 0.631 0.705 1.166 7.077 0.494 12.025 0.465 12.233l-0.028 0.119c0.157 0.046 0.309 0.091 0.464 0.141" fill="#292C2D"/>
<path d="m84.84 69.609v-6.423h-23.11v6.423h3.159v-3.263h6.538v19.83h-2.69v3.678h9.097v-3.678h-2.69v-19.83h6.537v3.263h3.159zm2.379-8.797v11.17h-7.918v-3.263h-1.784v15.077h2.696v8.431h-13.85v-8.431h2.685v-15.077h-1.779v3.264h-7.912v-11.171h27.862" fill="#292C2D"/>
<path d="m84.84 63.186v6.423h-3.16v-3.263h-6.537v19.83h2.69v3.678h-9.096v-3.678h2.69v-19.83h-6.538v3.263h-3.159v-6.423h23.11" fill="#B93446"/>
<path d="m22.528 109.46c1.154-0.262 2.714-0.595 4.626-0.964-1.175 0.801-2.564 1.807-4.082 3.016l-0.544-2.052" fill="#5F655E"/>
<path d="m64.792 140.07s0.323 2.077-2.583 2.965c-2.906 0.889-21.312 6.375-23.411 6.078-2.099-0.296-7.427-3.854-7.427-3.854l-1.292-4.595 7.884 4.915 26.829-5.509" fill="#BFAC91"/>
<path d="m81.281 139.67s-0.232 2.088 2.71 2.851c2.942 0.762 21.569 5.442 23.653 5.055 2.083-0.388 7.251-4.174 7.251-4.174l1.091-4.648-7.246 4.323-27.459-3.407" fill="#BFAC91"/>
<path d="m21.031 136.25s2.55 5.102 6.67 3.335l2.943 1.08-0.294 2.158-6.18 0.784-1.667-0.98-1.472-6.377" fill="#BFAC91"/>
<g clip-path="url(#a)">
<path d="m125.44 134.85s-4.168 5.324-8.288 3.559l-1.324 0.854 0.294 2.158 6.179 0.785 1.667-0.981 1.472-6.375" fill="#BFAC91"/>
<path d="m60.966 174.93s15.11 7.618 32.218-2.748l-5.494-0.374s-11.988 4.745-21.479 2.122l-5.245 1" fill="#BFAC91"/>
<path d="m27.154 108.5c-1.912 0.37-3.472 0.702-4.626 0.964l0.544 2.052c1.518-1.21 2.907-2.215 4.082-3.016zm2.504 33.697c-0.144-0.455-0.279-0.917-0.408-1.379l-3.387-2.37c-0.214-0.15-0.35-0.377-0.384-0.636l-1.651-13.416c-1.223 0.655-2.635 1.46-3.013 1.776-0.326 0.268-0.574 0.958-0.22 4.154 0.438 3.943 2.435 11.372 3.509 12.452 1.291 0.228 4.151-0.169 5.554-0.581zm20.24-35.559c2.51-0.703 5.099-1.318 7.751-1.834-3.804 0.139-7.611 0.315-11.412 0.53-2.208 0.122-4.406 0.272-6.603 0.438-1.101 0.084-2.195 0.172-3.286 0.292-0.312 0.03-0.618 0.064-0.93 0.105-2.866 1.715-13.861 8.617-21.409 17.641 7.334-5.097 20.112-12.756 35.889-17.172zm-1.416 6.528c2.133-2.116 4.333-3.862 6.277-5.227-7.49 1.739-14.384 4.293-20.423 7.071 3.929-0.635 8.688-1.297 14.146-1.844zm28.746-8.624c-1.516-0.024-3.033-0.037-4.549-0.041h-3e-3c-2.224 4e-3 -4.453 0.027-6.685 0.072l-4.113 1.949-0.058 0.032c-0.618 0.302-6.019 3.026-11.1 7.887 4.555-2.395 11.249-5.523 19.127-7.949 2.36-0.723 4.833-1.39 7.381-1.95zm-2.504 12.327c1.199-0.724 2.351-1.552 3.444-2.436-1.566-0.026-3.155-0.047-4.775-0.047-6.651 0-12.863 0.273-18.495 0.696-5.649 2.762-9.103 5.034-9.184 5.092l-5.424 3.617 3.726-5.346c0.614-0.888 1.267-1.73 1.939-2.531-6.257 0.7-11.467 1.528-15.359 2.245l1.993 16.162 6.858 4.803 21.772-4.841 4.076-13.426c0.068-0.221 0.217-0.408 0.411-0.521 0.065-0.041 0.133-0.071 0.207-0.091 0.126-0.035 2.303-0.656 4.813-0.962l3.998-2.414zm2.201 51.59c0.693-0.054 1.389-0.143 2.089-0.248-0.907-0.943-1.709-1.82-2.341-2.53-0.309 0.71-0.719 1.643-1.26 2.847h0.16c0.431 0 0.904-0.047 1.352-0.069zm11.416 4.896c-2.954-0.218-5.641-1.447-7.809-3.594-0.113-0.115-0.221-0.225-0.33-0.336-1.048 0.211-2.112 0.367-3.202 0.462-0.458 0.017-0.893 0.057-1.372 0.057l-0.711 7e-3 -0.271-7e-3c-2.884 4.29-9.289 5.126-9.582 5.164-0.264 0.03-0.482 0.067-0.781 0.122 3.57 0.978 7.214 1.402 10.808 1.161 3.603-0.241 8.285-1.022 13.25-3.036zm-2.353-66.978c0.247-0.309 0.478-0.608 0.685-0.88-2.153 0.218-4.273 0.531-6.345 0.924-7.095 1.328-13.647 3.536-19.099 5.798 3.863-0.187 7.924-0.298 12.164-0.298 2.564 0 5.057 0.044 7.482 0.115 2.086-2.005 3.846-4.056 5.113-5.659zm19.601-0.608l-0.02-8e-3c-2.147-0.159-4.293-0.306-6.447-0.427-2.988-0.171-5.978-0.313-8.967-0.438-0.174 0.258-0.526 0.767-1.033 1.46-1.626 2.201-4.853 6.239-8.991 9.663 5.857-1.049 16.015-3.648 24.803-9.779 0.22-0.156 0.438-0.319 0.655-0.471zm9.864 33.85l-0.921 0.645-2.479 1.739-2.687 1.882c-0.183 0.126-0.408 0.184-0.626 0.16l-26.734-3.04-1.946-0.221c-0.36-0.042-0.662-0.293-0.768-0.641l-4.184-13.777c-0.699-0.095-1.321-0.144-1.843-0.144-0.531 0-1.149 0.048-1.849 0.144l-4.062 13.379c-0.095 0.312-0.353 0.551-0.673 0.621l-28.497 6.346c-0.068 0.013-0.136 0.019-0.201 0.019-0.183 0-0.366-0.054-0.523-0.166l-1.035-0.72-3.101-2.17v-7e-3l-1.253-0.876c0.088 0.282 0.189 0.558 0.289 0.832l-4e-3 4e-3c0.241 0.716 2.643 7.625 7.524 14.388 5.227-1.542 9.748-2.976 11.191-3.434 2.944-4.539 7.136-9.04 10.115-9.195 0.513-0.024 1.047-0.04 1.576-0.04 1.458 0 2.85 0.105 4.14 0.258-1.096-0.996-1.32-2.164-1.48-2.68 0 0 3.801 2.972 8.641 2.351 4.841-0.625 7.846-3.414 7.846-3.414s-0.013 2.035-2.123 3.61c4.056-1.226 5.734-1.647 6.882-1.647 1.267 0 1.892 0.53 2.439 0.996 0.105 0.085 0.211 0.176 0.332 0.275 3.119 2.455 6.868 5.435 7.966 6.308 1.27 0.149 5.298 0.608 7.836 0.842 1.463 0.132 2.785 0.244 4.079 0.244 0.418 0 0.809-0.017 1.179-0.041 1.678-3.202 3.187-6.831 4.467-10.926 0.171-0.63 0.338-1.265 0.487-1.904zm-1.511-7.771l1.963-13.744c-5.537-1.008-13.634-2.227-23.552-2.988-8.954 3.088-16.453 4.007-16.905 4.038l-0.523 0.038c2.856 0.245 5.547 1.013 5.682 1.053 0.297 0.088 0.527 0.315 0.619 0.612l4.059 13.362 21.742 2.469 6.915-4.84zm5.295 2.894l2.221-15.534c-0.988-0.214-2.251-0.478-3.76-0.767l-2.007 14.055c-0.038 0.248-0.174 0.476-0.378 0.619l-7.526 5.264c-0.178 0.125-0.405 0.183-0.622 0.159l-22.682-2.578c-0.364-0.041-0.666-0.292-0.772-0.638l-4.086-13.45c-1.094-0.283-3.903-0.939-6.361-0.939-2.47 0-5.276 0.656-6.37 0.939l-4.086 13.45c-0.071 0.233-0.235 0.428-0.447 0.539-0.068 0.037-0.146 0.064-0.225 0.082l-22.683 5.047c-0.071 0.014-0.132 0.021-0.201 0.021-0.183 0-0.366-0.054-0.519-0.164l-7.524-5.267c-0.21-0.147-0.35-0.378-0.384-0.636l-2.028-16.449c-0.842 0.163-1.602 0.319-2.282 0.461-0.482 0.266-0.958 0.531-1.427 0.796l2.153 17.431 10.935 7.66 27.587-6.137 4.072-13.417c0.102-0.337 0.384-0.585 0.727-0.639 1.033-0.166 1.936-0.251 2.701-0.251 0.756 0 1.663 0.085 2.693 0.251 0.346 0.054 0.628 0.302 0.727 0.639l4.177 13.75 27.741 3.154 10.636-7.451zm3.07-17.87l1.954-7.408c-2.833-0.641-8.051-1.716-15.156-2.721-3.629 2.608-7.599 4.694-11.502 6.358 11.941 1.162 20.713 2.891 24.704 3.771zm3.386 11.578c0.3-3.314 0.039-4.027-0.298-4.3-0.337-0.282-1.474-0.926-2.582-1.528l-1.823 12.771c-0.034 0.248-0.174 0.473-0.381 0.618l-2.609 1.824c-0.207 1.045-0.281 1.539-0.536 2.561 1.491 0.346 3.936 0.615 5.101 0.39 1.058-1.146 2.765-8.273 3.128-12.336zm7.87-31.513c0.096 1.912 0.045 3.827-0.169 5.73-0.2 1.899-0.56 3.78-1.062 5.646-0.263 0.927-0.564 1.844-0.921 2.754-0.181 0.455-0.374 0.907-0.584 1.359-0.106 0.224-0.217 0.445-0.343 0.672l-0.187 0.336c-0.068 0.122-0.122 0.214-0.228 0.377l-0.193 0.3-0.302 0.155c-0.323 0.167-0.588 0.292-0.881 0.429l-0.851 0.383c-0.572 0.244-1.145 0.475-1.719 0.699-0.401 0.157-0.755 0.3-1.091 0.442l-0.947 3.6c-0.024-5e-3 -0.309-0.078-0.842-0.206l-0.051 0.376c1.046 0.547 3.101 1.655 3.801 2.233 1.409 1.165 1.508 3.01 1.196 6.457-0.16 1.769-0.748 5.213-1.563 8.376-1.406 5.444-2.154 6.084-3.118 6.331-0.489 0.126-1.243 0.251-1.974 0.251-1.486 0-3.512 0.041-4.874-0.288-0.349 1.239-1.348 4.469-3.325 8.504 0.099-0.047 0.197-0.088 0.286-0.135 2.438-1.281 7.126-3.323 7.323-3.411l3.702-1.609-1.896 3.566c-0.044 0.077-4.11 7.724-6.599 12.717-2.473 4.946-7.109 6.022-9.885 6.66-0.418 0.099-0.814 0.191-1.137 0.279-1.991 0.56-6.023 1.521-9.578 2.377l-0.129 0.027c-2.188 1.353-4.576 2.559-7.188 3.551-9.558 3.62-19.632 3.417-28.766 0.06-1.483 0.191-3.434 0.424-6.031 0.72-1.129 0.126-2.226 0.191-3.271 0.191-8.703 0-13.315-4.42-16.681-8.747-3.604-4.633-8.013-11.512-8.2-11.8l-2.556-3.987 4.321 1.943c2.068 0.931 8.217 3.777 9.976 4.593 0.142-0.041 0.282-0.082 0.421-0.123-2.925-4.17-5.323-8.926-7.017-14.194-1.44 0.435-3.659 0.771-5.384 0.771-0.631 0-1.196-0.047-1.63-0.149-0.965-0.221-2.065-1.151-3.563-6.427-0.87-3.062-1.518-6.406-1.708-8.127-0.374-3.36-0.306-5.159 1.09-6.322 0.842-0.703 3.682-2.194 4.27-2.499l-0.126-1.037c-9.022 5.302-14.429 9.986-14.538 10.082l-6.451 5.661 4.596-7.248c3.637-5.744 7.839-10.387 11.705-13.964-0.16-0.064-0.309-0.129-0.466-0.193l-0.852-0.384c-0.292-0.136-0.557-0.262-0.879-0.428l-0.303-0.156-0.193-0.3c-0.109-0.163-0.157-0.254-0.228-0.376l-0.19-0.336c-0.119-0.228-0.235-0.449-0.34-0.673-0.215-0.452-0.408-0.904-0.584-1.358-0.357-0.91-0.66-1.827-0.921-2.755-0.506-1.865-0.863-3.746-1.063-5.645-0.211-1.903-0.265-3.818-0.17-5.73 0.051-0.955 0.143-1.909 0.275-2.857 0.068-0.475 0.139-0.951 0.235-1.423 0.098-0.482 0.194-0.931 0.339-1.458l0.102-0.37 0.265-0.208c1.505-1.182 3.129-2.075 4.779-2.866 1.359-0.639 2.745-1.203 4.141-1.717 3.899-10.821 10.604-20.416 19.415-27.104 9.11-6.912 19.822-10.566 30.98-10.566s21.87 3.654 30.98 10.567c8.811 6.688 15.516 16.284 19.412 27.101 1.4 0.517 2.782 1.077 4.144 1.719 1.65 0.792 3.274 1.685 4.779 2.867l0.265 0.208 0.102 0.37c0.149 0.527 0.244 0.976 0.339 1.457 0.096 0.473 0.171 0.948 0.235 1.424 0.133 0.947 0.228 1.901 0.274 2.855zm-104.6-12.017c-1.65 0.665-3.291 1.352-4.894 2.106-1.607 0.734-3.186 1.522-4.695 2.401-1.391 0.802-2.727 1.681-3.906 2.674-0.05 0.299-0.098 0.625-0.138 0.934-0.052 0.437-0.103 0.876-0.137 1.318-0.078 0.883-0.109 1.773-0.118 2.663-0.017 1.78 0.105 3.56 0.329 5.322 0.244 1.766 0.567 3.523 1.046 5.218 0.238 0.849 0.503 1.688 0.816 2.495 0.153 0.409 0.323 0.806 0.5 1.193 0.088 0.193 0.18 0.384 0.271 0.567l0.113 0.214c0.131 0.068 0.268 0.136 0.396 0.197l0.792 0.376c0.441 0.204 1.05 0.493 1.552 0.717l0.081-0.074-1.463-5.584c0.309-0.085 3.095-0.805 7.894-1.719-0.387-0.071-0.782-0.156-1.165-0.248-1.09-0.271-2.171-0.605-3.213-1.026-0.517-0.22-1.03-0.458-1.515-0.734-0.486-0.279-0.965-0.594-1.335-1.015 5.271 1.722 16.164 0.94 25.849-0.058 8.858-0.914 17.733-1.504 26.656-1.525 8.923 0.02 17.805 0.611 26.657 1.525 9.691 0.999 20.585 1.78 25.854 0.058-0.37 0.421-0.848 0.736-1.334 1.015-0.485 0.276-0.999 0.513-1.515 0.734-1.047 0.421-2.123 0.754-3.217 1.026-0.16 0.036-0.323 0.074-0.486 0.109 5.262 0.975 8.325 1.769 8.651 1.858l-1.403 5.319c0.283-0.126 0.567-0.248 0.845-0.377l0.792-0.377c0.129-0.061 0.265-0.128 0.398-0.196l0.109-0.214c0.094-0.183 0.186-0.374 0.275-0.567 0.177-0.388 0.346-0.785 0.503-1.193 0.309-0.808 0.577-1.647 0.811-2.496 0.48-1.694 0.806-3.451 1.046-5.217 0.227-1.762 0.347-3.543 0.33-5.322-7e-3 -0.89-0.041-1.78-0.116-2.663-0.037-0.442-0.085-0.88-0.139-1.319-0.038-0.309-0.089-0.635-0.14-0.933-1.179-0.993-2.514-1.872-3.907-2.674-1.508-0.88-3.086-1.668-4.697-2.402-1.599-0.754-3.243-1.44-4.894-2.105-0.826-0.334-1.659-0.66-2.494-0.969-0.831-0.322-1.674-0.627-2.516-0.933 1.769 0.292 3.523 0.695 5.257 1.141 1.131 0.292 2.26 0.622 3.373 0.971-7.945-20.77-26.946-34.295-47.688-34.295-20.748 0-39.744 13.525-47.688 34.295 1.116-0.349 2.241-0.679 3.369-0.971 1.739-0.445 3.491-0.849 5.262-1.141-0.847 0.305-1.685 0.611-2.521 0.933-0.832 0.309-1.663 0.635-2.493 0.968zm47.323 75.976l1.046 1.246c0.023 0.03 2.347 2.795 5.187 5.611 1.889 1.872 4.171 2.819 6.786 2.819 0.893 0 1.831-0.115 2.778-0.343 0.88-0.214 1.835-0.442 2.813-0.676 3.533-0.844 7.534-1.804 9.473-2.347 0.384-0.109 0.812-0.206 1.263-0.309 2.582-0.597 6.121-1.42 7.996-5.176 1.41-2.82 3.311-6.479 4.722-9.16-1.223 0.563-2.504 1.174-3.414 1.653-1.403 0.737-3.24 1.094-5.615 1.094-1.412 0-2.799-0.119-4.333-0.255-3.068-0.282-8.258-0.893-8.311-0.901l-0.398-0.043-0.313-0.252c-0.047-0.034-4.595-3.658-8.271-6.548-0.149-0.122-0.285-0.235-0.408-0.337-0.387-0.33-0.387-0.33-0.618-0.33-1.179 0-4.605 1.063-12.113 3.39l-0.461 0.146-0.452-0.17c-0.051-0.017-4.976-1.844-10.879-1.844-0.483 0-0.964 0.013-1.433 0.037-0.591 0.03-3.909 1.606-8.152 8.319l-0.275 0.431-0.486 0.157c-0.071 0.024-7.374 2.381-15.118 4.596l-0.503 0.143-0.475-0.222c-0.051-0.02-3.081-1.426-5.965-2.751 1.573 2.323 3.584 5.221 5.353 7.494 3.091 3.98 6.987 7.659 14.457 7.659 0.936 0 1.932-0.058 2.954-0.174 7.598-0.859 9.555-1.205 10.608-1.389 0.356-0.06 0.638-0.112 0.998-0.156 0.058-7e-3 6.28-0.812 8.026-4.728 1.8-4.024 2.164-4.983 2.177-5.02l0.636-1.694s0.078-0.439 0.208-0.576l3e-3 4e-3 0.012 0.01c0.2 0.144 0.497 0.592 0.497 0.592" fill="#292C2D"/>
</g>
</svg>
