<?xml version="1.0" encoding="UTF-8"?>
<!DOCTYPE svg PUBLIC "-//W3C//DTD SVG 1.1//EN" "http://www.w3.org/Graphics/SVG/1.1/DTD/svg11.dtd">
<svg version="1.1" xmlns="http://www.w3.org/2000/svg" xmlns:xlink="http://www.w3.org/1999/xlink" x="0" y="0" width="642" height="200" viewBox="0, 0, 642, 200">
  <g id="Background">
    <rect x="0" y="0" width="642" height="200" fill="#FFFFFF"/>
  </g>
  <defs>
    <clipPath id="Clip_1">
      <path d="M-0,200 L641.268,200 L641.268,0 L-0,0 z"/>
    </clipPath>
  </defs>
  <g id="Layer_1">
    <path d="M48.172,87.282 C48.172,87.282 16.8,109.364 15.572,117.777 L17.927,117.293 C17.927,117.293 55.496,92.391 85.277,89.354 L85.951,85.575 L48.172,87.282" fill="#B93346"/>
    <path d="M97.421,84.126 L72.709,101.653 L74.044,102.725 C75.052,101.913 117.941,88.814 117.941,88.814 L126.983,83.145 C120.916,83.9 97.421,84.126 97.421,84.126" fill="#B93346"/>
    <path d="M118.899,105.325 C136.446,105.325 162.75,88.139 162.75,88.139 L154.247,86.52 C153.826,86.941 140.536,86.054 140.536,86.054 L134.227,84.302 L119.153,101.477 L117.926,104.457 C119.01,104.018 118.899,105.325 118.899,105.325" fill="#B93346"/>
    <path d="M44.82,170.423 C44.699,170.368 44.577,170.312 44.456,170.256 C43.593,169.511 42.887,168.902 42.426,168.505 L44.82,170.423 z M176.16,160.134 L170.739,161.66 L145.693,161.119 L130.024,148.934 L111.087,153.672 L89.183,151.777 L76.918,165.18 L53.902,172.054 L42.41,168.492 C42.044,168.176 41.832,167.993 41.832,167.993 L46.99,180.623 C46.99,180.623 58.673,193.149 65.199,194.622 C71.724,196.096 83.513,194.517 92.355,193.148 C101.196,191.78 108.248,188.622 111.09,183.466 C113.931,178.307 114.352,176.834 114.352,176.834 C114.352,176.834 122.774,188.728 130.036,190.097 C137.298,191.465 158.875,184.096 158.875,184.096 C158.875,184.096 172.033,180.518 174.348,175.992 C176.663,171.466 182.769,156.626 182.769,156.626 L176.16,160.134" fill="#B93346"/>
    <path d="M197.438,70.66 C197.383,69.983 197.308,69.307 197.226,68.635 C197.167,68.158 197.092,67.66 197.01,67.199 C195.202,65.678 193.148,64.324 191.009,63.095 C188.692,61.741 186.266,60.528 183.791,59.402 C181.333,58.242 178.809,57.192 176.269,56.169 C175.002,55.654 173.724,55.156 172.44,54.679 C171.161,54.18 169.869,53.715 168.573,53.244 C171.292,53.694 173.983,54.311 176.654,54.999 C178.392,55.448 180.12,55.951 181.836,56.488 C169.625,24.574 140.43,3.79 108.553,3.79 C76.672,3.79 47.479,24.574 35.271,56.488 C36.988,55.951 38.716,55.448 40.45,54.999 C43.124,54.311 45.816,53.694 48.534,53.244 C47.234,53.715 45.946,54.18 44.662,54.679 C43.385,55.156 42.106,55.654 40.833,56.169 C38.294,57.192 35.776,58.242 33.312,59.402 C30.843,60.528 28.416,61.741 26.098,63.095 C23.959,64.324 21.907,65.678 20.092,67.199 C20.017,67.66 19.941,68.158 19.881,68.635 C19.8,69.307 19.724,69.983 19.669,70.66 C19.551,72.019 19.503,73.384 19.491,74.754 C19.464,77.489 19.648,80.224 19.995,82.931 C20.369,85.645 20.867,88.341 21.603,90.947 C21.966,92.253 22.378,93.54 22.853,94.786 C23.093,95.408 23.352,96.021 23.623,96.617 C23.758,96.914 23.899,97.206 24.04,97.488 L24.214,97.819 C24.414,97.921 24.625,98.025 24.825,98.122 L26.039,98.702 C26.715,99.009 27.652,99.454 28.427,99.801 L28.551,99.687 L26.298,91.104 C26.775,90.973 31.054,89.869 38.429,88.466 C37.833,88.353 37.233,88.222 36.642,88.082 C34.963,87.664 33.306,87.156 31.703,86.505 C30.907,86.169 30.122,85.802 29.375,85.381 C28.627,84.951 27.891,84.465 27.322,83.819 C35.423,86.463 52.163,85.265 67.044,83.728 C80.654,82.325 94.295,81.415 108.006,81.389 C121.719,81.415 135.366,82.325 148.969,83.728 C163.856,85.265 180.596,86.463 188.697,83.819 C188.128,84.465 187.393,84.951 186.645,85.381 C185.898,85.802 185.113,86.169 184.317,86.505 C182.712,87.156 181.056,87.664 179.378,88.082 C179.129,88.142 178.878,88.196 178.629,88.25 C186.715,89.75 191.422,90.968 191.925,91.104 L189.77,99.281 C190.203,99.086 190.641,98.896 191.07,98.702 L192.282,98.122 C192.483,98.025 192.688,97.921 192.894,97.819 L193.061,97.488 C193.209,97.206 193.35,96.914 193.484,96.617 C193.756,96.021 194.016,95.408 194.254,94.786 C194.73,93.54 195.143,92.253 195.505,90.947 C196.242,88.341 196.74,85.645 197.113,82.931 C197.461,80.224 197.644,77.489 197.618,74.754 C197.606,73.384 197.557,72.019 197.438,70.66" fill="#F4EEAA"/>
    <path d="M117.745,184.158 C116.672,184.32 115.599,184.455 114.533,184.536 C113.845,184.569 113.118,184.639 112.458,184.639 L112.214,184.645 C113.043,182.793 113.671,181.358 114.148,180.27 C115.118,181.358 116.353,182.707 117.745,184.158" fill="#E1C8A5"/>
    <path d="M120.077,186.535 C123.408,189.834 127.535,191.722 132.079,192.058 C124.448,195.157 117.256,196.354 111.716,196.726 C106.193,197.096 100.594,196.445 95.107,194.94 C95.567,194.858 95.903,194.799 96.309,194.75 C96.76,194.695 106.6,193.412 111.035,186.817 L111.451,186.827 L112.54,186.817 C113.277,186.817 113.947,186.757 114.651,186.729 C116.325,186.584 117.961,186.346 119.569,186.021 C119.738,186.193 119.905,186.362 120.077,186.535" fill="#E1C8A5"/>
    <path d="M129.517,87.785 C129.198,88.201 128.841,88.66 128.461,89.138 C126.512,91.602 123.809,94.753 120.603,97.836 C116.877,97.72 113.047,97.657 109.105,97.657 C102.592,97.657 96.347,97.829 90.417,98.117 C98.795,94.64 108.863,91.244 119.764,89.203 C122.948,88.601 126.207,88.12 129.517,87.785" fill="#5F655D"/>
    <path d="M80.475,91.536 C77.485,93.638 74.106,96.319 70.83,99.573 C62.441,100.412 55.124,101.43 49.087,102.406 C58.369,98.138 68.962,94.212 80.475,91.536" fill="#5F655D"/>
    <path d="M182.968,108.854 L179.556,132.727 L163.211,144.175 L120.581,139.329 L114.164,118.196 C114.012,117.682 113.578,117.304 113.047,117.217 C111.467,116.962 110.07,116.832 108.906,116.832 C107.736,116.832 106.344,116.962 104.757,117.217 C104.231,117.304 103.799,117.682 103.642,118.196 L97.382,138.814 L54.99,148.247 L38.191,136.48 L34.881,109.69 C35.602,109.283 36.334,108.877 37.075,108.472 C38.115,108.248 39.285,108.011 40.579,107.762 L43.698,133.041 C43.747,133.435 43.964,133.788 44.289,134.015 L55.845,142.113 C56.083,142.274 56.365,142.361 56.647,142.361 C56.749,142.361 56.847,142.351 56.956,142.328 L91.809,134.573 C91.928,134.546 92.048,134.503 92.156,134.448 C92.48,134.276 92.736,133.978 92.844,133.615 L99.12,112.949 C100.803,112.516 105.116,111.509 108.906,111.509 C112.686,111.509 117.001,112.516 118.686,112.949 L124.962,133.615 C125.125,134.151 125.591,134.535 126.148,134.601 L161.002,138.56 C161.339,138.597 161.685,138.509 161.961,138.316 L173.524,130.226 C173.837,130.004 174.048,129.655 174.102,129.272 L177.19,107.675 C179.507,108.119 181.446,108.525 182.968,108.854" fill="#5F655D"/>
    <path d="M187.273,93.882 L184.273,105.265 C178.138,103.912 164.657,101.257 146.311,99.47 C152.305,96.914 158.409,93.708 163.986,89.701 C174.903,91.244 182.919,92.896 187.273,93.882" fill="#5F655D"/>
    <path d="M116.444,101.517 C114.765,102.877 112.995,104.149 111.153,105.259 L105.006,108.969 C101.151,109.439 97.804,110.393 97.615,110.448 C97.502,110.48 97.394,110.528 97.295,110.589 C96.997,110.762 96.77,111.048 96.661,111.39 L90.402,132.017 L56.945,139.458 L46.407,132.077 L43.341,107.241 C49.325,106.142 57.329,104.87 66.942,103.793 C65.912,105.027 64.911,106.321 63.963,107.68 L58.239,115.895 L66.574,110.338 C66.698,110.252 72.005,106.76 80.687,102.514 C89.339,101.864 98.887,101.446 109.105,101.446 C111.596,101.446 114.04,101.475 116.444,101.517 z M64.364,129.494 C66.741,128.21 69.427,128.4 73.629,128.406 C74.08,128.416 74.545,128.411 75.031,128.4 C75.444,128.395 75.86,128.389 76.299,128.378 C80.631,128.336 84.232,128.747 84.168,121.945 C84.103,115.144 81.081,109.646 76.754,109.69 C72.422,109.727 68.231,115.3 68.49,122.097 C68.56,123.867 68.821,125.145 69.238,126.066 C65.464,127.013 64.423,129.347 64.364,129.494" fill="#E0C59B"/>
    <path d="M174.433,107.161 L171.416,128.277 L160.791,135.716 L127.378,131.92 L121.145,111.39 C121.004,110.935 120.647,110.584 120.192,110.448 C119.985,110.388 115.848,109.208 111.462,108.828 L112.263,108.775 C112.956,108.725 124.481,107.312 138.241,102.568 C153.481,103.738 165.925,105.611 174.433,107.161 z M153.08,126.705 C153.037,126.543 152.127,123.809 148.098,124.288 C148.563,123.277 148.769,121.913 148.623,120.044 C148.091,113.258 144.144,107.865 139.817,108.015 C135.49,108.169 132.717,113.794 132.956,120.596 C133.194,127.393 136.828,127.345 141.155,127.193 C146.971,127.084 150.166,125.297 153.08,126.705" fill="#E0C59B"/>
    <path d="M116.444,101.517 C114.765,102.877 112.995,104.149 111.153,105.259 L105.006,108.969 C101.151,109.439 97.804,110.393 97.615,110.448 C97.502,110.48 97.394,110.528 97.295,110.589 C96.997,110.762 96.77,111.048 96.661,111.39 L90.402,132.017 L56.945,139.458 L46.407,132.077 L43.341,107.241 C49.325,106.142 57.329,104.87 66.942,103.793 C65.912,105.027 64.911,106.321 63.963,107.68 L58.239,115.895 L66.574,110.338 C66.698,110.252 72.005,106.76 80.687,102.514 C89.339,101.864 98.887,101.446 109.105,101.446 C111.596,101.446 114.04,101.475 116.444,101.517 z M64.364,129.494 C66.741,128.21 69.427,128.4 73.629,128.406 C74.08,128.416 74.545,128.411 75.031,128.4 C75.444,128.395 75.86,128.389 76.299,128.378 C80.631,128.336 84.232,128.747 84.168,121.945 C84.103,115.144 81.081,109.646 76.754,109.69 C72.422,109.727 68.231,115.3 68.49,122.097 C68.56,123.867 68.821,125.145 69.238,126.066 C65.464,127.013 64.423,129.347 64.364,129.494" fill="#BFAC91"/>
    <path d="M174.433,107.161 L171.416,128.277 L160.791,135.716 L127.378,131.92 L121.145,111.39 C121.004,110.935 120.647,110.584 120.192,110.448 C119.985,110.388 115.848,109.208 111.462,108.828 L112.263,108.775 C112.956,108.725 124.481,107.312 138.241,102.568 C153.481,103.738 165.925,105.611 174.433,107.161 z M153.08,126.705 C153.037,126.543 152.127,123.809 148.098,124.288 C148.563,123.277 148.769,121.913 148.623,120.044 C148.091,113.258 144.144,107.865 139.817,108.015 C135.49,108.169 132.717,113.794 132.956,120.596 C133.194,127.393 136.828,127.345 141.155,127.193 C146.971,127.084 150.166,125.297 153.08,126.705" fill="#BFAC91"/>
    <path d="M189.018,116.449 C189.53,116.871 189.936,117.964 189.478,123.06 C188.915,129.299 186.292,140.249 184.668,142.014 C182.876,142.361 179.117,141.95 176.826,141.414 C177.222,139.842 177.335,139.089 177.655,137.482 L181.663,134.677 C181.982,134.455 182.193,134.107 182.247,133.729 L185.048,114.103 C186.748,115.024 188.497,116.02 189.018,116.449" fill="#E1C8A5"/>
    <path d="M41.272,142.063 C41.473,142.773 41.683,143.482 41.901,144.181 C39.745,144.814 35.353,145.421 33.366,145.075 C31.72,143.416 28.649,132.002 27.977,125.941 C27.43,121.03 27.814,119.968 28.313,119.556 C28.893,119.069 31.064,117.834 32.944,116.827 L35.483,137.443 C35.532,137.839 35.743,138.19 36.074,138.418 L41.272,142.063" fill="#E1C8A5"/>
    <path d="M122.342,142.351 L122.19,143.667 C122.19,143.667 117.571,147.95 110.136,148.908 C102.7,149.866 96.856,145.297 96.856,145.297 C97.1,146.091 97.447,147.884 99.131,149.417 C97.15,149.179 95.01,149.02 92.767,149.02 C91.956,149.02 91.137,149.044 90.346,149.082 C85.77,149.321 79.332,156.241 74.805,163.211 C72.584,163.915 65.642,166.118 57.606,168.491 C50.105,158.098 46.416,147.479 46.043,146.379 L46.048,146.374 C45.897,145.952 45.745,145.528 45.604,145.095 L47.533,146.444 L47.533,146.449 L52.298,149.785 L53.891,150.895 C54.129,151.064 54.41,151.15 54.692,151.15 C54.795,151.15 54.898,151.139 55,151.119 L98.791,141.37 C99.282,141.262 99.678,140.893 99.824,140.412 L106.069,119.854 C107.147,119.708 108.093,119.632 108.906,119.632 C109.713,119.632 110.666,119.708 111.744,119.854 L118.17,141.023 C118.334,141.559 118.799,141.95 119.351,142.008 L122.342,142.351" fill="#E1C8A5"/>
    <path d="M172.327,141.214 L173.741,140.221 C173.506,141.203 173.252,142.177 172.987,143.141 C171.022,149.44 168.703,155.011 166.126,159.933 C165.557,159.973 164.955,159.995 164.312,159.995 C162.323,159.995 160.293,159.826 158.046,159.621 C154.146,159.263 147.957,158.554 146.001,158.327 C144.318,156.984 138.556,152.406 133.762,148.633 C133.574,148.48 133.412,148.339 133.253,148.209 C132.409,147.495 131.45,146.684 129.506,146.684 C127.74,146.684 125.162,147.326 118.93,149.212 C122.168,146.792 122.19,143.667 122.19,143.667 L122.342,142.351 L163.424,147.018 C163.758,147.056 164.105,146.97 164.387,146.775 L168.514,143.883 L172.327,141.214" fill="#E1C8A5"/>
    <path d="M142.092,54.782 C142.216,58.437 142.125,65.06 140.423,71.261 C140.354,71.5 140.364,71.743 140.423,71.971 C138.258,71.743 136.091,71.549 133.925,71.375 C136.356,66.279 136.887,60.853 137.002,58.941 C138.869,57.615 140.728,56.023 142.092,54.782" fill="#E7D193"/>
    <path d="M80.107,58.941 C80.22,60.853 80.75,66.268 83.178,71.359 C81.011,71.532 78.846,71.732 76.684,71.96 C76.743,71.738 76.749,71.5 76.684,71.261 C74.984,65.072 74.897,58.443 75.016,54.782 C76.381,56.023 78.233,57.615 80.107,58.941" fill="#E7D193"/>
    <path d="M139.481,116.746 C140.7,116.719 141.674,115.711 141.653,114.493 C141.632,113.269 140.625,112.294 139.399,112.322 C138.176,112.342 137.206,113.35 137.229,114.574 C137.251,115.792 138.258,116.768 139.481,116.746 z M153.08,126.705 C150.166,125.297 146.971,127.084 141.155,127.193 C136.828,127.345 133.194,127.393 132.956,120.596 C132.717,113.794 135.49,108.169 139.817,108.015 C144.144,107.865 148.091,113.258 148.623,120.044 C148.769,121.913 148.563,123.277 148.098,124.288 C152.127,123.809 153.037,126.543 153.08,126.705" fill="#292C2D"/>
    <path d="M141.653,114.493 C141.674,115.711 140.7,116.719 139.481,116.746 C138.258,116.768 137.251,115.792 137.229,114.574 C137.206,113.35 138.176,112.342 139.399,112.322 C140.625,112.294 141.632,113.269 141.653,114.493" fill="#EEF7F8"/>
    <path d="M77.48,118.386 C78.698,118.355 79.663,117.335 79.63,116.117 C79.597,114.893 78.58,113.929 77.362,113.962 C76.137,113.994 75.172,115.012 75.205,116.231 C75.238,117.456 76.256,118.419 77.48,118.386 z M84.168,121.945 C84.232,128.747 80.631,128.336 76.299,128.378 C75.86,128.389 75.444,128.395 75.031,128.4 C74.545,128.411 74.08,128.416 73.629,128.406 C69.427,128.4 66.741,128.21 64.364,129.494 C64.423,129.347 65.464,127.013 69.238,126.066 C68.821,125.145 68.56,123.867 68.49,122.097 C68.231,115.3 72.422,109.727 76.754,109.69 C81.081,109.646 84.103,115.144 84.168,121.945" fill="#292C2D"/>
    <path d="M79.63,116.117 C79.663,117.335 78.698,118.355 77.48,118.386 C76.256,118.419 75.238,117.456 75.205,116.231 C75.172,115.012 76.137,113.994 77.362,113.962 C78.58,113.929 79.597,114.893 79.63,116.117" fill="#EEF7F8"/>
    <path d="M49.926,76.48 L49.423,75.53 L49.403,73.044 L50.714,58.219 L73.46,52.71 L74.876,71.836 C73.773,70.34 72.122,66.956 71.099,62.312 C70.552,59.832 68.793,59.126 66.769,59.126 C65.003,59.126 63.036,59.663 61.497,60.03 C58.19,60.817 53.861,61.919 53.153,63.65 C51.779,67.008 51.107,75.771 51.107,75.771 L49.926,76.48" fill="#EAD698"/>
    <path d="M167.388,76.48 L166.206,75.771 C166.206,75.771 165.535,67.008 164.161,63.65 C163.452,61.919 159.123,60.817 155.818,60.03 C154.278,59.663 152.31,59.126 150.545,59.126 C148.52,59.126 146.761,59.832 146.214,62.312 C145.192,66.956 143.538,70.34 142.436,71.836 L143.854,52.71 L166.601,58.219 L167.717,70.851 L167.677,75.935 L167.388,76.48" fill="#EAD698"/>
    <path d="M131.797,73.047 L85.942,72.962 L83.566,67.612 L81.867,58.441 L78.13,55.47 L78.045,34.113 L83.307,18.549 C83.307,18.549 84.173,64.391 94.886,64.391 C105.599,64.391 107.743,64.391 107.743,64.391 L109.885,64.391 C109.885,64.391 112.027,64.391 122.74,64.391 C133.453,64.391 134.055,18.529 134.055,18.529 L141.022,44.238 L135.959,58.696 L135.703,62.772 L133.919,69.225 L131.797,73.047" fill="#EAD799"/>
    <path d="M178.427,81.233 C178.427,81.233 177.78,80.917 175.84,79.969 C175.986,80.04 178.427,81.233 178.427,81.233 M175.84,79.969 C175.84,79.968 175.84,79.968 175.84,79.968 L175.84,79.969 M175.84,79.968 C175.838,79.967 175.836,79.966 175.833,79.965 C175.833,79.965 175.836,79.966 175.84,79.968 M175.833,79.965 L167.664,77.502 L167.677,75.935 L168.096,75.142 L167.717,70.851 L167.794,61.292 C167.794,61.292 169.998,77.112 175.833,79.965" fill="#EAD799"/>
    <path d="M167.677,75.935 L167.717,70.851 L168.096,75.142 L167.677,75.935" fill="#E9D294"/>
    <path d="M38.675,81.233 L41.269,79.965 C39.324,80.916 38.675,81.233 38.675,81.233 M41.269,79.965 C47.104,77.112 49.309,61.292 49.309,61.292 L49.403,73.044 L49.218,75.142 L49.423,75.53 L49.439,77.502 L41.269,79.965" fill="#EAD799"/>
    <path d="M49.423,75.53 L49.218,75.142 L49.403,73.044 L49.423,75.53" fill="#E9D294"/>
    <path d="M74.171,72.23 L74.073,71.982 C72.082,64.736 72.168,57.138 72.347,53.634 L51.664,59.515 C50.273,68.57 50.923,75.226 51.063,76.449 C52.78,75.983 54.502,75.555 56.236,75.155 C59.094,74.521 61.975,73.991 64.862,73.503 C67.754,73.021 70.657,72.653 73.559,72.301 C73.765,72.274 73.965,72.258 74.171,72.23 z M83.178,71.359 C80.75,66.268 80.22,60.853 80.107,58.941 C78.233,57.615 76.381,56.023 75.016,54.782 C74.897,58.443 74.984,65.072 76.684,71.261 C76.749,71.5 76.743,71.738 76.684,71.96 C78.846,71.732 81.011,71.532 83.178,71.359 z M140.423,71.261 C142.125,65.06 142.216,58.437 142.092,54.782 C140.728,56.023 138.869,57.615 137.002,58.941 C136.887,60.853 136.357,66.279 133.924,71.374 C136.091,71.548 138.258,71.743 140.423,71.971 C140.364,71.743 140.354,71.5 140.423,71.261 z M166.04,76.454 C166.18,75.237 166.836,68.581 165.443,59.515 L144.755,53.634 C144.94,57.138 145.022,64.736 143.034,71.982 L142.932,72.242 C143.137,72.263 143.343,72.28 143.543,72.307 C149.359,72.973 155.148,73.904 160.873,75.16 C162.6,75.561 164.328,75.989 166.04,76.454 z M169.364,77.43 C172.142,78.339 174.936,79.303 177.467,80.781 C176.112,80.246 174.715,79.861 173.306,79.514 C171.904,79.157 170.491,78.854 169.071,78.583 C166.228,78.047 163.375,77.593 160.504,77.245 C157.639,76.872 154.77,76.557 151.888,76.313 C149.007,76.07 146.132,75.827 143.245,75.658 C131.705,74.949 120.133,74.771 108.553,74.759 C96.976,74.765 85.403,74.982 73.862,75.664 C70.976,75.832 68.1,76.076 65.219,76.32 C62.339,76.562 59.463,76.872 56.603,77.25 C53.733,77.598 50.879,78.053 48.036,78.588 C46.618,78.854 45.203,79.163 43.796,79.514 C42.394,79.861 40.99,80.246 39.637,80.781 C42.166,79.303 44.96,78.334 47.744,77.424 C47.977,77.348 48.215,77.283 48.453,77.208 L48.409,77.029 C48.361,76.71 47.332,69.105 49.124,58.231 C49.211,57.711 49.585,57.289 50.094,57.148 L53.035,56.31 C53.673,33.499 63.069,22.771 63.362,22.441 C54.968,35.947 55.044,51.966 55.19,55.697 L73.467,50.503 L73.51,50.493 L73.737,50.461 L73.813,50.455 C73.906,50.45 74.009,50.461 74.113,50.482 L74.166,50.499 L74.393,50.574 L74.479,50.623 L74.658,50.736 L74.707,50.769 L74.74,50.801 L74.794,50.845 C74.805,50.862 75.292,51.343 76.066,52.064 C75.883,46.041 76.169,28.766 84.396,14.448 C84.222,14.95 77.696,34.036 79.945,55.426 C80.675,56.012 81.443,56.585 82.192,57.089 C82.554,57.338 82.776,57.749 82.781,58.188 C82.788,58.259 82.943,65.077 85.955,70.877 C85.998,70.963 86.031,71.055 86.059,71.148 C93.548,70.638 101.059,70.433 108.553,70.428 C116.05,70.433 123.556,70.649 131.044,71.164 C131.071,71.066 131.104,70.969 131.153,70.877 C134.163,65.077 134.321,58.259 134.321,58.188 C134.33,57.749 134.553,57.338 134.917,57.089 C135.664,56.585 136.422,56.012 137.159,55.426 C139.411,34.036 132.884,14.95 132.712,14.448 C140.932,28.766 141.226,46.041 141.042,52.064 C141.81,51.343 142.298,50.862 142.313,50.845 L142.367,50.801 L142.4,50.769 L142.449,50.736 L142.627,50.617 L142.709,50.574 L142.947,50.493 L142.996,50.482 C143.093,50.461 143.198,50.45 143.294,50.455 L143.364,50.461 L143.597,50.493 L143.64,50.503 L161.917,55.697 C162.065,51.966 162.14,35.947 153.747,22.441 C154.038,22.771 163.434,33.499 164.068,56.31 L167.014,57.148 C167.517,57.289 167.897,57.711 167.984,58.231 C169.776,69.105 168.742,76.71 168.698,77.029 L168.655,77.213 C168.893,77.283 169.125,77.353 169.364,77.43" fill="#292C2D"/>
    <path d="M126.696,32.646 L126.696,22.777 L91.183,22.777 L91.183,32.646 L96.038,32.646 L96.038,27.632 L106.084,27.632 L106.084,58.104 L101.95,58.104 L101.95,63.756 L115.929,63.756 L115.929,58.104 L111.795,58.104 L111.795,27.632 L121.84,27.632 L121.84,32.646 L126.696,32.646 z M87.536,19.129 L130.352,19.129 L130.352,36.294 L118.184,36.294 L118.184,31.279 L115.442,31.279 L115.442,54.448 L119.585,54.448 L119.585,67.404 L98.302,67.404 L98.302,54.448 L102.428,54.448 L102.428,31.279 L99.694,31.279 L99.694,36.294 L87.536,36.294 L87.536,19.129" fill="#292C2D"/>
    <path d="M126.696,22.777 L126.696,32.646 L121.84,32.646 L121.84,27.632 L111.795,27.632 L111.795,58.104 L115.929,58.104 L115.929,63.756 L101.95,63.756 L101.95,58.104 L106.084,58.104 L106.084,27.632 L96.038,27.632 L96.038,32.646 L91.183,32.646 L91.183,22.777 L126.696,22.777" fill="#B93346"/>
    <path d="M30.946,93.882 C32.72,93.48 35.116,92.968 38.055,92.4 C36.249,93.631 34.113,95.176 31.781,97.035 L30.946,93.882" fill="#5F655D"/>
    <path d="M95.89,140.926 C95.89,140.926 96.386,144.117 91.92,145.482 C87.456,146.848 59.171,155.277 55.946,154.821 C52.721,154.366 44.534,148.898 44.534,148.898 L42.549,141.837 L54.663,149.39 L95.89,140.926" fill="#BFAC91"/>
    <path d="M121.228,140.308 C121.228,140.308 120.871,143.516 125.393,144.688 C129.913,145.859 158.537,153.051 161.739,152.455 C164.941,151.859 172.882,146.042 172.882,146.042 L174.559,138.9 L163.424,145.542 L121.228,140.308" fill="#BFAC91"/>
    <path d="M28.645,135.054 C28.645,135.054 32.564,142.893 38.894,140.179 L43.416,141.837 L42.964,145.154 L33.468,146.359 L30.906,144.852 L28.645,135.054" fill="#BFAC91"/>
    <g clip-path="url(#Clip_1)">
      <path d="M189.088,132.902 C189.088,132.902 182.683,141.083 176.353,138.371 L174.317,139.684 L174.769,142.999 L184.265,144.206 L186.826,142.698 L189.088,132.902" fill="#BFAC91"/>
      <path d="M90.01,194.485 C90.01,194.485 113.229,206.192 139.519,190.263 L131.076,189.687 C131.076,189.687 112.654,196.978 98.07,192.949 L90.01,194.485" fill="#BFAC91"/>
      <path d="M38.055,92.4 C35.116,92.968 32.72,93.48 30.946,93.882 L31.781,97.035 C34.113,95.176 36.249,93.631 38.055,92.4 z M41.901,144.181 C41.681,143.482 41.473,142.772 41.275,142.062 L36.071,138.42 C35.742,138.19 35.533,137.841 35.481,137.443 L32.945,116.827 C31.065,117.834 28.895,119.07 28.315,119.556 C27.814,119.968 27.433,121.028 27.976,125.94 C28.649,131.999 31.718,143.415 33.367,145.075 C35.351,145.424 39.746,144.814 41.901,144.181 z M73.004,89.539 C76.861,88.459 80.839,87.514 84.914,86.721 C79.068,86.935 73.218,87.206 67.378,87.536 C63.984,87.723 60.608,87.953 57.231,88.209 C55.539,88.339 53.858,88.474 52.183,88.658 C51.703,88.704 51.233,88.756 50.753,88.819 C46.348,91.455 29.453,102.061 17.855,115.929 C29.125,108.095 48.76,96.325 73.004,89.539 z M70.827,99.571 C74.104,96.319 77.486,93.636 80.472,91.539 C68.963,94.211 58.369,98.135 49.088,102.404 C55.128,101.429 62.44,100.412 70.827,99.571 z M115,86.319 C112.671,86.282 110.338,86.261 108.01,86.256 L108.005,86.256 C104.587,86.261 101.162,86.298 97.732,86.366 L91.412,89.361 L91.324,89.409 C90.374,89.873 82.075,94.06 74.266,101.529 C81.266,97.849 91.553,93.042 103.658,89.315 C107.284,88.204 111.084,87.18 115,86.319 z M111.153,105.26 C112.995,104.149 114.764,102.875 116.444,101.518 C114.038,101.477 111.596,101.445 109.107,101.445 C98.887,101.445 89.34,101.863 80.687,102.515 C72.006,106.758 66.698,110.249 66.574,110.338 L58.238,115.898 L63.963,107.682 C64.908,106.319 65.91,105.025 66.944,103.794 C57.33,104.868 49.324,106.142 43.342,107.244 L46.405,132.077 L56.944,139.458 L90.4,132.02 L96.663,111.388 C96.768,111.048 96.997,110.762 97.295,110.589 C97.394,110.526 97.498,110.48 97.613,110.448 C97.806,110.396 101.152,109.441 105.009,108.971 L111.153,105.26 z M114.535,184.538 C115.599,184.454 116.669,184.318 117.745,184.157 C116.351,182.707 115.119,181.359 114.148,180.268 C113.673,181.359 113.043,182.794 112.212,184.643 L112.458,184.643 C113.12,184.643 113.845,184.571 114.535,184.538 z M132.077,192.059 C127.537,191.725 123.408,189.836 120.077,186.537 C119.905,186.361 119.738,186.192 119.571,186.021 C117.959,186.344 116.325,186.584 114.649,186.731 C113.945,186.757 113.277,186.818 112.541,186.818 L111.449,186.829 L111.033,186.818 C106.601,193.411 96.758,194.695 96.308,194.753 C95.901,194.799 95.567,194.857 95.107,194.94 C100.594,196.444 106.193,197.096 111.716,196.725 C117.253,196.355 124.447,195.154 132.077,192.059 z M128.461,89.137 C128.841,88.662 129.196,88.204 129.514,87.786 C126.205,88.12 122.948,88.6 119.764,89.205 C108.861,91.246 98.792,94.639 90.415,98.115 C96.35,97.827 102.592,97.656 109.107,97.656 C113.047,97.656 116.878,97.723 120.604,97.833 C123.809,94.753 126.513,91.602 128.461,89.137 z M158.581,88.204 L158.55,88.192 C155.251,87.948 151.953,87.723 148.643,87.536 C144.051,87.274 139.457,87.055 134.864,86.862 C134.597,87.259 134.055,88.041 133.277,89.106 C130.778,92.488 125.819,98.694 119.461,103.956 C128.461,102.343 144.07,98.35 157.574,88.929 C157.913,88.688 158.247,88.438 158.581,88.204 z M173.739,140.22 L172.324,141.211 L168.514,143.883 L164.385,146.775 C164.104,146.969 163.76,147.058 163.424,147.021 L122.343,142.35 L119.353,142.01 C118.799,141.947 118.334,141.56 118.172,141.024 L111.742,119.854 C110.668,119.708 109.711,119.634 108.909,119.634 C108.093,119.634 107.143,119.708 106.069,119.854 L99.826,140.413 C99.68,140.893 99.284,141.259 98.792,141.367 L55.001,151.119 C54.898,151.139 54.794,151.149 54.694,151.149 C54.412,151.149 54.13,151.065 53.89,150.894 L52.298,149.787 L47.533,146.452 L47.533,146.441 L45.607,145.095 C45.743,145.528 45.899,145.952 46.051,146.374 L46.045,146.379 C46.416,147.48 50.106,158.096 57.607,168.488 C65.639,166.118 72.586,163.916 74.804,163.211 C79.329,156.238 85.77,149.322 90.348,149.082 C91.135,149.045 91.956,149.02 92.77,149.02 C95.009,149.02 97.15,149.182 99.131,149.417 C97.446,147.887 97.102,146.091 96.856,145.298 C96.856,145.298 102.697,149.865 110.134,148.911 C117.573,147.95 122.191,143.664 122.191,143.664 C122.191,143.664 122.17,146.792 118.929,149.212 C125.162,147.328 127.74,146.681 129.504,146.681 C131.451,146.681 132.411,147.495 133.251,148.212 C133.413,148.342 133.575,148.482 133.762,148.634 C138.554,152.407 144.316,156.985 146.003,158.327 C147.955,158.556 154.144,159.26 158.044,159.621 C160.293,159.823 162.323,159.996 164.312,159.996 C164.954,159.996 165.555,159.97 166.123,159.933 C168.703,155.013 171.02,149.437 172.987,143.143 C173.252,142.177 173.51,141.201 173.739,140.22 z M171.416,128.278 L174.433,107.159 C165.925,105.61 153.483,103.736 138.241,102.567 C124.483,107.312 112.959,108.725 112.264,108.772 L111.461,108.829 C115.85,109.206 119.984,110.386 120.192,110.448 C120.647,110.584 121.002,110.933 121.143,111.388 L127.38,131.921 L160.789,135.716 L171.416,128.278 z M179.553,132.726 L182.966,108.855 C181.448,108.527 179.507,108.121 177.188,107.677 L174.104,129.274 C174.047,129.655 173.837,130.005 173.524,130.226 L161.958,138.315 C161.686,138.508 161.338,138.597 161.003,138.56 L126.148,134.599 C125.59,134.536 125.125,134.15 124.962,133.618 L118.685,112.949 C117.003,112.515 112.687,111.508 108.909,111.508 C105.114,111.508 100.802,112.515 99.121,112.949 L92.842,133.618 C92.732,133.977 92.482,134.276 92.154,134.447 C92.049,134.505 91.93,134.546 91.809,134.573 L56.954,142.328 C56.844,142.35 56.751,142.361 56.646,142.361 C56.364,142.361 56.083,142.277 55.847,142.109 L44.286,134.014 C43.963,133.789 43.748,133.434 43.697,133.038 L40.581,107.76 C39.286,108.011 38.118,108.251 37.073,108.469 C36.332,108.877 35.601,109.284 34.881,109.692 L38.19,136.477 L54.992,148.247 L97.384,138.816 L103.642,118.2 C103.799,117.682 104.231,117.301 104.759,117.217 C106.346,116.962 107.733,116.832 108.909,116.832 C110.072,116.832 111.465,116.962 113.047,117.217 C113.58,117.301 114.012,117.682 114.164,118.2 L120.583,139.328 L163.211,144.175 L179.553,132.726 z M184.271,105.265 L187.273,93.882 C182.92,92.896 174.903,91.246 163.984,89.701 C158.409,93.71 152.307,96.914 146.311,99.471 C164.657,101.257 178.138,103.913 184.271,105.265 z M189.475,123.057 C189.935,117.964 189.534,116.868 189.016,116.45 C188.499,116.017 186.751,115.026 185.049,114.102 L182.247,133.726 C182.195,134.107 181.98,134.453 181.663,134.676 L177.653,137.48 C177.335,139.086 177.221,139.844 176.829,141.415 C179.12,141.947 182.878,142.361 184.668,142.015 C186.292,140.251 188.916,129.3 189.475,123.057 z M201.568,74.633 C201.716,77.571 201.637,80.514 201.307,83.438 C201,86.356 200.446,89.247 199.675,92.113 C199.272,93.538 198.808,94.947 198.26,96.345 C197.983,97.044 197.686,97.739 197.362,98.433 C197.2,98.777 197.028,99.117 196.835,99.467 L196.548,99.983 C196.443,100.171 196.36,100.312 196.198,100.562 L195.901,101.023 L195.436,101.261 C194.94,101.518 194.534,101.71 194.083,101.92 L192.775,102.51 C191.897,102.885 191.016,103.24 190.133,103.584 C189.517,103.825 188.974,104.045 188.458,104.264 L187.002,109.796 C186.966,109.786 186.527,109.675 185.708,109.478 L185.629,110.056 C187.236,110.896 190.393,112.599 191.469,113.487 C193.635,115.277 193.787,118.111 193.307,123.408 C193.061,126.128 192.159,131.419 190.906,136.279 C188.744,144.646 187.596,145.628 186.114,146.008 C185.362,146.201 184.204,146.394 183.081,146.394 C180.796,146.394 177.684,146.457 175.591,145.952 C175.054,147.855 173.519,152.82 170.481,159.02 C170.633,158.946 170.784,158.885 170.92,158.812 C174.667,156.844 181.871,153.706 182.173,153.571 L187.863,151.098 L184.95,156.578 C184.882,156.697 178.634,168.447 174.808,176.12 C171.009,183.719 163.884,185.374 159.619,186.354 C158.977,186.506 158.368,186.647 157.872,186.783 C154.812,187.643 148.617,189.121 143.153,190.435 L142.955,190.478 C139.593,192.556 135.924,194.409 131.91,195.933 C117.222,201.496 101.742,201.183 87.706,196.026 C85.426,196.319 82.429,196.678 78.438,197.132 C76.703,197.325 75.018,197.425 73.411,197.425 C60.039,197.425 52.951,190.634 47.778,183.985 C42.24,176.865 35.466,166.295 35.179,165.853 L31.254,159.725 L37.892,162.71 C41.071,164.141 50.519,168.514 53.222,169.767 C53.441,169.705 53.655,169.642 53.869,169.579 C49.376,163.17 45.691,155.862 43.086,147.768 C40.872,148.435 37.464,148.952 34.813,148.952 C33.843,148.952 32.976,148.879 32.309,148.722 C30.826,148.383 29.134,146.954 26.833,138.847 C25.497,134.14 24.5,129.003 24.208,126.358 C23.633,121.195 23.738,118.429 25.883,116.643 C27.177,115.563 31.54,113.272 32.443,112.803 L32.25,111.21 C18.387,119.357 10.079,126.555 9.912,126.702 L-0,135.402 L7.062,124.265 C12.652,115.438 19.108,108.303 25.048,102.807 C24.802,102.708 24.573,102.609 24.332,102.51 L23.022,101.92 C22.573,101.71 22.166,101.518 21.671,101.261 L21.206,101.023 L20.909,100.562 C20.742,100.312 20.669,100.171 20.559,99.983 L20.267,99.467 C20.084,99.117 19.906,98.777 19.745,98.433 C19.416,97.739 19.119,97.044 18.848,96.345 C18.299,94.947 17.835,93.538 17.432,92.113 C16.655,89.247 16.107,86.356 15.799,83.438 C15.475,80.514 15.392,77.571 15.538,74.633 C15.616,73.166 15.757,71.7 15.96,70.243 C16.065,69.513 16.175,68.781 16.321,68.056 C16.472,67.315 16.619,66.626 16.843,65.817 L16.999,65.249 L17.406,64.929 C19.719,63.113 22.213,61.741 24.75,60.525 C26.838,59.544 28.967,58.677 31.113,57.888 C37.105,41.26 47.407,26.515 60.947,16.238 C74.946,5.616 91.408,-0 108.553,-0 C125.699,-0 142.161,5.616 156.159,16.238 C169.698,26.515 180.002,41.26 185.99,57.883 C188.14,58.677 190.264,59.538 192.357,60.525 C194.892,61.741 197.388,63.113 199.699,64.929 L200.107,65.249 L200.264,65.817 C200.494,66.626 200.639,67.315 200.785,68.056 C200.933,68.781 201.047,69.513 201.145,70.243 C201.35,71.7 201.496,73.166 201.568,74.633 z M40.831,56.167 C38.294,57.189 35.774,58.244 33.31,59.402 C30.841,60.53 28.414,61.741 26.096,63.092 C23.957,64.324 21.905,65.676 20.094,67.201 C20.016,67.66 19.943,68.16 19.881,68.635 C19.802,69.308 19.724,69.982 19.671,70.66 C19.552,72.017 19.504,73.385 19.49,74.752 C19.463,77.487 19.651,80.223 19.995,82.931 C20.371,85.646 20.867,88.344 21.602,90.949 C21.968,92.254 22.375,93.543 22.855,94.784 C23.09,95.412 23.351,96.022 23.623,96.617 C23.758,96.914 23.899,97.207 24.04,97.488 L24.213,97.817 C24.416,97.922 24.625,98.025 24.823,98.12 L26.039,98.699 C26.718,99.013 27.652,99.456 28.424,99.801 L28.55,99.686 L26.3,91.105 C26.775,90.975 31.056,89.868 38.43,88.464 C37.835,88.355 37.23,88.224 36.64,88.083 C34.965,87.666 33.304,87.154 31.703,86.507 C30.909,86.168 30.12,85.803 29.375,85.379 C28.628,84.951 27.892,84.466 27.323,83.819 C35.423,86.465 52.162,85.265 67.044,83.73 C80.655,82.326 94.293,81.418 108.005,81.387 C121.716,81.418 135.366,82.326 148.967,83.73 C163.858,85.265 180.598,86.465 188.697,83.819 C188.128,84.466 187.393,84.951 186.646,85.379 C185.901,85.803 185.112,86.168 184.319,86.507 C182.711,87.154 181.056,87.666 179.376,88.083 C179.13,88.14 178.88,88.198 178.629,88.25 C186.715,89.748 191.422,90.969 191.923,91.105 L189.768,99.278 C190.202,99.085 190.639,98.898 191.066,98.699 L192.284,98.12 C192.482,98.025 192.691,97.922 192.894,97.817 L193.061,97.488 C193.207,97.207 193.348,96.914 193.484,96.617 C193.756,96.022 194.016,95.412 194.257,94.784 C194.732,93.543 195.143,92.254 195.503,90.949 C196.24,88.344 196.741,85.646 197.111,82.931 C197.461,80.223 197.644,77.487 197.618,74.752 C197.608,73.385 197.556,72.017 197.441,70.66 C197.384,69.982 197.31,69.308 197.226,68.635 C197.169,68.16 197.09,67.66 197.012,67.201 C195.2,65.676 193.15,64.324 191.009,63.092 C188.692,61.741 186.266,60.53 183.791,59.402 C181.333,58.244 178.808,57.189 176.271,56.167 C175.002,55.655 173.722,55.153 172.439,54.678 C171.161,54.183 169.866,53.714 168.572,53.244 C171.29,53.693 173.985,54.313 176.651,54.997 C178.389,55.446 180.123,55.953 181.834,56.49 C169.625,24.572 140.428,3.789 108.553,3.789 C76.672,3.789 47.481,24.572 35.273,56.49 C36.989,55.953 38.717,55.446 40.45,54.997 C43.123,54.313 45.815,53.693 48.536,53.244 C47.235,53.714 45.946,54.183 44.662,54.678 C43.383,55.153 42.105,55.655 40.831,56.167 z M113.549,172.915 L115.155,174.83 C115.191,174.876 118.762,179.125 123.126,183.452 C126.029,186.329 129.535,187.785 133.554,187.785 C134.927,187.785 136.368,187.608 137.824,187.257 C139.175,186.928 140.642,186.578 142.146,186.218 C147.574,184.92 153.722,183.447 156.703,182.612 C157.292,182.445 157.95,182.294 158.643,182.136 C162.61,181.22 168.049,179.956 170.93,174.183 C173.097,169.851 176.019,164.228 178.185,160.107 C176.307,160.973 174.338,161.912 172.939,162.648 C170.784,163.78 167.961,164.328 164.312,164.328 C162.142,164.328 160.011,164.146 157.652,163.936 C152.939,163.503 144.963,162.565 144.881,162.554 L144.27,162.486 L143.789,162.1 C143.717,162.048 136.728,156.479 131.079,152.037 C130.85,151.849 130.642,151.677 130.454,151.52 C129.859,151.013 129.859,151.013 129.504,151.013 C127.692,151.013 122.427,152.647 110.89,156.223 L110.182,156.448 L109.487,156.186 C109.408,156.16 101.84,153.353 92.77,153.353 C92.028,153.353 91.288,153.372 90.567,153.409 C89.658,153.456 84.56,155.877 78.04,166.192 L77.617,166.854 L76.87,167.094 C76.762,167.131 65.54,170.754 53.64,174.157 L52.867,174.376 L52.136,174.036 C52.058,174.005 47.402,171.845 42.971,169.808 C45.388,173.378 48.478,177.831 51.197,181.324 C55.946,187.441 61.934,193.093 73.411,193.093 C74.851,193.093 76.381,193.004 77.952,192.826 C89.627,191.506 92.634,190.974 94.252,190.692 C94.799,190.598 95.233,190.519 95.787,190.452 C95.875,190.441 105.437,189.205 108.12,183.186 C110.886,177.002 111.444,175.529 111.465,175.473 L112.442,172.869 C112.442,172.869 112.563,172.194 112.761,171.985 L112.766,171.99 L112.785,172.006 C113.093,172.226 113.549,172.915 113.549,172.915" fill="#292C2D"/>
    </g>
    <path d="M257.4,74.926 L233.939,74.926 L233.939,62.762 L295.135,62.762 L295.135,74.926 L271.799,74.926 L271.799,143.944 L257.4,143.944 L257.4,74.926" fill="#292C2D"/>
    <path d="M293.846,82.995 L305.639,82.995 L306.631,93.794 L307.128,93.794 C311.473,85.85 317.927,81.506 324.383,81.506 C327.486,81.506 329.471,81.878 331.334,82.747 L328.851,95.159 C326.74,94.539 325.127,94.167 322.52,94.167 C317.679,94.167 311.845,97.519 308.121,106.704 L308.121,143.944 L293.846,143.944 L293.846,82.995" fill="#292C2D"/>
    <path d="M357.028,134.261 C361.993,134.261 365.842,131.779 370.31,127.559 L370.31,113.904 C353.801,116.015 348.339,120.359 348.339,126.441 C348.339,131.903 351.938,134.261 357.028,134.261 z M370.31,104.966 C370.186,98.512 367.455,93.05 359.263,93.05 C353.18,93.05 347.47,95.78 342.132,99.008 L336.919,89.45 C343.622,85.229 352.187,81.506 361.869,81.506 C377.138,81.506 384.586,90.815 384.586,107.821 L384.586,143.944 L372.917,143.944 L371.8,137.24 L371.428,137.24 C365.966,141.834 359.759,145.433 352.56,145.433 C341.884,145.433 334.436,138.234 334.436,127.559 C334.436,114.525 345.36,107.697 370.31,104.966" fill="#292C2D"/>
    <path d="M388.67,82.995 L403.194,82.995 L412.876,114.649 C414.489,120.607 416.352,126.813 417.966,133.021 L418.462,133.021 C420.199,126.813 421.938,120.607 423.676,114.649 L433.357,82.995 L447.136,82.995 L426.407,143.944 L409.897,143.944 L388.67,82.995" fill="#292C2D"/>
    <path d="M454.101,82.995 L468.376,82.995 L468.376,143.944 L454.101,143.944 z M452.487,64.251 C452.487,59.41 456.21,56.058 461.3,56.058 C466.39,56.058 470.113,59.41 470.113,64.251 C470.113,68.968 466.39,72.32 461.3,72.32 C456.21,72.32 452.487,68.968 452.487,64.251" fill="#292C2D"/>
    <path d="M483.259,127.807 C488.721,132.027 493.935,134.634 500.141,134.634 C506.721,134.634 509.824,131.531 509.824,127.311 C509.824,122.221 503.244,119.987 496.79,117.504 C488.721,114.525 479.66,109.932 479.66,99.754 C479.66,89.077 488.225,81.506 501.879,81.506 C510.32,81.506 517.147,84.981 522.112,88.829 L515.534,97.519 C511.313,94.415 506.969,92.304 502.128,92.304 C496.045,92.304 493.189,95.159 493.189,99.008 C493.189,103.725 499.273,105.712 505.851,108.069 C514.168,111.173 523.354,115.145 523.354,126.565 C523.354,136.992 515.036,145.433 499.645,145.433 C491.328,145.433 482.515,141.834 476.557,136.992 L483.259,127.807" fill="#292C2D"/>
    <path d="M593.365,61.272 C603.295,61.272 611.363,66.113 616.453,71.575 L608.508,80.512 C604.287,76.416 599.695,73.809 593.489,73.809 C580.207,73.809 570.648,84.981 570.648,103.229 C570.648,121.725 579.461,132.896 592.991,132.896 C600.191,132.896 605.529,129.916 610.122,124.828 L618.067,133.641 C611.487,141.213 603.046,145.433 592.743,145.433 C572.138,145.433 555.877,130.538 555.877,103.601 C555.877,77.037 572.51,61.272 593.365,61.272" fill="#292C2D"/>
    <path d="M626.869,62.762 L641.268,62.762 L641.268,143.944 L626.869,143.944 z" fill="#292C2D"/>
  </g>
</svg>
