<?xml version="1.0" encoding="UTF-8"?>
<!DOCTYPE svg PUBLIC "-//W3C//DTD SVG 1.1//EN" "http://www.w3.org/Graphics/SVG/1.1/DTD/svg11.dtd">
<svg version="1.1" xmlns="http://www.w3.org/2000/svg" xmlns:xlink="http://www.w3.org/1999/xlink" x="0" y="0" width="200" height="199" viewBox="0, 0, 200, 199">
  <g id="Background">
    <rect x="0" y="0" width="200" height="199" fill="#000000" fill-opacity="0"/>
  </g>
  <defs>
    <clipPath id="Clip_1">
      <path d="M0.06,0.627 L200,0.627 L200,198.94 L0.06,198.94 z"/>
    </clipPath>
  </defs>
  <g id="Layer_1">
    <path d="M47.781,87.199 C47.781,87.199 16.663,109.102 15.446,117.446 L17.781,116.966 C17.781,116.966 55.045,92.267 84.584,89.255 L85.253,85.506 L47.781,87.199" fill="#B93446"/>
    <path d="M96.629,84.069 L72.118,101.454 L73.443,102.517 C74.442,101.711 116.982,88.719 116.982,88.719 L125.951,83.096 C119.933,83.845 96.629,84.069 96.629,84.069" fill="#B93446"/>
    <path d="M117.932,105.096 C135.337,105.096 161.427,88.05 161.427,88.05 L152.993,86.445 C152.576,86.862 139.393,85.983 139.393,85.983 L133.135,84.245 L118.184,101.281 L116.967,104.237 C118.042,103.8 117.932,105.096 117.932,105.096" fill="#B93446"/>
    <path d="M44.456,169.665 C44.336,169.61 44.215,169.554 44.095,169.499 C43.239,168.76 42.539,168.156 42.082,167.763 L44.456,169.665 z M174.728,159.459 L169.351,160.973 L144.508,160.436 L128.967,148.351 L110.183,153.051 L88.457,151.171 L76.291,164.465 L53.463,171.284 L42.065,167.75 C41.702,167.437 41.491,167.256 41.491,167.256 L46.607,179.783 C46.607,179.783 58.195,192.207 64.668,193.668 C71.14,195.129 82.833,193.563 91.603,192.205 C100.372,190.848 107.367,187.716 110.185,182.602 C113.003,177.485 113.421,176.024 113.421,176.024 C113.421,176.024 121.774,187.821 128.977,189.179 C136.18,190.536 157.582,183.227 157.582,183.227 C157.582,183.227 170.633,179.678 172.928,175.189 C175.225,170.7 181.281,155.98 181.281,155.98 L174.728,159.459" fill="#B93446"/>
    <path d="M195.832,70.712 C195.778,70.041 195.704,69.37 195.622,68.703 C195.564,68.23 195.489,67.736 195.407,67.279 C193.614,65.77 191.576,64.428 189.455,63.208 C187.156,61.865 184.751,60.662 182.296,59.545 C179.858,58.395 177.354,57.354 174.835,56.338 C173.578,55.828 172.31,55.333 171.037,54.861 C169.768,54.366 168.487,53.905 167.202,53.437 C169.899,53.884 172.568,54.496 175.217,55.178 C176.94,55.624 178.654,56.123 180.357,56.655 C168.245,25 139.287,4.385 107.67,4.385 C76.048,4.385 47.093,25 34.984,56.655 C36.687,56.123 38.401,55.624 40.121,55.178 C42.774,54.496 45.444,53.884 48.139,53.437 C46.85,53.905 45.572,54.366 44.299,54.861 C43.032,55.333 41.763,55.828 40.501,56.338 C37.982,57.354 35.485,58.395 33.041,59.545 C30.591,60.662 28.184,61.865 25.885,63.208 C23.764,64.427 21.728,65.77 19.928,67.279 C19.853,67.736 19.777,68.23 19.718,68.703 C19.637,69.37 19.563,70.041 19.508,70.712 C19.39,72.061 19.342,73.415 19.331,74.773 C19.304,77.486 19.487,80.199 19.831,82.883 C20.201,85.575 20.695,88.249 21.426,90.834 C21.786,92.129 22.194,93.406 22.666,94.642 C22.903,95.259 23.161,95.867 23.43,96.458 C23.564,96.752 23.704,97.043 23.843,97.322 L24.015,97.65 C24.214,97.751 24.423,97.854 24.622,97.95 L25.826,98.525 C26.497,98.83 27.426,99.271 28.194,99.615 L28.317,99.501 L26.082,90.988 C26.556,90.858 30.8,89.763 38.114,88.371 C37.524,88.259 36.928,88.13 36.342,87.99 C34.677,87.576 33.033,87.071 31.443,86.426 C30.653,86.093 29.875,85.729 29.134,85.311 C28.392,84.885 27.662,84.403 27.097,83.763 C35.133,86.385 51.737,85.197 66.496,83.672 C79.995,82.281 93.525,81.379 107.126,81.352 C120.728,81.379 134.263,82.281 147.756,83.672 C162.522,85.197 179.126,86.385 187.161,83.763 C186.597,84.403 185.868,84.886 185.126,85.311 C184.385,85.729 183.607,86.093 182.818,86.426 C181.226,87.071 179.584,87.576 177.919,87.99 C177.672,88.049 177.423,88.103 177.176,88.156 C185.196,89.644 189.865,90.853 190.364,90.987 L188.226,99.097 C188.656,98.903 189.09,98.716 189.516,98.523 L190.718,97.948 C190.918,97.851 191.121,97.749 191.325,97.648 L191.491,97.32 C191.637,97.041 191.777,96.75 191.91,96.456 C192.18,95.865 192.438,95.257 192.674,94.64 C193.147,93.404 193.556,92.127 193.915,90.832 C194.646,88.247 195.14,85.573 195.51,82.881 C195.855,80.196 196.036,77.483 196.011,74.771 C196,73.415 195.951,72.061 195.832,70.712" fill="#F2EDA9"/>
    <path d="M116.787,183.288 C115.723,183.448 114.659,183.583 113.601,183.663 C112.919,183.696 112.197,183.765 111.542,183.765 L111.3,183.77 C112.122,181.933 112.746,180.51 113.219,179.431 C114.182,180.511 115.407,181.848 116.787,183.288" fill="#E1C8A6"/>
    <path d="M119.101,185.645 C122.405,188.917 126.499,190.791 131.005,191.124 C123.436,194.198 116.303,195.384 110.808,195.754 C105.33,196.121 99.776,195.475 94.334,193.983 C94.79,193.901 95.124,193.843 95.527,193.794 C95.974,193.74 105.733,192.467 110.132,185.926 L110.545,185.935 L111.625,185.926 C112.356,185.926 113.02,185.866 113.719,185.839 C115.379,185.695 117.002,185.458 118.597,185.136 C118.764,185.307 118.93,185.474 119.101,185.645" fill="#E1C8A6"/>
    <path d="M128.464,87.698 C128.147,88.111 127.793,88.567 127.416,89.041 C125.483,91.485 122.802,94.611 119.622,97.668 C115.926,97.554 112.128,97.491 108.218,97.491 C101.758,97.491 95.563,97.662 89.681,97.948 C97.992,94.499 107.977,91.13 118.79,89.106 C121.948,88.508 125.181,88.03 128.464,87.698" fill="#5F655E"/>
    <path d="M79.821,91.419 C76.855,93.503 73.504,96.163 70.255,99.39 C61.934,100.223 54.677,101.232 48.688,102.2 C57.895,97.968 68.401,94.073 79.821,91.419" fill="#5F655E"/>
    <path d="M181.48,108.596 L178.096,132.275 L161.884,143.63 L119.601,138.823 L113.236,117.862 C113.085,117.352 112.655,116.977 112.128,116.891 C110.561,116.638 109.175,116.509 108.02,116.509 C106.86,116.509 105.479,116.638 103.905,116.891 C103.383,116.977 102.955,117.352 102.799,117.862 L96.59,138.312 L54.543,147.669 L37.881,135.997 L34.598,109.425 C35.313,109.021 36.039,108.619 36.774,108.216 C37.805,107.994 38.965,107.759 40.249,107.512 L43.343,132.585 C43.391,132.977 43.607,133.326 43.929,133.552 L55.391,141.584 C55.627,141.744 55.907,141.83 56.186,141.83 C56.287,141.83 56.385,141.82 56.492,141.797 L91.062,134.105 C91.181,134.078 91.299,134.036 91.406,133.981 C91.728,133.81 91.981,133.515 92.088,133.154 L98.313,112.656 C99.983,112.226 104.26,111.227 108.019,111.227 C111.768,111.227 116.049,112.226 117.72,112.656 L123.945,133.154 C124.106,133.686 124.569,134.066 125.121,134.131 L159.691,138.058 C160.026,138.095 160.368,138.008 160.643,137.816 L172.112,129.791 C172.422,129.571 172.632,129.225 172.685,128.845 L175.747,107.424 C178.048,107.868 179.971,108.27 181.48,108.596" fill="#5F655E"/>
    <path d="M185.751,93.746 L182.775,105.036 C176.689,103.694 163.319,101.061 145.121,99.289 C151.067,96.754 157.121,93.574 162.652,89.599 C173.481,91.129 181.432,92.768 185.751,93.746" fill="#5F655E"/>
    <path d="M115.498,101.319 C113.833,102.668 112.077,103.929 110.249,105.031 L104.152,108.711 C100.328,109.177 97.009,110.123 96.821,110.178 C96.709,110.209 96.602,110.257 96.504,110.318 C96.208,110.489 95.983,110.773 95.875,111.112 L89.666,131.572 L56.481,138.952 L46.029,131.631 L42.988,106.997 C48.924,105.907 56.862,104.645 66.398,103.577 C65.376,104.802 64.384,106.085 63.443,107.432 L57.766,115.581 L66.032,110.07 C66.155,109.984 71.419,106.521 80.03,102.309 C88.612,101.665 98.083,101.25 108.218,101.25 C110.689,101.249 113.113,101.277 115.498,101.319 z M63.841,129.068 C66.198,127.794 68.862,127.983 73.031,127.989 C73.478,128 73.939,127.994 74.421,127.984 C74.831,127.979 75.243,127.973 75.679,127.962 C79.975,127.92 83.548,128.328 83.485,121.581 C83.42,114.835 80.423,109.383 76.131,109.426 C71.834,109.463 67.677,114.99 67.934,121.732 C68.004,123.488 68.262,124.755 68.676,125.669 C64.931,126.607 63.899,128.923 63.841,129.068" fill="#E0C69C"/>
    <path d="M173.015,106.917 L170.023,127.861 L159.484,135.24 L126.343,131.474 L120.16,111.111 C120.02,110.66 119.666,110.312 119.215,110.177 C119.01,110.117 114.907,108.947 110.556,108.57 L111.351,108.517 C112.038,108.468 123.469,107.066 137.118,102.36 C152.233,103.521 164.576,105.38 173.015,106.917 z M151.835,126.302 C151.793,126.142 150.89,123.429 146.893,123.905 C147.354,122.902 147.559,121.549 147.414,119.695 C146.886,112.964 142.971,107.615 138.679,107.764 C134.387,107.916 131.637,113.495 131.874,120.242 C132.11,126.983 135.714,126.936 140.006,126.785 C145.776,126.678 148.945,124.905 151.835,126.302" fill="#E0C69C"/>
    <path d="M115.498,101.319 C113.833,102.668 112.077,103.929 110.249,105.031 L104.152,108.711 C100.328,109.177 97.009,110.123 96.821,110.178 C96.709,110.209 96.602,110.257 96.504,110.318 C96.208,110.489 95.983,110.773 95.875,111.112 L89.666,131.572 L56.481,138.952 L46.029,131.631 L42.988,106.997 C48.924,105.907 56.862,104.645 66.398,103.577 C65.376,104.802 64.384,106.085 63.443,107.432 L57.766,115.581 L66.032,110.07 C66.155,109.984 71.419,106.521 80.03,102.309 C88.612,101.665 98.083,101.25 108.218,101.25 C110.689,101.249 113.113,101.277 115.498,101.319 z M63.841,129.068 C66.198,127.794 68.862,127.983 73.031,127.989 C73.478,128 73.939,127.994 74.421,127.984 C74.831,127.979 75.243,127.973 75.679,127.962 C79.975,127.92 83.548,128.328 83.485,121.581 C83.42,114.835 80.423,109.383 76.131,109.426 C71.834,109.463 67.677,114.99 67.934,121.732 C68.004,123.488 68.262,124.755 68.676,125.669 C64.931,126.607 63.899,128.923 63.841,129.068" fill="#BFAC91"/>
    <path d="M173.015,106.917 L170.023,127.861 L159.484,135.24 L126.343,131.474 L120.16,111.111 C120.02,110.66 119.666,110.312 119.215,110.177 C119.01,110.117 114.907,108.947 110.556,108.57 L111.351,108.517 C112.038,108.468 123.469,107.066 137.118,102.36 C152.233,103.521 164.576,105.38 173.015,106.917 z M151.835,126.302 C151.793,126.142 150.89,123.429 146.893,123.905 C147.354,122.902 147.559,121.549 147.414,119.695 C146.886,112.964 142.971,107.615 138.679,107.764 C134.387,107.916 131.637,113.495 131.874,120.242 C132.11,126.983 135.714,126.936 140.006,126.785 C145.776,126.678 148.945,124.905 151.835,126.302" fill="#BFAC91"/>
    <path d="M187.481,116.129 C187.989,116.548 188.392,117.633 187.937,122.687 C187.378,128.875 184.777,139.736 183.166,141.487 C181.388,141.831 177.661,141.423 175.388,140.892 C175.781,139.333 175.893,138.586 176.21,136.992 L180.185,134.211 C180.502,133.991 180.711,133.645 180.765,133.27 L183.543,113.804 C185.229,114.716 186.964,115.703 187.481,116.129" fill="#E1C8A6"/>
    <path d="M40.937,141.535 C41.136,142.239 41.345,142.942 41.561,143.635 C39.422,144.263 35.066,144.865 33.096,144.521 C31.463,142.876 28.417,131.555 27.751,125.543 C27.208,120.672 27.589,119.619 28.084,119.209 C28.659,118.726 30.812,117.501 32.677,116.502 L35.196,136.951 C35.244,137.344 35.453,137.692 35.782,137.918 L40.937,141.535" fill="#E1C8A6"/>
    <path d="M121.347,141.821 L121.196,143.126 C121.196,143.126 116.615,147.374 109.24,148.325 C101.865,149.275 96.069,144.743 96.069,144.743 C96.311,145.531 96.655,147.31 98.325,148.829 C96.36,148.594 94.238,148.436 92.012,148.436 C91.208,148.436 90.396,148.459 89.611,148.497 C85.072,148.734 78.687,155.597 74.197,162.511 C71.994,163.208 65.108,165.394 57.137,167.748 C49.697,157.439 46.039,146.906 45.668,145.816 L45.673,145.81 C45.523,145.391 45.372,144.971 45.232,144.542 L47.145,145.88 L47.145,145.885 L51.871,149.194 L53.451,150.295 C53.687,150.462 53.966,150.548 54.245,150.548 C54.347,150.548 54.449,150.537 54.55,150.517 L97.985,140.847 C98.472,140.74 98.866,140.374 99.01,139.897 L105.204,119.507 C106.273,119.362 107.212,119.287 108.018,119.287 C108.819,119.287 109.764,119.362 110.833,119.507 L117.207,140.504 C117.369,141.036 117.831,141.423 118.378,141.481 L121.347,141.821" fill="#E1C8A6"/>
    <path d="M170.926,140.693 L172.328,139.709 C172.096,140.682 171.844,141.649 171.581,142.605 C169.632,148.853 167.331,154.379 164.776,159.261 C164.211,159.3 163.615,159.322 162.976,159.322 C161.004,159.322 158.99,159.155 156.761,158.951 C152.893,158.596 146.754,157.893 144.815,157.668 C143.145,156.336 137.43,151.795 132.675,148.053 C132.488,147.902 132.327,147.762 132.17,147.633 C131.333,146.925 130.381,146.12 128.453,146.12 C126.702,146.12 124.145,146.758 117.964,148.628 C121.176,146.227 121.197,143.128 121.197,143.128 L121.348,141.823 L162.096,146.452 C162.428,146.49 162.772,146.404 163.051,146.211 L167.145,143.343 L170.926,140.693" fill="#E1C8A6"/>
    <path d="M140.937,54.964 C141.061,58.589 140.97,65.158 139.282,71.309 C139.214,71.546 139.224,71.788 139.282,72.013 C137.134,71.787 134.985,71.594 132.836,71.422 C135.248,66.368 135.774,60.986 135.888,59.09 C137.74,57.773 139.584,56.194 140.937,54.964" fill="#E7D194"/>
    <path d="M79.456,59.089 C79.568,60.985 80.094,66.356 82.502,71.406 C80.353,71.577 78.205,71.776 76.061,72.002 C76.119,71.781 76.126,71.545 76.061,71.308 C74.375,65.169 74.289,58.594 74.407,54.963 C75.76,56.194 77.597,57.773 79.456,59.089" fill="#E7D194"/>
    <path d="M138.347,116.424 C139.556,116.397 140.522,115.398 140.501,114.189 C140.48,112.975 139.481,112.008 138.266,112.036 C137.053,112.056 136.091,113.056 136.114,114.27 C136.135,115.478 137.134,116.446 138.347,116.424 z M151.835,126.302 C148.945,124.906 145.776,126.679 140.007,126.786 C135.715,126.937 132.111,126.984 131.875,120.243 C131.638,113.496 134.388,107.917 138.68,107.765 C142.972,107.615 146.887,112.965 147.415,119.696 C147.56,121.55 147.355,122.903 146.894,123.906 C150.89,123.429 151.793,126.141 151.835,126.302" fill="#292C2D"/>
    <path d="M138.266,112.028 C139.477,112.006 140.477,112.97 140.499,114.181 C140.521,115.393 139.557,116.393 138.346,116.415 C137.134,116.437 136.134,115.473 136.112,114.262 C136.09,113.05 137.054,112.05 138.266,112.028" fill="#F0F7F8"/>
    <path d="M76.85,118.051 C78.059,118.02 79.015,117.008 78.983,115.8 C78.95,114.586 77.942,113.63 76.733,113.663 C75.518,113.694 74.561,114.704 74.594,115.913 C74.626,117.128 75.636,118.084 76.85,118.051 z M83.484,121.58 C83.547,128.327 79.975,127.919 75.678,127.961 C75.243,127.972 74.83,127.977 74.42,127.983 C73.938,127.994 73.476,127.999 73.03,127.988 C68.862,127.983 66.197,127.794 63.84,129.067 C63.898,128.922 64.93,126.606 68.675,125.667 C68.261,124.753 68.002,123.486 67.933,121.73 C67.676,114.989 71.833,109.461 76.13,109.424 C80.422,109.382 83.419,114.835 83.484,121.58" fill="#292C2D"/>
    <path d="M76.736,113.666 C77.948,113.635 78.956,114.592 78.987,115.804 C79.018,117.016 78.061,118.023 76.849,118.055 C75.637,118.086 74.63,117.129 74.598,115.917 C74.567,114.705 75.524,113.697 76.736,113.666" fill="#F0F7F8"/>
    <path d="M49.52,76.485 L49.021,75.544 L49.002,73.071 L50.301,58.372 L72.863,52.908 L74.267,71.878 C73.174,70.395 71.536,67.038 70.521,62.432 C69.978,59.972 68.234,59.271 66.226,59.271 C64.475,59.271 62.524,59.805 60.997,60.168 C57.717,60.949 53.423,62.042 52.721,63.759 C51.358,67.09 50.691,75.782 50.691,75.782 L49.52,76.485" fill="#EAD798"/>
    <path d="M166.026,76.485 L164.855,75.782 C164.855,75.782 164.189,67.09 162.826,63.759 C162.123,62.042 157.829,60.949 154.551,60.168 C153.023,59.805 151.071,59.271 149.32,59.271 C147.312,59.271 145.568,59.972 145.025,62.432 C144.012,67.038 142.371,70.395 141.277,71.878 L142.684,52.908 L165.246,58.372 L166.353,70.902 L166.312,75.944 L166.026,76.485" fill="#EAD798"/>
    <path d="M130.726,73.08 L85.244,72.996 L82.887,67.689 L81.202,58.593 L77.495,55.646 L77.41,34.463 L82.63,19.025 C82.63,19.025 83.488,64.495 94.114,64.495 C104.74,64.495 106.866,64.495 106.866,64.495 L108.991,64.495 C108.991,64.495 111.115,64.495 121.741,64.495 C132.367,64.495 132.965,19.005 132.965,19.005 L139.877,44.505 L134.854,58.846 L134.6,62.889 L132.831,69.289 L130.726,73.08" fill="#EAD899"/>
    <path d="M176.975,81.2 C176.975,81.2 176.332,80.886 174.403,79.943 C174.403,79.943 176.976,81.2 176.975,81.2 M174.403,79.943 L166.3,77.499 L166.312,75.944 L166.729,75.158 L166.353,70.902 L166.429,61.421 C166.429,61.421 168.616,77.113 174.403,79.943" fill="#EAD899"/>
    <path d="M166.312,75.944 L166.353,70.902 L166.729,75.158 L166.312,75.944" fill="#E8D295"/>
    <path d="M38.361,81.2 C38.36,81.2 40.933,79.943 40.933,79.943 C39.004,80.886 38.361,81.2 38.361,81.2 M40.933,79.943 C46.721,77.113 48.908,61.421 48.908,61.421 L49.002,73.071 L48.817,75.158 L49.021,75.544 L49.037,77.499 L40.933,79.943" fill="#EAD899"/>
    <path d="M49.021,75.544 L48.817,75.158 L49.002,73.071 L49.021,75.544" fill="#E8D295"/>
    <path d="M73.568,72.27 L73.47,72.023 C71.495,64.836 71.581,57.3 71.758,53.824 L51.244,59.657 C49.864,68.639 50.508,75.24 50.647,76.454 C52.35,75.992 54.058,75.567 55.778,75.17 C58.613,74.542 61.471,74.016 64.334,73.532 C67.203,73.054 70.081,72.689 72.96,72.34 C73.165,72.313 73.364,72.298 73.568,72.27 z M82.501,71.406 C80.093,66.356 79.567,60.984 79.455,59.089 C77.597,57.773 75.759,56.194 74.406,54.964 C74.287,58.595 74.374,65.17 76.06,71.309 C76.125,71.546 76.118,71.782 76.06,72.003 C78.205,71.776 80.352,71.578 82.501,71.406 z M139.281,71.308 C140.969,65.158 141.06,58.588 140.936,54.963 C139.583,56.193 137.739,57.772 135.887,59.088 C135.773,60.984 135.247,66.366 132.835,71.42 C134.984,71.593 137.133,71.786 139.281,72.011 C139.223,71.787 139.213,71.546 139.281,71.308 z M164.69,76.459 C164.83,75.252 165.479,68.65 164.099,59.658 L143.579,53.825 C143.763,57.3 143.844,64.837 141.872,72.024 L141.771,72.282 C141.974,72.303 142.179,72.319 142.377,72.346 C148.146,73.007 153.888,73.93 159.566,75.176 C161.278,75.574 162.992,75.999 164.69,76.459 z M167.987,77.427 C170.742,78.329 173.513,79.285 176.023,80.752 C174.68,80.22 173.294,79.839 171.897,79.495 C170.506,79.14 169.104,78.84 167.696,78.571 C164.876,78.04 162.046,77.589 159.198,77.244 C156.357,76.874 153.511,76.562 150.652,76.32 C147.794,76.079 144.943,75.837 142.079,75.67 C130.633,74.966 119.155,74.79 107.669,74.778 C96.186,74.784 84.707,74.999 73.26,75.675 C70.398,75.841 67.545,76.084 64.688,76.326 C61.831,76.567 58.978,76.874 56.142,77.249 C53.295,77.594 50.464,78.045 47.644,78.576 C46.237,78.84 44.834,79.146 43.438,79.495 C42.047,79.839 40.655,80.22 39.312,80.752 C41.821,79.286 44.592,78.325 47.353,77.421 C47.585,77.346 47.82,77.282 48.056,77.207 L48.013,77.03 C47.965,76.713 46.944,69.171 48.722,58.385 C48.808,57.869 49.178,57.45 49.684,57.31 L52.601,56.479 C53.235,33.854 62.553,23.213 62.844,22.885 C54.518,36.282 54.594,52.171 54.738,55.871 L72.866,50.719 L72.908,50.709 L73.134,50.677 L73.209,50.671 C73.301,50.666 73.404,50.677 73.506,50.698 L73.559,50.714 L73.783,50.789 L73.869,50.838 L74.046,50.95 L74.095,50.983 L74.127,51.015 L74.181,51.059 C74.193,51.075 74.675,51.552 75.443,52.268 C75.261,46.295 75.545,29.16 83.705,14.958 C83.533,15.456 77.059,34.386 79.29,55.603 C80.014,56.183 80.776,56.752 81.519,57.252 C81.878,57.499 82.099,57.907 82.104,58.342 C82.11,58.412 82.265,65.175 85.252,70.928 C85.294,71.014 85.326,71.105 85.354,71.196 C92.783,70.691 100.232,70.487 107.666,70.482 C115.102,70.487 122.546,70.702 129.973,71.213 C130,71.116 130.033,71.02 130.082,70.928 C133.068,65.175 133.224,58.412 133.224,58.342 C133.234,57.906 133.455,57.499 133.815,57.252 C134.556,56.752 135.308,56.183 136.039,55.603 C138.273,34.386 131.799,15.456 131.628,14.958 C139.781,29.159 140.072,46.294 139.89,52.268 C140.652,51.553 141.136,51.076 141.151,51.059 L141.204,51.015 L141.237,50.983 L141.286,50.95 L141.463,50.832 L141.544,50.789 L141.78,50.709 L141.829,50.698 C141.925,50.677 142.029,50.666 142.125,50.671 L142.195,50.677 L142.426,50.709 L142.468,50.719 L160.597,55.871 C160.743,52.171 160.818,36.281 152.493,22.885 C152.782,23.213 162.102,33.854 162.73,56.479 L165.652,57.31 C166.151,57.45 166.527,57.869 166.614,58.385 C168.391,69.171 167.366,76.713 167.322,77.03 L167.28,77.212 C167.519,77.282 167.75,77.351 167.987,77.427" fill="#292C2D"/>
    <path d="M125.667,33.008 L125.667,23.219 L90.443,23.219 L90.443,33.008 L95.259,33.008 L95.259,28.034 L105.223,28.034 L105.223,58.259 L101.123,58.259 L101.123,63.865 L114.988,63.865 L114.988,58.259 L110.888,58.259 L110.888,28.034 L120.852,28.034 L120.852,33.008 L125.667,33.008 z M129.293,19.6 L129.293,36.625 L117.225,36.625 L117.225,31.651 L114.505,31.651 L114.505,54.632 L118.614,54.632 L118.614,67.482 L97.505,67.482 L97.505,54.632 L101.597,54.632 L101.597,31.652 L98.886,31.652 L98.886,36.626 L86.826,36.626 L86.826,19.6 L129.293,19.6" fill="#292C2D"/>
    <path d="M125.667,23.218 L125.667,33.008 L120.851,33.008 L120.851,28.034 L110.887,28.034 L110.887,58.259 L114.987,58.259 L114.987,63.865 L101.123,63.865 L101.123,58.259 L105.223,58.259 L105.223,28.034 L95.259,28.034 L95.259,33.008 L90.443,33.008 L90.443,23.218 L125.667,23.218" fill="#B93446"/>
    <path d="M30.694,93.746 C32.453,93.347 34.83,92.839 37.745,92.276 C35.954,93.497 33.836,95.03 31.523,96.873 L30.694,93.746" fill="#5F655E"/>
    <path d="M95.111,140.407 C95.111,140.407 95.603,143.572 91.173,144.926 C86.745,146.281 58.691,154.642 55.491,154.189 C52.292,153.738 44.172,148.315 44.172,148.315 L42.203,141.311 L54.219,148.803 L95.111,140.407" fill="#BFAC91"/>
    <path d="M120.242,139.794 C120.242,139.794 119.888,142.976 124.373,144.139 C128.857,145.3 157.248,152.434 160.423,151.843 C163.599,151.252 171.476,145.482 171.476,145.482 L173.139,138.398 L162.094,144.986 L120.242,139.794" fill="#BFAC91"/>
    <path d="M28.412,134.583 C28.412,134.583 32.299,142.358 38.578,139.666 L43.063,141.311 L42.615,144.601 L33.196,145.796 L30.655,144.302 L28.412,134.583" fill="#BFAC91"/>
    <g clip-path="url(#Clip_1)">
      <path d="M187.551,132.449 C187.551,132.449 181.198,140.564 174.919,137.873 L172.9,139.175 L173.348,142.464 L182.767,143.66 L185.307,142.165 L187.551,132.449" fill="#BFAC91"/>
      <path d="M89.279,193.531 C89.279,193.531 112.309,205.142 138.385,189.343 L130.011,188.772 C130.011,188.772 111.739,196.004 97.273,192.007 L89.279,193.531" fill="#BFAC91"/>
      <path d="M37.745,92.276 C34.83,92.84 32.453,93.347 30.694,93.746 L31.523,96.873 C33.836,95.029 35.954,93.497 37.745,92.276 z M41.56,143.636 C41.342,142.943 41.136,142.238 40.939,141.534 L35.777,137.922 C35.45,137.694 35.243,137.347 35.191,136.953 L32.675,116.504 C30.811,117.503 28.658,118.729 28.083,119.211 C27.586,119.62 27.208,120.671 27.747,125.543 C28.415,131.553 31.459,142.876 33.095,144.522 C35.063,144.869 39.422,144.264 41.56,143.636 z M72.41,89.439 C76.235,88.367 80.181,87.43 84.223,86.643 C78.425,86.855 72.623,87.124 66.83,87.451 C63.464,87.637 60.115,87.865 56.765,88.118 C55.087,88.247 53.42,88.381 51.758,88.563 C51.282,88.609 50.816,88.661 50.34,88.723 C45.971,91.337 29.213,101.857 17.709,115.612 C28.888,107.843 48.363,96.169 72.41,89.439 z M70.251,99.388 C73.502,96.163 76.856,93.502 79.818,91.421 C68.403,94.072 57.895,97.964 48.69,102.199 C54.679,101.231 61.932,100.222 70.251,99.388 z M114.065,86.244 C111.755,86.208 109.442,86.187 107.132,86.182 L107.127,86.182 C103.737,86.187 100.34,86.223 96.938,86.291 L90.669,89.262 L90.581,89.31 C89.639,89.77 81.407,93.923 73.662,101.331 C80.605,97.681 90.808,92.913 102.815,89.216 C106.412,88.114 110.181,87.098 114.065,86.244 z M110.249,105.032 C112.076,103.929 113.831,102.666 115.498,101.32 C113.111,101.279 110.689,101.248 108.22,101.248 C98.083,101.248 88.614,101.663 80.031,102.309 C71.421,106.518 66.156,109.981 66.033,110.069 L57.765,115.583 L63.444,107.434 C64.381,106.081 65.375,104.798 66.4,103.577 C56.864,104.643 48.923,105.906 42.99,106.999 L46.028,131.631 L56.481,138.952 L89.665,131.574 L95.877,111.11 C95.981,110.773 96.208,110.489 96.504,110.317 C96.602,110.254 96.706,110.208 96.819,110.177 C97.011,110.125 100.329,109.178 104.155,108.712 L110.249,105.032 z M113.603,183.664 C114.659,183.581 115.72,183.446 116.787,183.286 C115.404,181.848 114.183,180.511 113.219,179.429 C112.748,180.511 112.123,181.934 111.299,183.768 L111.542,183.768 C112.2,183.769 112.92,183.697 113.603,183.664 z M131.003,191.125 C126.5,190.793 122.405,188.92 119.1,185.648 C118.929,185.473 118.764,185.305 118.598,185.136 C117,185.457 115.379,185.695 113.717,185.84 C113.019,185.866 112.356,185.927 111.626,185.927 L110.543,185.938 L110.13,185.927 C105.734,192.466 95.971,193.74 95.525,193.797 C95.122,193.843 94.791,193.9 94.334,193.983 C99.776,195.474 105.33,196.121 110.808,195.753 C116.3,195.386 123.435,194.195 131.003,191.125 z M127.416,89.04 C127.793,88.569 128.145,88.114 128.46,87.7 C125.179,88.031 121.948,88.508 118.79,89.108 C107.976,91.132 97.989,94.497 89.68,97.945 C95.567,97.66 101.758,97.49 108.22,97.49 C112.128,97.49 115.928,97.557 119.624,97.666 C122.803,94.61 125.485,91.484 127.416,89.04 z M157.292,88.114 L157.261,88.102 C153.989,87.859 150.718,87.636 147.435,87.451 C142.88,87.191 138.323,86.974 133.768,86.783 C133.503,87.177 132.966,87.953 132.194,89.008 C129.715,92.363 124.796,98.518 118.49,103.737 C127.416,102.137 142.899,98.177 156.293,88.832 C156.629,88.594 156.961,88.346 157.292,88.114 z M172.326,139.707 L170.922,140.69 L167.143,143.341 L163.048,146.209 C162.769,146.401 162.427,146.489 162.094,146.452 L121.348,141.819 L118.382,141.482 C117.833,141.419 117.372,141.036 117.211,140.505 L110.834,119.507 C109.768,119.362 108.82,119.288 108.024,119.288 C107.215,119.288 106.273,119.361 105.207,119.507 L99.015,139.899 C98.87,140.375 98.477,140.738 97.99,140.845 L54.555,150.517 C54.452,150.537 54.349,150.547 54.25,150.547 C53.971,150.547 53.691,150.464 53.452,150.294 L51.874,149.196 L47.148,145.889 L47.148,145.878 L45.238,144.543 C45.373,144.973 45.527,145.393 45.679,145.811 L45.673,145.817 C46.041,146.909 49.701,157.439 57.14,167.746 C65.107,165.396 71.998,163.211 74.197,162.512 C78.685,155.595 85.074,148.735 89.615,148.498 C90.396,148.461 91.21,148.437 92.017,148.437 C94.238,148.437 96.361,148.597 98.327,148.83 C96.656,147.313 96.314,145.532 96.071,144.745 C96.071,144.745 101.864,149.275 109.241,148.329 C116.619,147.376 121.2,143.125 121.2,143.125 C121.2,143.125 121.179,146.227 117.964,148.628 C124.146,146.759 126.703,146.117 128.453,146.117 C130.384,146.117 131.336,146.925 132.17,147.636 C132.331,147.765 132.492,147.904 132.677,148.055 C137.43,151.797 143.145,156.338 144.818,157.669 C146.754,157.896 152.893,158.595 156.761,158.952 C158.991,159.153 161.006,159.324 162.978,159.324 C163.615,159.324 164.211,159.298 164.775,159.261 C167.333,154.381 169.632,148.85 171.583,142.608 C171.844,141.648 172.099,140.68 172.326,139.707 z M170.023,127.862 L173.015,106.914 C164.576,105.378 152.235,103.52 137.118,102.36 C123.471,107.067 112.041,108.468 111.352,108.515 L110.555,108.572 C114.908,108.946 119.009,110.116 119.215,110.177 C119.667,110.312 120.019,110.658 120.159,111.11 L126.345,131.476 L159.483,135.24 L170.023,127.862 z M178.093,132.273 L181.478,108.597 C179.972,108.271 178.047,107.868 175.747,107.428 L172.688,128.85 C172.631,129.228 172.423,129.575 172.113,129.793 L160.641,137.816 C160.371,138.008 160.025,138.096 159.694,138.059 L125.122,134.13 C124.568,134.067 124.107,133.684 123.946,133.157 L117.719,112.657 C116.051,112.226 111.77,111.227 108.023,111.227 C104.259,111.227 99.982,112.226 98.315,112.657 L92.087,133.157 C91.978,133.513 91.729,133.81 91.405,133.979 C91.301,134.036 91.182,134.077 91.062,134.104 L56.49,141.796 C56.381,141.818 56.288,141.829 56.184,141.829 C55.905,141.829 55.625,141.746 55.392,141.579 L43.925,133.55 C43.604,133.327 43.391,132.975 43.34,132.582 L40.249,107.51 C38.965,107.759 37.806,107.997 36.77,108.213 C36.036,108.618 35.31,109.022 34.596,109.426 L37.877,135.994 L54.543,147.669 L96.59,138.315 L102.797,117.866 C102.953,117.352 103.382,116.974 103.905,116.891 C105.479,116.638 106.855,116.509 108.021,116.509 C109.174,116.509 110.557,116.638 112.126,116.891 C112.654,116.974 113.083,117.352 113.234,117.866 L119.6,138.822 L161.882,143.63 L178.093,132.273 z M182.773,105.036 L185.75,93.746 C181.432,92.768 173.48,91.131 162.65,89.598 C157.12,93.574 151.068,96.753 145.12,99.289 C163.319,101.06 176.69,103.695 182.773,105.036 z M187.934,122.684 C188.39,117.632 187.992,116.545 187.479,116.13 C186.966,115.7 185.232,114.718 183.544,113.801 L180.765,133.265 C180.713,133.643 180.5,133.986 180.185,134.207 L176.208,136.988 C175.893,138.581 175.779,139.333 175.391,140.891 C177.664,141.419 181.39,141.829 183.166,141.486 C184.778,139.738 187.38,128.876 187.934,122.684 z M199.929,74.653 C200.075,77.567 199.997,80.486 199.671,83.386 C199.366,86.28 198.817,89.148 198.052,91.991 C197.652,93.405 197.192,94.802 196.648,96.189 C196.373,96.882 196.079,97.572 195.758,98.26 C195.597,98.601 195.427,98.938 195.235,99.285 L194.951,99.797 C194.847,99.983 194.764,100.123 194.603,100.371 L194.309,100.828 L193.848,101.065 C193.356,101.319 192.953,101.51 192.506,101.718 L191.208,102.303 C190.337,102.675 189.463,103.027 188.588,103.368 C187.977,103.607 187.438,103.825 186.926,104.042 L185.482,109.529 C185.446,109.52 185.011,109.409 184.199,109.214 L184.121,109.788 C185.715,110.621 188.847,112.31 189.914,113.191 C192.062,114.966 192.213,117.778 191.737,123.032 C191.493,125.729 190.598,130.978 189.356,135.799 C187.212,144.097 186.073,145.072 184.603,145.448 C183.857,145.64 182.709,145.831 181.595,145.831 C179.329,145.831 176.242,145.894 174.166,145.392 C173.633,147.28 172.111,152.204 169.098,158.354 C169.249,158.281 169.398,158.219 169.533,158.147 C173.25,156.195 180.394,153.083 180.695,152.948 L186.338,150.496 L183.448,155.931 C183.381,156.049 177.184,167.704 173.389,175.314 C169.62,182.852 162.554,184.493 158.324,185.465 C157.687,185.616 157.083,185.756 156.591,185.89 C153.556,186.744 147.411,188.209 141.992,189.513 L141.795,189.555 C138.46,191.616 134.821,193.454 130.84,194.966 C116.272,200.484 100.917,200.174 86.996,195.058 C84.735,195.349 81.762,195.705 77.803,196.155 C76.083,196.347 74.411,196.446 72.818,196.446 C59.554,196.446 52.524,189.71 47.393,183.115 C41.9,176.053 35.181,165.569 34.896,165.13 L31,159.053 L37.585,162.014 C40.737,163.433 50.109,167.771 52.79,169.014 C53.007,168.953 53.22,168.89 53.432,168.828 C48.975,162.471 45.32,155.223 42.737,147.194 C40.542,147.856 37.161,148.369 34.531,148.369 C33.57,148.369 32.709,148.297 32.047,148.141 C30.576,147.805 28.899,146.387 26.616,138.346 C25.291,133.678 24.302,128.582 24.013,125.959 C23.443,120.838 23.547,118.095 25.675,116.323 C26.958,115.252 31.286,112.979 32.182,112.514 L31.99,110.934 C18.24,119.014 9.999,126.154 9.833,126.3 L0,134.929 L7.005,123.882 C12.549,115.127 18.953,108.05 24.845,102.598 C24.601,102.5 24.374,102.402 24.135,102.304 L22.836,101.719 C22.391,101.511 21.987,101.32 21.496,101.066 L21.035,100.829 L20.74,100.372 C20.574,100.123 20.502,99.984 20.393,99.798 L20.103,99.286 C19.922,98.939 19.745,98.602 19.585,98.261 C19.258,97.572 18.964,96.883 18.695,96.19 C18.151,94.803 17.69,93.406 17.291,91.992 C16.52,89.149 15.976,86.282 15.671,83.387 C15.35,80.487 15.267,77.568 15.412,74.654 C15.49,73.199 15.63,71.745 15.831,70.3 C15.935,69.575 16.044,68.85 16.189,68.13 C16.339,67.396 16.485,66.712 16.707,65.909 L16.862,65.345 L17.266,65.028 C19.56,63.226 22.034,61.865 24.55,60.659 C26.621,59.686 28.733,58.826 30.861,58.043 C36.804,41.55 47.023,26.925 60.452,16.732 C74.337,6.197 90.664,0.627 107.671,0.627 C124.678,0.627 141.005,6.197 154.889,16.733 C168.319,26.926 178.538,41.552 184.477,58.04 C186.61,58.827 188.717,59.681 190.793,60.66 C193.308,61.866 195.783,63.227 198.076,65.029 L198.48,65.346 L198.636,65.91 C198.863,66.713 199.008,67.397 199.153,68.131 C199.299,68.851 199.413,69.576 199.51,70.301 C199.713,71.744 199.858,73.198 199.929,74.653 z M40.499,56.337 C37.983,57.351 35.483,58.397 33.039,59.546 C30.59,60.665 28.183,61.866 25.884,63.206 C23.763,64.428 21.727,65.769 19.93,67.282 C19.853,67.737 19.781,68.234 19.719,68.705 C19.641,69.372 19.563,70.041 19.511,70.714 C19.392,72.06 19.345,73.417 19.331,74.773 C19.305,77.486 19.491,80.199 19.833,82.885 C20.205,85.577 20.697,88.254 21.427,90.837 C21.79,92.132 22.194,93.41 22.67,94.641 C22.903,95.264 23.162,95.869 23.432,96.459 C23.566,96.753 23.706,97.044 23.845,97.323 L24.017,97.649 C24.218,97.753 24.426,97.856 24.622,97.949 L25.828,98.523 C26.501,98.834 27.428,99.274 28.194,99.616 L28.318,99.502 L26.087,90.991 C26.558,90.862 30.804,89.764 38.119,88.372 C37.529,88.263 36.928,88.134 36.344,87.993 C34.682,87.58 33.035,87.072 31.446,86.43 C30.659,86.094 29.877,85.731 29.137,85.311 C28.396,84.886 27.666,84.406 27.102,83.764 C35.137,86.388 51.739,85.197 66.5,83.676 C80.001,82.283 93.528,81.383 107.128,81.351 C120.728,81.382 134.266,82.282 147.758,83.676 C162.528,85.198 179.132,86.389 187.164,83.764 C186.6,84.406 185.871,84.886 185.13,85.311 C184.391,85.731 183.608,86.093 182.821,86.43 C181.226,87.072 179.585,87.579 177.918,87.993 C177.674,88.049 177.426,88.107 177.177,88.159 C185.197,89.645 189.866,90.856 190.363,90.991 L188.225,99.098 C188.655,98.906 189.089,98.721 189.513,98.524 L190.72,97.95 C190.916,97.856 191.124,97.754 191.326,97.65 L191.492,97.324 C191.636,97.045 191.776,96.754 191.911,96.46 C192.181,95.869 192.439,95.264 192.678,94.642 C193.149,93.411 193.557,92.132 193.914,90.838 C194.645,88.255 195.142,85.578 195.509,82.886 C195.855,80.2 196.037,77.486 196.011,74.774 C196.001,73.418 195.949,72.061 195.835,70.715 C195.778,70.042 195.705,69.374 195.622,68.706 C195.565,68.235 195.487,67.738 195.409,67.283 C193.612,65.77 191.578,64.43 189.455,63.207 C187.156,61.867 184.751,60.666 182.296,59.547 C179.858,58.398 177.353,57.352 174.836,56.338 C173.577,55.83 172.308,55.333 171.035,54.862 C169.768,54.371 168.483,53.906 167.2,53.439 C169.896,53.884 172.569,54.499 175.213,55.178 C176.937,55.624 178.657,56.126 180.354,56.659 C168.244,25.001 139.284,4.387 107.669,4.387 C76.047,4.387 47.093,25.001 34.985,56.659 C36.687,56.126 38.401,55.624 40.12,55.178 C42.771,54.5 45.442,53.884 48.14,53.439 C46.85,53.905 45.572,54.37 44.298,54.862 C43.03,55.332 41.763,55.829 40.499,56.337 z M112.626,172.136 L114.22,174.035 C114.256,174.081 117.797,178.295 122.126,182.587 C125.005,185.44 128.483,186.884 132.469,186.884 C133.83,186.884 135.26,186.709 136.704,186.361 C138.044,186.035 139.5,185.688 140.991,185.331 C146.375,184.044 152.473,182.582 155.429,181.754 C156.014,181.588 156.667,181.439 157.354,181.282 C161.289,180.373 166.683,179.119 169.541,173.393 C171.69,169.096 174.588,163.519 176.738,159.432 C174.875,160.291 172.922,161.222 171.535,161.952 C169.397,163.075 166.597,163.619 162.977,163.619 C160.825,163.619 158.711,163.438 156.372,163.23 C151.697,162.8 143.786,161.869 143.705,161.858 L143.099,161.791 L142.621,161.408 C142.55,161.356 135.618,155.833 130.015,151.427 C129.788,151.241 129.581,151.069 129.394,150.914 C128.804,150.411 128.804,150.411 128.452,150.411 C126.655,150.411 121.432,152.031 109.99,155.578 L109.287,155.801 L108.598,155.541 C108.52,155.515 101.013,152.731 92.017,152.731 C91.281,152.731 90.547,152.75 89.832,152.787 C88.931,152.833 83.874,155.235 77.407,165.467 L76.988,166.124 L76.247,166.362 C76.14,166.399 65.009,169.992 53.205,173.367 L52.439,173.585 L51.714,173.248 C51.637,173.217 47.018,171.074 42.623,169.054 C45.02,172.595 48.085,177.012 50.782,180.476 C55.493,186.543 61.431,192.15 72.816,192.15 C74.244,192.15 75.761,192.062 77.319,191.885 C88.9,190.576 91.882,190.048 93.487,189.768 C94.03,189.676 94.46,189.597 95.009,189.53 C95.097,189.519 104.58,188.293 107.241,182.324 C109.985,176.19 110.539,174.729 110.56,174.673 L111.528,172.09 C111.528,172.09 111.648,171.421 111.845,171.213 L111.85,171.218 L111.869,171.234 C112.174,171.453 112.626,172.136 112.626,172.136" fill="#292C2D"/>
    </g>
  </g>
</svg>
