<svg version="1.1" xmlns="http://www.w3.org/2000/svg" xmlns:xlink="http://www.w3.org/1999/xlink" x="0" y="0" width="110" height="40" viewBox="0, 0, 110, 40">
  <defs>
    <linearGradient id="Gradient_1" gradientUnits="userSpaceOnUse" x1="30.591" y1="21.026" x2="49.708" y2="9.986" gradientTransform="matrix(0.5, 0, 0, 0.5, 0, 0)">
      <stop offset="0" stop-color="#A4681D"/>
      <stop offset="0.31" stop-color="#E18F2F"/>
      <stop offset="0.679" stop-color="#E99F37"/>
      <stop offset="1" stop-color="#F0AD3E"/>
    </linearGradient>
    <linearGradient id="Gradient_2" gradientUnits="userSpaceOnUse" x1="40.797" y1="71.735" x2="69.362" y2="55.242" gradientTransform="matrix(0.5, 0, 0, 0.5, 0, 0)">
      <stop offset="0" stop-color="#F0AD3E"/>
      <stop offset="0.69" stop-color="#E18F2F"/>
      <stop offset="1" stop-color="#A4681D"/>
    </linearGradient>
    <linearGradient id="Gradient_3" gradientUnits="userSpaceOnUse" x1="18.629" y1="35.495" x2="70.371" y2="35.495" gradientTransform="matrix(0.5, 0, 0, 0.5, 0, 0)">
      <stop offset="0" stop-color="#006991"/>
      <stop offset="0.25" stop-color="#008BBF"/>
      <stop offset="0.62" stop-color="#008BBF"/>
      <stop offset="1" stop-color="#00AEEF"/>
    </linearGradient>
  </defs>
  <g id="logo">
    <g>
      <path d="M51.53,26.008 Q50.177,27.106 48.061,27.106 Q46.634,27.106 45.097,26.599 Q43.559,26.093 42.378,25.176 L43.706,23.077 Q45.995,24.766 48.135,24.766 Q49.07,24.766 49.611,24.344 Q50.153,23.922 50.153,23.27 Q50.153,22.305 47.545,21.534 Q47.348,21.461 47.249,21.437 Q43.165,20.352 43.165,17.819 Q43.165,16.034 44.58,14.96 Q45.995,13.887 48.258,13.887 Q50.522,13.887 52.539,15.19 L51.506,17.192 Q49.907,16.154 48.037,16.154 Q47.053,16.154 46.437,16.504 Q45.822,16.854 45.822,17.553 Q45.822,18.181 46.462,18.47 Q46.905,18.687 47.705,18.88 Q48.504,19.073 49.119,19.266 Q49.734,19.459 50.313,19.7 Q50.891,19.942 51.555,20.376 Q52.884,21.244 52.884,23.077 Q52.884,24.911 51.53,26.008 z" fill="#E99F37"/>
      <path d="M58.821,16.251 L58.821,22.764 Q58.821,23.68 59.313,24.223 Q59.806,24.766 60.691,24.766 Q61.577,24.766 62.389,23.922 L63.521,25.827 Q62.069,27.106 60.31,27.106 Q58.551,27.106 57.308,25.912 Q56.066,24.718 56.066,22.691 L56.066,16.251 L54.417,16.251 L54.417,14.08 L56.066,14.08 L56.066,10.052 L58.821,10.052 L58.821,14.08 L62.266,14.08 L62.266,16.251 z" fill="#E99F37"/>
      <path d="M65.843,25.272 Q63.997,23.439 63.997,20.448 Q63.997,17.457 65.892,15.672 Q67.786,13.887 70.407,13.887 Q73.027,13.887 74.626,16.058 L74.626,9.014 L77.382,9.014 L77.382,26.913 L74.626,26.913 L74.626,24.983 Q73.101,27.106 70.173,27.106 Q67.688,27.106 65.843,25.272 z M67.959,23.56 Q69.164,24.718 70.788,24.718 Q72.412,24.718 73.544,23.548 Q74.676,22.378 74.676,20.545 Q74.676,18.711 73.544,17.481 Q72.412,16.251 70.764,16.251 Q69.115,16.251 67.934,17.481 Q66.753,18.711 66.753,20.557 Q66.753,22.402 67.959,23.56 z" fill="#E99F37"/>
      <path d="M83.541,26.913 L80.785,26.913 L80.785,9.014 L83.541,9.014 z" fill="#009CD7"/>
      <path d="M89.722,26.913 L86.966,26.913 L86.966,14.08 L89.722,14.08 z M86.622,10.317 Q86.622,9.618 87.138,9.111 Q87.655,8.604 88.368,8.604 Q89.082,8.604 89.599,9.111 Q90.115,9.618 90.115,10.317 Q90.115,11.017 89.599,11.523 Q89.082,12.03 88.368,12.03 Q87.655,12.03 87.138,11.523 Q86.622,11.017 86.622,10.317 z" fill="#009CD7"/>
      <path d="M104.67,15.672 Q106.54,17.457 106.54,20.424 Q106.54,23.391 104.682,25.248 Q102.825,27.106 100.352,27.106 Q97.879,27.106 95.911,24.983 L95.911,26.913 L93.155,26.913 L93.155,9.014 L95.911,9.014 L95.911,16.323 Q97.535,13.887 100.167,13.887 Q102.8,13.887 104.67,15.672 z M96.993,23.524 Q98.125,24.693 99.749,24.693 Q101.373,24.693 102.579,23.536 Q103.784,22.378 103.784,20.532 Q103.784,18.687 102.603,17.469 Q101.422,16.251 99.774,16.251 Q98.125,16.251 96.993,17.469 Q95.862,18.687 95.862,20.52 Q95.862,22.354 96.993,23.524 z" fill="#009CD7"/>
    </g>
    <path d="M22.399,0.742 L16.491,4.139 C15.738,4.579 15.089,5.176 14.587,5.888 C13.864,6.895 13.864,8.252 14.587,9.259 C15.092,9.963 15.741,10.552 16.491,10.985 L20.41,13.248 C20.223,13.112 20.049,12.957 19.891,12.788 C18.546,11.335 18.633,9.067 20.086,7.722 C22.256,6.279 23.282,3.182 22.399,0.742 z" fill="url(#Gradient_1)"/>
    <path d="M33.713,26.86 L30.855,25.21 C31.684,25.676 32.188,26.561 32.167,27.512 C32.146,28.463 31.602,29.325 30.753,29.753 L24.638,33.299 C23.289,34.034 22.435,35.434 22.399,36.97 L22.399,39.346 L33.835,32.745 C34.849,32.101 35.453,30.974 35.427,29.774 C35.402,28.573 34.752,27.473 33.713,26.872 z" fill="url(#Gradient_2)"/>
    <path d="M11.403,28.231 C10.094,27.421 9.303,25.987 9.315,24.448 C9.327,22.91 10.141,21.489 11.461,20.699 L7.212,23.142 C5.883,23.908 5.065,25.325 5.065,26.859 C5.065,28.392 5.883,29.809 7.212,30.575 L10.951,32.733 L22.399,39.335 L22.399,36.958 C22.358,35.427 21.505,34.032 20.159,33.299 L14.036,29.767 C13.949,29.723 13.866,29.675 13.785,29.622 z" fill="#00AEEF"/>
    <path d="M27.548,17.354 L33.039,14.184 C34.367,13.417 35.184,12.001 35.184,10.468 C35.184,8.935 34.367,7.518 33.039,6.751 L31.546,5.877 C32.057,7.254 31.619,8.804 30.464,9.711 L22.399,14.377 L11.461,20.696 C10.141,21.486 9.327,22.907 9.315,24.445 C9.303,25.984 10.094,27.418 11.403,28.228 L13.794,29.607 C13.048,29.121 12.606,28.284 12.625,27.393 C12.645,26.503 13.123,25.686 13.89,25.233 z" fill="url(#Gradient_3)"/>
    <path d="M16.491,10.971 C15.741,10.537 15.092,9.949 14.587,9.245 C13.864,8.237 13.864,6.881 14.587,5.874 C15.091,5.166 15.74,4.575 16.491,4.139 L11.989,6.763 C10.668,7.553 9.855,8.974 9.843,10.513 C9.831,12.051 10.622,13.485 11.93,14.295 L33.713,26.872 C34.752,27.473 35.402,28.573 35.427,29.774 C35.453,30.974 34.849,32.101 33.835,32.745 L37.574,30.587 C38.901,29.82 39.718,28.403 39.718,26.87 C39.718,25.337 38.901,23.921 37.574,23.154 z" fill="#F0AD3E"/>
  </g>
</svg>
