<svg version="1.1" xmlns="http://www.w3.org/2000/svg" xmlns:xlink="http://www.w3.org/1999/xlink" x="0" y="0" width="400" height="200" viewBox="0, 0, 400, 200">
  <defs>
    <linearGradient id="Gradient_1" gradientUnits="userSpaceOnUse" x1="177.952" y1="102.976" x2="230.4" y2="72.688" gradientTransform="matrix(0.5, 0, 0, 0.5, 0, 0)">
      <stop offset="0" stop-color="#A4681D"/>
      <stop offset="0.31" stop-color="#E18F2F"/>
      <stop offset="1" stop-color="#F0AD3E"/>
    </linearGradient>
    <linearGradient id="Gradient_2" gradientUnits="userSpaceOnUse" x1="205.952" y1="242.096" x2="284.32" y2="196.848" gradientTransform="matrix(0.5, 0, 0, 0.5, 0, 0)">
      <stop offset="0" stop-color="#F0AD3E"/>
      <stop offset="0.69" stop-color="#E18F2F"/>
      <stop offset="1" stop-color="#A4681D"/>
    </linearGradient>
    <linearGradient id="Gradient_3" gradientUnits="userSpaceOnUse" x1="145.136" y1="142.672" x2="287.088" y2="142.672" gradientTransform="matrix(0.5, 0, 0, 0.5, 0, 0)">
      <stop offset="0" stop-color="#006991"/>
      <stop offset="0.25" stop-color="#008BBF"/>
      <stop offset="0.62" stop-color="#008BBF"/>
      <stop offset="1" stop-color="#00AEEF"/>
    </linearGradient>
    <linearGradient id="Gradient_4" gradientUnits="userSpaceOnUse" x1="177.952" y1="102.976" x2="230.4" y2="72.688" gradientTransform="matrix(0.5, 0, 0, 0.5, 0, 0)">
      <stop offset="0" stop-color="#A4681D"/>
      <stop offset="0.31" stop-color="#E18F2F"/>
      <stop offset="0.679" stop-color="#E99F37"/>
      <stop offset="1" stop-color="#F0AD3E"/>
    </linearGradient>
    <linearGradient id="Gradient_5" gradientUnits="userSpaceOnUse" x1="205.952" y1="242.096" x2="284.32" y2="196.848" gradientTransform="matrix(0.5, 0, 0, 0.5, 0, 0)">
      <stop offset="0" stop-color="#F0AD3E"/>
      <stop offset="0.69" stop-color="#E18F2F"/>
      <stop offset="1" stop-color="#A4681D"/>
    </linearGradient>
    <linearGradient id="Gradient_6" gradientUnits="userSpaceOnUse" x1="145.136" y1="142.672" x2="287.088" y2="142.672" gradientTransform="matrix(0.5, 0, 0, 0.5, 0, 0)">
      <stop offset="0" stop-color="#006991"/>
      <stop offset="0.25" stop-color="#008BBF"/>
      <stop offset="0.62" stop-color="#008BBF"/>
      <stop offset="1" stop-color="#00AEEF"/>
    </linearGradient>
    <linearGradient id="Gradient_7" gradientUnits="userSpaceOnUse" x1="177.952" y1="102.976" x2="230.4" y2="72.688" gradientTransform="matrix(0.5, 0, 0, 0.5, 0, 0)">
      <stop offset="0" stop-color="#A4681D"/>
      <stop offset="0.31" stop-color="#E18F2F"/>
      <stop offset="1" stop-color="#F0AD3E"/>
    </linearGradient>
    <linearGradient id="Gradient_8" gradientUnits="userSpaceOnUse" x1="205.952" y1="242.096" x2="284.32" y2="196.848" gradientTransform="matrix(0.5, 0, 0, 0.5, 0, 0)">
      <stop offset="0" stop-color="#F0AD3E"/>
      <stop offset="0.69" stop-color="#E18F2F"/>
      <stop offset="1" stop-color="#A4681D"/>
    </linearGradient>
    <linearGradient id="Gradient_9" gradientUnits="userSpaceOnUse" x1="145.136" y1="142.672" x2="287.088" y2="142.672" gradientTransform="matrix(0.5, 0, 0, 0.5, 0, 0)">
      <stop offset="0" stop-color="#006991"/>
      <stop offset="0.25" stop-color="#008BBF"/>
      <stop offset="0.62" stop-color="#008BBF"/>
      <stop offset="1" stop-color="#00AEEF"/>
    </linearGradient>
    <linearGradient id="Gradient_10" gradientUnits="userSpaceOnUse" x1="177.952" y1="102.976" x2="230.4" y2="72.688" gradientTransform="matrix(0.5, 0, 0, 0.5, 0, 0)">
      <stop offset="0" stop-color="#A4681D"/>
      <stop offset="0.31" stop-color="#E18F2F"/>
      <stop offset="0.679" stop-color="#E99F37"/>
      <stop offset="1" stop-color="#F0AD3E"/>
    </linearGradient>
    <linearGradient id="Gradient_11" gradientUnits="userSpaceOnUse" x1="205.952" y1="242.096" x2="284.32" y2="196.848" gradientTransform="matrix(0.5, 0, 0, 0.5, 0, 0)">
      <stop offset="0" stop-color="#F0AD3E"/>
      <stop offset="0.69" stop-color="#E18F2F"/>
      <stop offset="1" stop-color="#A4681D"/>
    </linearGradient>
    <linearGradient id="Gradient_12" gradientUnits="userSpaceOnUse" x1="145.136" y1="142.672" x2="287.088" y2="142.672" gradientTransform="matrix(0.5, 0, 0, 0.5, 0, 0)">
      <stop offset="0" stop-color="#006991"/>
      <stop offset="0.25" stop-color="#008BBF"/>
      <stop offset="0.62" stop-color="#008BBF"/>
      <stop offset="1" stop-color="#00AEEF"/>
    </linearGradient>
  </defs>
  <g id="logo_paths">
    <g>
      <path d="M188.386,93.998 Q184.674,97.009 178.869,97.009 Q174.954,97.009 170.735,95.62 Q166.516,94.23 163.276,91.715 L166.921,85.958 Q173.199,90.59 179.071,90.59 Q181.636,90.59 183.121,89.432 Q184.606,88.274 184.606,86.487 Q184.606,83.84 177.451,81.723 Q176.911,81.524 176.641,81.458 Q165.436,78.48 165.436,71.531 Q165.436,66.634 169.317,63.689 Q173.199,60.744 179.409,60.744 Q185.619,60.744 191.154,64.318 L188.319,69.811 Q183.931,66.965 178.801,66.965 Q176.101,66.965 174.414,67.925 Q172.726,68.884 172.726,70.803 Q172.726,72.524 174.481,73.318 Q175.696,73.914 177.89,74.443 Q180.084,74.972 181.771,75.502 Q183.459,76.031 185.045,76.693 Q186.631,77.355 188.454,78.546 Q192.099,80.928 192.099,85.958 Q192.099,90.987 188.386,93.998 z" fill="#E99F37"/>
      <path d="M208.389,67.23 L208.389,85.098 Q208.389,87.612 209.739,89.101 Q211.089,90.59 213.519,90.59 Q215.949,90.59 218.177,88.274 L221.282,93.502 Q217.299,97.009 212.473,97.009 Q207.646,97.009 204.238,93.734 Q200.829,90.458 200.829,84.899 L200.829,67.23 L196.306,67.23 L196.306,61.274 L200.829,61.274 L200.829,50.222 L208.389,50.222 L208.389,61.274 L217.839,61.274 L217.839,67.23 z" fill="#E99F37"/>
      <path d="M227.652,91.98 Q222.589,86.951 222.589,78.745 Q222.589,70.539 227.787,65.642 Q232.984,60.744 240.173,60.744 Q247.362,60.744 251.75,66.7 L251.75,47.377 L259.31,47.377 L259.31,96.48 L251.75,96.48 L251.75,91.186 Q247.565,97.009 239.532,97.009 Q232.714,97.009 227.652,91.98 z M233.457,87.281 Q236.764,90.458 241.219,90.458 Q245.674,90.458 248.78,87.248 Q251.885,84.039 251.885,79.009 Q251.885,73.98 248.78,70.605 Q245.674,67.23 241.152,67.23 Q236.629,67.23 233.389,70.605 Q230.149,73.98 230.149,79.042 Q230.149,84.105 233.457,87.281 z" fill="#E99F37"/>
      <path d="M276.206,96.48 L268.646,96.48 L268.646,47.377 L276.206,47.377 z" fill="#009CD7"/>
      <path d="M293.163,96.48 L285.603,96.48 L285.603,61.274 L293.163,61.274 z M284.658,50.95 Q284.658,49.031 286.076,47.641 Q287.493,46.252 289.451,46.252 Q291.408,46.252 292.826,47.641 Q294.243,49.031 294.243,50.95 Q294.243,52.869 292.826,54.259 Q291.408,55.649 289.451,55.649 Q287.493,55.649 286.076,54.259 Q284.658,52.869 284.658,50.95 z" fill="#009CD7"/>
      <path d="M334.174,65.642 Q339.304,70.539 339.304,78.678 Q339.304,86.818 334.207,91.914 Q329.111,97.009 322.327,97.009 Q315.543,97.009 310.143,91.186 L310.143,96.48 L302.583,96.48 L302.583,47.377 L310.143,47.377 L310.143,67.428 Q314.598,60.744 321.821,60.744 Q329.044,60.744 334.174,65.642 z M313.113,87.182 Q316.218,90.392 320.673,90.392 Q325.129,90.392 328.436,87.215 Q331.744,84.039 331.744,78.976 Q331.744,73.914 328.504,70.572 Q325.264,67.23 320.741,67.23 Q316.218,67.23 313.113,70.572 Q310.008,73.914 310.008,78.943 Q310.008,83.973 313.113,87.182 z" fill="#009CD7"/>
    </g>
    <path d="M108.464,24.68 L92.256,34 C90.191,35.208 88.41,36.845 87.032,38.8 C85.048,41.563 85.048,45.285 87.032,48.048 C88.417,49.98 90.198,51.594 92.256,52.784 L103.008,58.992 C102.494,58.617 102.018,58.194 101.584,57.728 C97.894,53.743 98.134,47.521 102.12,43.832 C108.072,39.872 110.888,31.376 108.464,24.68 z" fill="url(#Gradient_10)"/>
    <path d="M139.504,96.336 L131.664,91.808 C133.938,93.087 135.322,95.515 135.264,98.124 C135.206,100.733 133.714,103.097 131.384,104.272 L114.608,114 C110.906,116.017 108.563,119.858 108.464,124.072 L108.464,130.592 L139.84,112.48 C142.621,110.714 144.277,107.623 144.208,104.33 C144.139,101.036 142.356,98.018 139.504,96.368 z" fill="url(#Gradient_11)"/>
    <path d="M78.296,100.096 C74.707,97.874 72.537,93.94 72.57,89.719 C72.602,85.498 74.834,81.599 78.456,79.432 L66.8,86.136 C63.154,88.237 60.908,92.125 60.908,96.332 C60.908,100.539 63.154,104.427 66.8,106.528 L77.056,112.448 L108.464,130.56 L108.464,124.04 C108.352,119.838 106.011,116.012 102.32,114 L85.52,104.312 C85.283,104.191 85.054,104.058 84.832,103.912 z" fill="#00AEEF"/>
    <path d="M122.592,70.256 L137.656,61.56 C141.298,59.456 143.54,55.57 143.54,51.364 C143.54,47.158 141.298,43.272 137.656,41.168 L133.56,38.768 C134.96,42.547 133.761,46.798 130.592,49.288 L108.464,62.088 L78.456,79.424 C74.834,81.591 72.602,85.49 72.57,89.711 C72.537,93.932 74.707,97.866 78.296,100.088 L84.856,103.872 C82.81,102.538 81.597,100.241 81.65,97.798 C81.705,95.356 83.017,93.114 85.12,91.872 z" fill="url(#Gradient_12)"/>
    <path d="M92.256,52.744 C90.198,51.554 88.417,49.94 87.032,48.008 C85.048,45.245 85.048,41.523 87.032,38.76 C88.414,36.819 90.195,35.197 92.256,34 L79.904,41.2 C76.282,43.367 74.05,47.266 74.018,51.487 C73.985,55.708 76.155,59.642 79.744,61.864 L139.504,96.368 C142.356,98.018 144.139,101.036 144.208,104.33 C144.277,107.623 142.621,110.714 139.84,112.48 L150.096,106.56 C153.738,104.456 155.98,100.57 155.98,96.364 C155.98,92.158 153.738,88.272 150.096,86.168 z" fill="#F0AD3E"/>
  </g>
  <g id="subtitle_paths">
    <path d="M21.035,172 Q20.72,172 20.646,171.706 L20.5,170.372 Q20.069,170.793 19.644,171.129 Q19.219,171.465 18.757,171.696 Q18.295,171.926 17.759,172.047 Q17.224,172.168 16.583,172.168 Q16.048,172.168 15.544,172.01 Q15.04,171.853 14.651,171.527 Q14.263,171.202 14.026,170.693 Q13.79,170.184 13.79,169.469 Q13.79,168.808 14.168,168.241 Q14.546,167.674 15.349,167.254 Q16.153,166.834 17.418,166.582 Q18.683,166.33 20.458,166.288 L20.458,165.196 Q20.458,163.747 19.833,162.965 Q19.208,162.183 17.979,162.183 Q17.224,162.183 16.693,162.393 Q16.163,162.603 15.796,162.855 Q15.428,163.107 15.197,163.316 Q14.966,163.527 14.809,163.527 Q14.599,163.527 14.494,163.338 L14.315,163.033 Q15.134,162.214 16.037,161.794 Q16.94,161.374 18.085,161.374 Q18.925,161.374 19.555,161.642 Q20.184,161.91 20.599,162.408 Q21.014,162.907 21.224,163.616 Q21.434,164.325 21.434,165.196 L21.434,172 z M16.835,171.443 Q17.444,171.443 17.953,171.312 Q18.462,171.181 18.898,170.945 Q19.334,170.709 19.712,170.383 Q20.09,170.058 20.458,169.68 L20.458,166.96 Q18.967,167.002 17.89,167.186 Q16.814,167.37 16.116,167.685 Q15.418,167.999 15.087,168.435 Q14.756,168.871 14.756,169.428 Q14.756,169.952 14.929,170.336 Q15.103,170.719 15.386,170.966 Q15.67,171.213 16.048,171.328 Q16.426,171.443 16.835,171.443 z" fill="#585858"/>
    <path d="M34.391,162.844 Q34.318,162.991 34.16,162.991 Q34.044,162.991 33.861,162.86 Q33.677,162.729 33.378,162.566 Q33.078,162.403 32.643,162.272 Q32.207,162.141 31.577,162.141 Q31.01,162.141 30.543,162.303 Q30.076,162.466 29.745,162.739 Q29.414,163.012 29.23,163.374 Q29.046,163.737 29.046,164.135 Q29.046,164.629 29.299,164.954 Q29.551,165.28 29.96,165.511 Q30.369,165.742 30.889,165.91 Q31.409,166.078 31.955,166.246 Q32.501,166.414 33.021,166.619 Q33.541,166.824 33.95,167.128 Q34.36,167.433 34.611,167.874 Q34.863,168.314 34.863,168.945 Q34.863,169.627 34.617,170.215 Q34.37,170.803 33.903,171.234 Q33.436,171.664 32.753,171.916 Q32.07,172.168 31.199,172.168 Q30.097,172.168 29.299,171.816 Q28.5,171.465 27.871,170.898 L28.112,170.541 Q28.164,170.457 28.227,170.415 Q28.291,170.372 28.406,170.372 Q28.542,170.372 28.742,170.541 Q28.941,170.709 29.262,170.903 Q29.582,171.097 30.06,171.265 Q30.538,171.433 31.241,171.433 Q31.903,171.433 32.407,171.249 Q32.91,171.066 33.246,170.751 Q33.583,170.436 33.756,170.01 Q33.929,169.585 33.929,169.113 Q33.929,168.588 33.677,168.241 Q33.425,167.895 33.015,167.653 Q32.606,167.411 32.086,167.243 Q31.566,167.076 31.015,166.908 Q30.464,166.74 29.944,166.54 Q29.424,166.34 29.015,166.036 Q28.605,165.732 28.354,165.296 Q28.101,164.86 28.101,164.209 Q28.101,163.653 28.343,163.138 Q28.584,162.624 29.031,162.235 Q29.477,161.847 30.118,161.616 Q30.758,161.385 31.556,161.385 Q32.512,161.385 33.252,161.658 Q33.992,161.931 34.611,162.497 z" fill="#585858"/>
    <path d="M40.523,172.168 Q39.463,172.168 38.869,171.58 Q38.276,170.992 38.276,169.764 L38.276,162.624 L36.775,162.624 Q36.659,162.624 36.586,162.561 Q36.512,162.497 36.512,162.382 L36.512,161.993 L38.297,161.867 L38.549,158.13 Q38.56,158.035 38.628,157.962 Q38.696,157.888 38.812,157.888 L39.284,157.888 L39.284,161.878 L42.57,161.878 L42.57,162.624 L39.284,162.624 L39.284,169.711 Q39.284,170.141 39.394,170.451 Q39.505,170.761 39.699,170.96 Q39.893,171.16 40.156,171.255 Q40.418,171.349 40.722,171.349 Q41.101,171.349 41.374,171.239 Q41.646,171.128 41.846,170.997 Q42.046,170.866 42.172,170.756 Q42.298,170.645 42.371,170.645 Q42.455,170.645 42.539,170.751 L42.812,171.191 Q42.413,171.633 41.799,171.9 Q41.185,172.168 40.523,172.168 z" fill="#585858"/>
    <path d="M51.821,172 Q51.506,172 51.433,171.706 L51.285,170.372 Q50.855,170.793 50.43,171.129 Q50.005,171.465 49.542,171.696 Q49.081,171.926 48.545,172.047 Q48.01,172.168 47.369,172.168 Q46.833,172.168 46.33,172.01 Q45.826,171.853 45.437,171.527 Q45.049,171.202 44.812,170.693 Q44.576,170.184 44.576,169.469 Q44.576,168.808 44.954,168.241 Q45.332,167.674 46.135,167.254 Q46.938,166.834 48.204,166.582 Q49.469,166.33 51.243,166.288 L51.243,165.196 Q51.243,163.747 50.619,162.965 Q49.994,162.183 48.766,162.183 Q48.01,162.183 47.479,162.393 Q46.949,162.603 46.582,162.855 Q46.214,163.107 45.983,163.316 Q45.752,163.527 45.595,163.527 Q45.385,163.527 45.28,163.338 L45.101,163.033 Q45.92,162.214 46.823,161.794 Q47.726,161.374 48.871,161.374 Q49.711,161.374 50.34,161.642 Q50.971,161.91 51.385,162.408 Q51.8,162.907 52.01,163.616 Q52.22,164.325 52.22,165.196 L52.22,172 z M47.621,171.443 Q48.23,171.443 48.739,171.312 Q49.249,171.181 49.684,170.945 Q50.12,170.709 50.498,170.383 Q50.876,170.058 51.243,169.68 L51.243,166.96 Q49.753,167.002 48.676,167.186 Q47.6,167.37 46.902,167.685 Q46.204,167.999 45.873,168.435 Q45.542,168.871 45.542,169.428 Q45.542,169.952 45.715,170.336 Q45.889,170.719 46.172,170.966 Q46.456,171.213 46.833,171.328 Q47.212,171.443 47.621,171.443 z" fill="#585858"/>
    <path d="M55.37,172 L55.37,161.553 L55.916,161.553 Q56.189,161.553 56.231,161.815 L56.326,163.39 Q57.04,162.487 57.99,161.936 Q58.94,161.385 60.106,161.385 Q60.967,161.385 61.623,161.658 Q62.279,161.931 62.71,162.445 Q63.14,162.96 63.361,163.684 Q63.581,164.409 63.581,165.322 L63.581,172 L62.583,172 L62.583,165.322 Q62.583,163.852 61.912,163.017 Q61.24,162.183 59.854,162.183 Q58.825,162.183 57.943,162.713 Q57.061,163.243 56.368,164.167 L56.368,172 z" fill="#585858"/>
    <path d="M74.133,172 Q73.871,172 73.829,171.727 L73.724,170.078 Q73.031,171.023 72.102,171.58 Q71.173,172.136 70.018,172.136 Q68.096,172.136 67.02,170.803 Q65.943,169.469 65.943,166.802 Q65.943,165.658 66.243,164.666 Q66.542,163.673 67.125,162.944 Q67.707,162.214 68.553,161.794 Q69.398,161.374 70.501,161.374 Q71.561,161.374 72.338,161.768 Q73.115,162.161 73.682,162.917 L73.682,156.722 L74.69,156.722 L74.69,172 z M70.301,171.328 Q71.34,171.328 72.181,170.792 Q73.021,170.257 73.682,169.301 L73.682,163.789 Q73.073,162.896 72.343,162.529 Q71.614,162.161 70.689,162.161 Q69.766,162.161 69.073,162.497 Q68.38,162.833 67.912,163.448 Q67.445,164.062 67.209,164.918 Q66.973,165.773 66.973,166.802 Q66.973,169.133 67.834,170.231 Q68.695,171.328 70.301,171.328 z" fill="#585858"/>
    <path d="M84.865,172 Q84.549,172 84.476,171.706 L84.329,170.372 Q83.898,170.793 83.473,171.129 Q83.048,171.465 82.586,171.696 Q82.124,171.926 81.589,172.047 Q81.053,172.168 80.412,172.168 Q79.877,172.168 79.373,172.01 Q78.869,171.853 78.48,171.527 Q78.092,171.202 77.856,170.693 Q77.619,170.184 77.619,169.469 Q77.619,168.808 77.998,168.241 Q78.376,167.674 79.179,167.254 Q79.982,166.834 81.247,166.582 Q82.513,166.33 84.287,166.288 L84.287,165.196 Q84.287,163.747 83.662,162.965 Q83.037,162.183 81.809,162.183 Q81.053,162.183 80.523,162.393 Q79.993,162.603 79.625,162.855 Q79.257,163.107 79.027,163.316 Q78.796,163.527 78.638,163.527 Q78.428,163.527 78.323,163.338 L78.145,163.033 Q78.964,162.214 79.867,161.794 Q80.77,161.374 81.914,161.374 Q82.754,161.374 83.384,161.642 Q84.014,161.91 84.429,162.408 Q84.844,162.907 85.054,163.616 Q85.264,164.325 85.264,165.196 L85.264,172 z M80.665,171.443 Q81.273,171.443 81.783,171.312 Q82.292,171.181 82.728,170.945 Q83.164,170.709 83.542,170.383 Q83.92,170.058 84.287,169.68 L84.287,166.96 Q82.796,167.002 81.72,167.186 Q80.644,167.37 79.945,167.685 Q79.247,167.999 78.916,168.435 Q78.586,168.871 78.586,169.428 Q78.586,169.952 78.759,170.336 Q78.932,170.719 79.215,170.966 Q79.499,171.213 79.877,171.328 Q80.255,171.443 80.665,171.443 z" fill="#585858"/>
    <path d="M88.413,172 L88.413,161.553 L88.938,161.553 Q89.117,161.553 89.196,161.626 Q89.274,161.7 89.285,161.878 L89.369,164.083 Q89.873,162.812 90.713,162.093 Q91.553,161.374 92.781,161.374 Q93.254,161.374 93.653,161.474 Q94.052,161.574 94.409,161.762 L94.272,162.456 Q94.241,162.624 94.062,162.624 Q93.999,162.624 93.884,162.581 Q93.769,162.54 93.595,162.487 Q93.422,162.435 93.17,162.393 Q92.918,162.351 92.592,162.351 Q91.406,162.351 90.645,163.086 Q89.883,163.821 89.411,165.206 L89.411,172 z" fill="#585858"/>
    <path d="M104.153,172 Q103.891,172 103.849,171.727 L103.743,170.078 Q103.05,171.023 102.121,171.58 Q101.192,172.136 100.037,172.136 Q98.116,172.136 97.039,170.803 Q95.963,169.469 95.963,166.802 Q95.963,165.658 96.262,164.666 Q96.562,163.673 97.144,162.944 Q97.727,162.214 98.572,161.794 Q99.418,161.374 100.52,161.374 Q101.58,161.374 102.357,161.768 Q103.134,162.161 103.701,162.917 L103.701,156.722 L104.71,156.722 L104.71,172 z M100.321,171.328 Q101.36,171.328 102.2,170.792 Q103.04,170.257 103.701,169.301 L103.701,163.789 Q103.092,162.896 102.363,162.529 Q101.633,162.161 100.709,162.161 Q99.785,162.161 99.092,162.497 Q98.399,162.833 97.932,163.448 Q97.465,164.062 97.228,164.918 Q96.992,165.773 96.992,166.802 Q96.992,169.133 97.853,170.231 Q98.714,171.328 100.321,171.328 z" fill="#585858"/>
    <path d="M113.561,156.723 L113.561,172 L112.563,172 L112.563,156.723 z" fill="#585858"/>
    <path d="M118.549,161.552 L118.549,172 L117.551,172 L117.551,161.552 z M118.99,157.951 Q118.99,158.14 118.911,158.303 Q118.832,158.465 118.706,158.591 Q118.58,158.717 118.412,158.791 Q118.244,158.865 118.055,158.865 Q117.866,158.865 117.698,158.791 Q117.53,158.717 117.404,158.591 Q117.278,158.465 117.204,158.303 Q117.131,158.14 117.131,157.951 Q117.131,157.762 117.204,157.589 Q117.278,157.415 117.404,157.289 Q117.53,157.163 117.698,157.09 Q117.866,157.016 118.055,157.016 Q118.244,157.016 118.412,157.09 Q118.58,157.163 118.706,157.289 Q118.832,157.415 118.911,157.589 Q118.99,157.762 118.99,157.951 z" fill="#585858"/>
    <path d="M122.35,172 L122.35,156.722 L123.358,156.722 L123.358,163.38 Q124.05,162.455 124.964,161.92 Q125.878,161.384 127.022,161.384 Q128.943,161.384 130.02,162.713 Q131.096,164.041 131.096,166.708 Q131.096,167.852 130.797,168.845 Q130.497,169.837 129.915,170.567 Q129.332,171.296 128.487,171.716 Q127.642,172.136 126.539,172.136 Q125.447,172.136 124.66,171.711 Q123.872,171.286 123.305,170.456 L123.242,171.738 Q123.211,172 122.959,172 z M126.739,162.182 Q125.699,162.182 124.859,162.718 Q124.019,163.253 123.358,164.209 L123.358,169.721 Q123.956,170.624 124.681,170.987 Q125.405,171.349 126.35,171.349 Q127.274,171.349 127.967,171.013 Q128.66,170.677 129.127,170.063 Q129.594,169.449 129.831,168.593 Q130.067,167.737 130.067,166.708 Q130.067,164.377 129.206,163.28 Q128.345,162.182 126.739,162.182 z" fill="#585858"/>
    <path d="M133.71,172 L133.71,161.553 L134.236,161.553 Q134.414,161.553 134.493,161.626 Q134.572,161.7 134.582,161.878 L134.666,164.083 Q135.17,162.812 136.01,162.093 Q136.85,161.374 138.079,161.374 Q138.551,161.374 138.95,161.474 Q139.349,161.574 139.706,161.762 L139.57,162.456 Q139.538,162.624 139.359,162.624 Q139.296,162.624 139.181,162.581 Q139.066,162.54 138.892,162.487 Q138.719,162.435 138.467,162.393 Q138.215,162.351 137.889,162.351 Q136.703,162.351 135.942,163.086 Q135.18,163.821 134.708,165.206 L134.708,172 z" fill="#585858"/>
    <path d="M148.19,172 Q147.875,172 147.801,171.706 L147.654,170.372 Q147.224,170.793 146.799,171.129 Q146.374,171.465 145.911,171.696 Q145.45,171.926 144.914,172.047 Q144.378,172.168 143.738,172.168 Q143.202,172.168 142.699,172.01 Q142.195,171.853 141.806,171.527 Q141.417,171.202 141.181,170.693 Q140.945,170.184 140.945,169.469 Q140.945,168.808 141.323,168.241 Q141.701,167.674 142.504,167.254 Q143.307,166.834 144.573,166.582 Q145.838,166.33 147.613,166.288 L147.613,165.196 Q147.613,163.747 146.988,162.965 Q146.363,162.183 145.135,162.183 Q144.378,162.183 143.848,162.393 Q143.318,162.603 142.951,162.855 Q142.583,163.107 142.352,163.316 Q142.121,163.527 141.964,163.527 Q141.753,163.527 141.648,163.338 L141.47,163.033 Q142.289,162.214 143.192,161.794 Q144.095,161.374 145.24,161.374 Q146.079,161.374 146.71,161.642 Q147.34,161.91 147.754,162.408 Q148.169,162.907 148.379,163.616 Q148.589,164.325 148.589,165.196 L148.589,172 z M143.99,171.443 Q144.599,171.443 145.108,171.312 Q145.618,171.181 146.053,170.945 Q146.489,170.709 146.867,170.383 Q147.245,170.058 147.613,169.68 L147.613,166.96 Q146.122,167.002 145.045,167.186 Q143.969,167.37 143.271,167.685 Q142.572,167.999 142.242,168.435 Q141.911,168.871 141.911,169.428 Q141.911,169.952 142.084,170.336 Q142.258,170.719 142.541,170.966 Q142.825,171.213 143.202,171.328 Q143.581,171.443 143.99,171.443 z" fill="#585858"/>
    <path d="M151.739,172 L151.739,161.553 L152.264,161.553 Q152.442,161.553 152.521,161.626 Q152.6,161.7 152.611,161.878 L152.695,164.083 Q153.199,162.812 154.038,162.093 Q154.878,161.374 156.107,161.374 Q156.579,161.374 156.979,161.474 Q157.378,161.574 157.734,161.762 L157.598,162.456 Q157.566,162.624 157.388,162.624 Q157.325,162.624 157.21,162.581 Q157.094,162.54 156.921,162.487 Q156.747,162.435 156.495,162.393 Q156.243,162.351 155.918,162.351 Q154.731,162.351 153.97,163.086 Q153.209,163.821 152.736,165.206 L152.736,172 z" fill="#585858"/>
    <path d="M162.355,175.36 Q162.292,175.507 162.192,175.602 Q162.092,175.696 161.903,175.696 L161.189,175.696 L163.027,171.611 L158.606,161.552 L159.436,161.552 Q159.593,161.552 159.682,161.631 Q159.771,161.71 159.814,161.805 L163.331,169.932 Q163.394,170.089 163.441,170.252 Q163.489,170.415 163.531,170.583 Q163.583,170.415 163.641,170.252 Q163.699,170.089 163.762,169.932 L167.237,161.805 Q167.29,161.689 167.384,161.621 Q167.479,161.552 167.594,161.552 L168.361,161.552 z" fill="#585858"/>
    <path d="M174.744,172 L174.744,162.645 L173.274,162.55 Q172.97,162.529 172.97,162.288 L172.97,161.878 L174.744,161.878 L174.744,160.555 Q174.744,159.663 174.975,158.985 Q175.206,158.308 175.626,157.857 Q176.046,157.405 176.64,157.179 Q177.233,156.954 177.947,156.954 Q178.272,156.954 178.603,157.011 Q178.934,157.069 179.186,157.174 L179.154,157.657 Q179.144,157.804 178.955,157.804 Q178.829,157.804 178.614,157.773 Q178.398,157.741 178.083,157.741 Q177.569,157.741 177.133,157.893 Q176.697,158.046 176.382,158.382 Q176.067,158.717 175.894,159.258 Q175.721,159.799 175.721,160.587 L175.721,161.878 L179.112,161.878 L179.112,162.624 L175.742,162.624 L175.742,172 z" fill="#585858"/>
    <path d="M185.097,161.385 Q186.221,161.385 187.108,161.768 Q187.995,162.151 188.604,162.855 Q189.214,163.558 189.534,164.55 Q189.854,165.542 189.854,166.771 Q189.854,167.999 189.534,168.986 Q189.214,169.973 188.604,170.677 Q187.995,171.381 187.108,171.758 Q186.221,172.137 185.097,172.137 Q183.974,172.137 183.087,171.758 Q182.199,171.381 181.585,170.677 Q180.971,169.973 180.651,168.986 Q180.33,167.999 180.33,166.771 Q180.33,165.542 180.651,164.55 Q180.971,163.558 181.585,162.855 Q182.199,162.151 183.087,161.768 Q183.974,161.385 185.097,161.385 z M185.097,171.349 Q186.032,171.349 186.73,171.029 Q187.428,170.708 187.896,170.11 Q188.363,169.512 188.594,168.666 Q188.825,167.821 188.825,166.771 Q188.825,165.732 188.594,164.881 Q188.363,164.031 187.896,163.427 Q187.428,162.823 186.73,162.497 Q186.032,162.172 185.097,162.172 Q184.163,162.172 183.465,162.497 Q182.766,162.823 182.299,163.427 Q181.832,164.031 181.596,164.881 Q181.359,165.732 181.359,166.771 Q181.359,167.821 181.596,168.666 Q181.832,169.512 182.299,170.11 Q182.766,170.708 183.465,171.029 Q184.163,171.349 185.097,171.349 z" fill="#585858"/>
    <path d="M192.479,172 L192.479,161.553 L193.004,161.553 Q193.183,161.553 193.261,161.626 Q193.34,161.7 193.351,161.878 L193.435,164.083 Q193.939,162.812 194.779,162.093 Q195.618,161.374 196.847,161.374 Q197.32,161.374 197.719,161.474 Q198.118,161.574 198.475,161.762 L198.338,162.456 Q198.307,162.624 198.128,162.624 Q198.065,162.624 197.95,162.581 Q197.834,162.54 197.661,162.487 Q197.488,162.435 197.236,162.393 Q196.984,162.351 196.658,162.351 Q195.472,162.351 194.71,163.086 Q193.949,163.821 193.477,165.206 L193.477,172 z" fill="#585858"/>
    <path d="M206.161,161.553 L206.161,173.334 Q206.161,173.88 206.003,174.342 Q205.846,174.803 205.536,175.145 Q205.226,175.486 204.759,175.68 Q204.292,175.875 203.661,175.875 Q203.357,175.875 203.116,175.822 Q202.874,175.77 202.643,175.654 L202.695,175.15 Q202.706,175.024 202.842,175.024 Q202.926,175.024 203.079,175.066 Q203.231,175.108 203.493,175.108 Q204.344,175.108 204.753,174.646 Q205.163,174.184 205.163,173.334 L205.163,161.553 z M206.602,157.951 Q206.602,158.14 206.523,158.303 Q206.444,158.465 206.318,158.592 Q206.192,158.717 206.024,158.791 Q205.856,158.865 205.667,158.865 Q205.478,158.865 205.31,158.791 Q205.142,158.717 205.016,158.592 Q204.89,158.465 204.816,158.303 Q204.743,158.14 204.743,157.951 Q204.743,157.762 204.816,157.589 Q204.89,157.415 205.016,157.29 Q205.142,157.163 205.31,157.09 Q205.478,157.017 205.667,157.017 Q205.856,157.017 206.024,157.09 Q206.192,157.163 206.318,157.29 Q206.444,157.415 206.523,157.589 Q206.602,157.762 206.602,157.951 z" fill="#585858"/>
    <path d="M216.482,172 Q216.167,172 216.093,171.706 L215.946,170.372 Q215.516,170.793 215.091,171.129 Q214.665,171.465 214.203,171.696 Q213.742,171.926 213.206,172.047 Q212.671,172.168 212.03,172.168 Q211.494,172.168 210.99,172.01 Q210.486,171.853 210.098,171.527 Q209.709,171.202 209.473,170.693 Q209.237,170.184 209.237,169.469 Q209.237,168.808 209.615,168.241 Q209.993,167.674 210.796,167.254 Q211.599,166.834 212.865,166.582 Q214.13,166.33 215.904,166.288 L215.904,165.196 Q215.904,163.747 215.28,162.965 Q214.655,162.183 213.426,162.183 Q212.671,162.183 212.14,162.393 Q211.61,162.603 211.242,162.855 Q210.875,163.107 210.644,163.316 Q210.413,163.527 210.255,163.527 Q210.046,163.527 209.94,163.338 L209.762,163.033 Q210.581,162.214 211.484,161.794 Q212.387,161.374 213.531,161.374 Q214.371,161.374 215.001,161.642 Q215.632,161.91 216.046,162.408 Q216.461,162.907 216.671,163.616 Q216.881,164.325 216.881,165.196 L216.881,172 z M212.282,171.443 Q212.891,171.443 213.4,171.312 Q213.91,171.181 214.345,170.945 Q214.781,170.709 215.159,170.383 Q215.537,170.058 215.904,169.68 L215.904,166.96 Q214.413,167.002 213.337,167.186 Q212.261,167.37 211.563,167.685 Q210.864,167.999 210.534,168.435 Q210.203,168.871 210.203,169.428 Q210.203,169.952 210.376,170.336 Q210.549,170.719 210.833,170.966 Q211.117,171.213 211.494,171.328 Q211.872,171.443 212.282,171.443 z" fill="#585858"/>
    <path d="M223.622,172 L222.74,172 L218.33,161.553 L219.117,161.553 Q219.264,161.553 219.354,161.631 Q219.443,161.71 219.485,161.805 L222.929,170.047 Q223.034,170.288 223.087,170.509 Q223.139,170.73 223.191,170.95 Q223.244,170.73 223.302,170.504 Q223.359,170.278 223.454,170.047 L226.919,161.805 Q226.971,161.689 227.061,161.621 Q227.15,161.553 227.276,161.553 L228.032,161.553 z" fill="#585858"/>
    <path d="M236.663,172 Q236.348,172 236.274,171.706 L236.127,170.372 Q235.697,170.793 235.272,171.129 Q234.846,171.465 234.384,171.696 Q233.923,171.926 233.387,172.047 Q232.852,172.168 232.211,172.168 Q231.675,172.168 231.171,172.01 Q230.667,171.853 230.279,171.527 Q229.89,171.202 229.654,170.693 Q229.418,170.184 229.418,169.469 Q229.418,168.808 229.796,168.241 Q230.174,167.674 230.977,167.254 Q231.78,166.834 233.046,166.582 Q234.311,166.33 236.085,166.288 L236.085,165.196 Q236.085,163.747 235.461,162.965 Q234.836,162.183 233.607,162.183 Q232.852,162.183 232.321,162.393 Q231.791,162.603 231.423,162.855 Q231.056,163.107 230.825,163.316 Q230.594,163.527 230.436,163.527 Q230.227,163.527 230.121,163.338 L229.943,163.033 Q230.762,162.214 231.665,161.794 Q232.568,161.374 233.712,161.374 Q234.552,161.374 235.182,161.642 Q235.812,161.91 236.227,162.408 Q236.642,162.907 236.852,163.616 Q237.062,164.325 237.062,165.196 L237.062,172 z M232.463,171.443 Q233.072,171.443 233.581,171.312 Q234.09,171.181 234.526,170.945 Q234.962,170.709 235.34,170.383 Q235.718,170.058 236.085,169.68 L236.085,166.96 Q234.594,167.002 233.518,167.186 Q232.442,167.37 231.744,167.685 Q231.046,167.999 230.715,168.435 Q230.384,168.871 230.384,169.428 Q230.384,169.952 230.557,170.336 Q230.73,170.719 231.014,170.966 Q231.298,171.213 231.675,171.328 Q232.053,171.443 232.463,171.443 z" fill="#585858"/>
    <path d="M245.966,162.844 Q245.893,162.991 245.735,162.991 Q245.62,162.991 245.436,162.86 Q245.252,162.729 244.953,162.566 Q244.654,162.403 244.218,162.272 Q243.782,162.141 243.152,162.141 Q242.585,162.141 242.118,162.303 Q241.65,162.466 241.32,162.739 Q240.989,163.012 240.805,163.374 Q240.622,163.737 240.622,164.135 Q240.622,164.629 240.874,164.954 Q241.126,165.28 241.535,165.511 Q241.945,165.742 242.464,165.91 Q242.984,166.078 243.53,166.246 Q244.076,166.414 244.596,166.619 Q245.116,166.824 245.525,167.128 Q245.935,167.433 246.187,167.874 Q246.439,168.314 246.439,168.945 Q246.439,169.627 246.192,170.215 Q245.945,170.803 245.478,171.234 Q245.01,171.664 244.328,171.916 Q243.646,172.168 242.774,172.168 Q241.672,172.168 240.874,171.816 Q240.076,171.465 239.446,170.898 L239.687,170.541 Q239.74,170.457 239.803,170.415 Q239.866,170.372 239.981,170.372 Q240.118,170.372 240.317,170.541 Q240.517,170.709 240.837,170.903 Q241.157,171.097 241.635,171.265 Q242.113,171.433 242.816,171.433 Q243.478,171.433 243.982,171.249 Q244.486,171.066 244.822,170.751 Q245.158,170.436 245.331,170.01 Q245.504,169.585 245.504,169.113 Q245.504,168.588 245.252,168.241 Q245,167.895 244.59,167.653 Q244.181,167.411 243.661,167.243 Q243.142,167.076 242.59,166.908 Q242.039,166.74 241.519,166.54 Q241,166.34 240.59,166.036 Q240.181,165.732 239.928,165.296 Q239.676,164.86 239.676,164.209 Q239.676,163.653 239.918,163.138 Q240.16,162.624 240.606,162.235 Q241.052,161.847 241.693,161.616 Q242.333,161.385 243.131,161.385 Q244.087,161.385 244.827,161.658 Q245.567,161.931 246.187,162.497 z" fill="#585858"/>
    <path d="M256.12,162.949 Q256.067,163.001 256.02,163.038 Q255.973,163.075 255.889,163.075 Q255.784,163.075 255.6,162.933 Q255.416,162.792 255.112,162.624 Q254.807,162.456 254.35,162.314 Q253.894,162.172 253.243,162.172 Q252.34,162.172 251.641,162.492 Q250.943,162.812 250.465,163.411 Q249.988,164.01 249.736,164.86 Q249.484,165.71 249.484,166.771 Q249.484,167.874 249.741,168.724 Q249.998,169.575 250.471,170.157 Q250.943,170.74 251.615,171.044 Q252.287,171.349 253.106,171.349 Q253.862,171.349 254.371,171.171 Q254.881,170.992 255.211,170.782 Q255.542,170.572 255.736,170.394 Q255.931,170.215 256.046,170.215 Q256.182,170.215 256.256,170.32 L256.529,170.656 Q256.288,170.971 255.92,171.244 Q255.553,171.517 255.09,171.717 Q254.629,171.916 254.088,172.026 Q253.547,172.137 252.959,172.137 Q251.962,172.137 251.137,171.774 Q250.313,171.412 249.72,170.724 Q249.127,170.036 248.796,169.039 Q248.465,168.042 248.465,166.771 Q248.465,165.574 248.78,164.587 Q249.095,163.6 249.699,162.886 Q250.303,162.172 251.179,161.778 Q252.056,161.385 253.19,161.385 Q254.209,161.385 255.001,161.71 Q255.794,162.036 256.382,162.592 z" fill="#585858"/>
    <path d="M258.797,172 L258.797,161.553 L259.322,161.553 Q259.5,161.553 259.579,161.626 Q259.658,161.7 259.668,161.878 L259.753,164.083 Q260.257,162.812 261.096,162.093 Q261.936,161.374 263.165,161.374 Q263.638,161.374 264.036,161.474 Q264.435,161.574 264.793,161.762 L264.656,162.456 Q264.625,162.624 264.446,162.624 Q264.383,162.624 264.267,162.581 Q264.152,162.54 263.979,162.487 Q263.806,162.435 263.553,162.393 Q263.302,162.351 262.976,162.351 Q261.789,162.351 261.028,163.086 Q260.267,163.821 259.794,165.206 L259.794,172 z" fill="#585858"/>
    <path d="M268.426,161.552 L268.426,172 L267.428,172 L267.428,161.552 z M268.866,157.951 Q268.866,158.14 268.788,158.303 Q268.709,158.465 268.583,158.591 Q268.457,158.717 268.289,158.791 Q268.121,158.865 267.932,158.865 Q267.743,158.865 267.575,158.791 Q267.407,158.717 267.281,158.591 Q267.155,158.465 267.081,158.303 Q267.008,158.14 267.008,157.951 Q267.008,157.762 267.081,157.589 Q267.155,157.415 267.281,157.289 Q267.407,157.163 267.575,157.09 Q267.743,157.016 267.932,157.016 Q268.121,157.016 268.289,157.09 Q268.457,157.163 268.583,157.289 Q268.709,157.415 268.788,157.589 Q268.866,157.762 268.866,157.951 z" fill="#585858"/>
    <path d="M272.121,175.696 L272.121,161.552 L272.668,161.552 Q272.804,161.552 272.888,161.61 Q272.972,161.668 272.982,161.815 L273.077,163.432 Q273.77,162.487 274.699,161.93 Q275.629,161.374 276.784,161.374 Q278.715,161.374 279.786,162.707 Q280.857,164.041 280.857,166.708 Q280.857,167.852 280.558,168.845 Q280.259,169.837 279.681,170.567 Q279.104,171.296 278.259,171.716 Q277.414,172.136 276.311,172.136 Q275.24,172.136 274.463,171.748 Q273.686,171.359 273.119,170.593 L273.119,175.696 z M276.5,162.182 Q275.461,162.182 274.615,162.723 Q273.77,163.264 273.119,164.23 L273.119,169.711 Q273.717,170.614 274.447,170.981 Q275.177,171.349 276.112,171.349 Q277.035,171.349 277.728,171.013 Q278.422,170.677 278.889,170.063 Q279.356,169.449 279.592,168.593 Q279.828,167.737 279.828,166.708 Q279.828,164.377 278.973,163.28 Q278.117,162.182 276.5,162.182 z" fill="#585858"/>
    <path d="M286.212,172.168 Q285.152,172.168 284.559,171.58 Q283.965,170.992 283.965,169.764 L283.965,162.624 L282.464,162.624 Q282.349,162.624 282.275,162.561 Q282.202,162.497 282.202,162.382 L282.202,161.993 L283.987,161.867 L284.238,158.13 Q284.249,158.035 284.317,157.962 Q284.385,157.888 284.501,157.888 L284.974,157.888 L284.974,161.878 L288.26,161.878 L288.26,162.624 L284.974,162.624 L284.974,169.711 Q284.974,170.141 285.084,170.451 Q285.194,170.761 285.388,170.96 Q285.582,171.16 285.845,171.255 Q286.108,171.349 286.412,171.349 Q286.79,171.349 287.063,171.239 Q287.336,171.128 287.535,170.997 Q287.735,170.866 287.861,170.756 Q287.987,170.645 288.06,170.645 Q288.145,170.645 288.228,170.751 L288.501,171.191 Q288.103,171.633 287.488,171.9 Q286.874,172.168 286.212,172.168 z" fill="#585858"/>
    <path d="M301.564,172 Q301.249,172 301.175,171.706 L301.028,170.372 Q300.598,170.793 300.172,171.129 Q299.747,171.465 299.285,171.696 Q298.823,171.926 298.288,172.047 Q297.752,172.168 297.112,172.168 Q296.576,172.168 296.072,172.01 Q295.568,171.853 295.18,171.527 Q294.791,171.202 294.555,170.693 Q294.319,170.184 294.319,169.469 Q294.319,168.808 294.697,168.241 Q295.074,167.674 295.878,167.254 Q296.681,166.834 297.946,166.582 Q299.211,166.33 300.986,166.288 L300.986,165.196 Q300.986,163.747 300.361,162.965 Q299.737,162.183 298.508,162.183 Q297.752,162.183 297.222,162.393 Q296.691,162.603 296.324,162.855 Q295.956,163.107 295.725,163.316 Q295.495,163.527 295.337,163.527 Q295.127,163.527 295.022,163.338 L294.844,163.033 Q295.663,162.214 296.565,161.794 Q297.469,161.374 298.613,161.374 Q299.453,161.374 300.083,161.642 Q300.713,161.91 301.128,162.408 Q301.543,162.907 301.753,163.616 Q301.962,164.325 301.962,165.196 L301.962,172 z M297.363,171.443 Q297.973,171.443 298.482,171.312 Q298.991,171.181 299.427,170.945 Q299.862,170.709 300.241,170.383 Q300.618,170.058 300.986,169.68 L300.986,166.96 Q299.495,167.002 298.419,167.186 Q297.342,167.37 296.644,167.685 Q295.946,167.999 295.615,168.435 Q295.284,168.871 295.284,169.428 Q295.284,169.952 295.458,170.336 Q295.631,170.719 295.914,170.966 Q296.198,171.213 296.576,171.328 Q296.954,171.443 297.363,171.443 z" fill="#585858"/>
    <path d="M305.113,172 L305.113,161.553 L305.659,161.553 Q305.932,161.553 305.974,161.815 L306.068,163.39 Q306.782,162.487 307.732,161.936 Q308.683,161.385 309.848,161.385 Q310.709,161.385 311.365,161.658 Q312.022,161.931 312.452,162.445 Q312.883,162.96 313.103,163.684 Q313.324,164.409 313.324,165.322 L313.324,172 L312.326,172 L312.326,165.322 Q312.326,163.852 311.654,163.017 Q310.982,162.183 309.596,162.183 Q308.567,162.183 307.685,162.713 Q306.803,163.243 306.11,164.167 L306.11,172 z" fill="#585858"/>
    <path d="M323.876,172 Q323.613,172 323.571,171.727 L323.466,170.078 Q322.773,171.023 321.844,171.58 Q320.915,172.136 319.76,172.136 Q317.838,172.136 316.762,170.803 Q315.686,169.469 315.686,166.802 Q315.686,165.658 315.985,164.666 Q316.284,163.673 316.867,162.944 Q317.45,162.214 318.295,161.794 Q319.14,161.374 320.243,161.374 Q321.303,161.374 322.08,161.768 Q322.857,162.161 323.424,162.917 L323.424,156.722 L324.432,156.722 L324.432,172 z M320.043,171.328 Q321.083,171.328 321.923,170.792 Q322.763,170.257 323.424,169.301 L323.424,163.789 Q322.815,162.896 322.086,162.529 Q321.356,162.161 320.432,162.161 Q319.508,162.161 318.815,162.497 Q318.122,162.833 317.655,163.448 Q317.188,164.062 316.951,164.918 Q316.715,165.773 316.715,166.802 Q316.715,169.133 317.576,170.231 Q318.437,171.328 320.043,171.328 z" fill="#585858"/>
    <path d="M331.993,172 L331.993,161.553 L332.539,161.553 Q332.811,161.553 332.854,161.815 L332.948,163.39 Q333.662,162.487 334.612,161.936 Q335.562,161.385 336.728,161.385 Q337.589,161.385 338.245,161.658 Q338.902,161.931 339.332,162.445 Q339.763,162.96 339.983,163.684 Q340.204,164.409 340.204,165.322 L340.204,172 L339.206,172 L339.206,165.322 Q339.206,163.852 338.534,163.017 Q337.862,162.183 336.476,162.183 Q335.447,162.183 334.565,162.713 Q333.683,163.243 332.99,164.167 L332.99,172 z" fill="#585858"/>
    <path d="M347.333,161.385 Q348.456,161.385 349.344,161.768 Q350.231,162.151 350.84,162.855 Q351.449,163.558 351.769,164.55 Q352.089,165.542 352.089,166.771 Q352.089,167.999 351.769,168.986 Q351.449,169.973 350.84,170.677 Q350.231,171.381 349.344,171.758 Q348.456,172.137 347.333,172.137 Q346.21,172.137 345.322,171.758 Q344.435,171.381 343.821,170.677 Q343.206,169.973 342.886,168.986 Q342.566,167.999 342.566,166.771 Q342.566,165.542 342.886,164.55 Q343.206,163.558 343.821,162.855 Q344.435,162.151 345.322,161.768 Q346.21,161.385 347.333,161.385 z M347.333,171.349 Q348.267,171.349 348.966,171.029 Q349.664,170.708 350.131,170.11 Q350.598,169.512 350.829,168.666 Q351.06,167.821 351.06,166.771 Q351.06,165.732 350.829,164.881 Q350.598,164.031 350.131,163.427 Q349.664,162.823 348.966,162.497 Q348.267,162.172 347.333,162.172 Q346.398,162.172 345.7,162.497 Q345.002,162.823 344.535,163.427 Q344.068,164.031 343.831,164.881 Q343.595,165.732 343.595,166.771 Q343.595,167.821 343.831,168.666 Q344.068,169.512 344.535,170.11 Q345.002,170.708 345.7,171.029 Q346.398,171.349 347.333,171.349 z" fill="#585858"/>
    <path d="M362.117,172 Q361.854,172 361.812,171.727 L361.707,170.078 Q361.014,171.023 360.085,171.58 Q359.156,172.136 358.001,172.136 Q356.079,172.136 355.003,170.803 Q353.927,169.469 353.927,166.802 Q353.927,165.658 354.226,164.666 Q354.525,163.673 355.108,162.944 Q355.691,162.214 356.536,161.794 Q357.382,161.374 358.484,161.374 Q359.544,161.374 360.322,161.768 Q361.098,162.161 361.665,162.917 L361.665,156.722 L362.673,156.722 L362.673,172 z M358.284,171.328 Q359.324,171.328 360.164,170.792 Q361.004,170.257 361.665,169.301 L361.665,163.789 Q361.056,162.896 360.327,162.529 Q359.597,162.161 358.673,162.161 Q357.749,162.161 357.056,162.497 Q356.363,162.833 355.896,163.448 Q355.428,164.062 355.192,164.918 Q354.956,165.773 354.956,166.802 Q354.956,169.133 355.817,170.231 Q356.678,171.328 358.284,171.328 z" fill="#585858"/>
    <path d="M370.118,161.385 Q371,161.385 371.751,161.689 Q372.501,161.993 373.053,162.576 Q373.604,163.159 373.914,164.01 Q374.223,164.86 374.223,165.963 Q374.223,166.193 374.155,166.277 Q374.087,166.361 373.94,166.361 L366.391,166.361 L366.391,166.561 Q366.391,167.737 366.663,168.63 Q366.936,169.522 367.44,170.126 Q367.944,170.73 368.658,171.034 Q369.372,171.339 370.254,171.339 Q371.042,171.339 371.62,171.165 Q372.197,170.992 372.591,170.777 Q372.984,170.562 373.215,170.388 Q373.447,170.215 373.551,170.215 Q373.688,170.215 373.762,170.32 L374.034,170.656 Q373.783,170.971 373.368,171.244 Q372.953,171.517 372.444,171.711 Q371.934,171.906 371.352,172.021 Q370.769,172.137 370.181,172.137 Q369.11,172.137 368.228,171.764 Q367.346,171.391 366.716,170.677 Q366.086,169.963 365.745,168.929 Q365.404,167.895 365.404,166.561 Q365.404,165.438 365.724,164.487 Q366.044,163.537 366.648,162.849 Q367.251,162.161 368.128,161.773 Q369.005,161.385 370.118,161.385 z M370.128,162.13 Q369.32,162.13 368.68,162.382 Q368.039,162.634 367.572,163.107 Q367.104,163.579 366.816,164.241 Q366.527,164.902 366.432,165.721 L373.32,165.721 Q373.32,164.881 373.09,164.214 Q372.858,163.548 372.439,163.085 Q372.018,162.624 371.43,162.377 Q370.842,162.13 370.128,162.13 z" fill="#585858"/>
    <path d="M376.313,171.191 Q376.313,170.992 376.387,170.814 Q376.46,170.635 376.591,170.504 Q376.723,170.372 376.896,170.294 Q377.069,170.215 377.279,170.215 Q377.479,170.215 377.657,170.294 Q377.836,170.372 377.967,170.504 Q378.098,170.635 378.177,170.814 Q378.256,170.992 378.256,171.191 Q378.256,171.402 378.177,171.575 Q378.098,171.748 377.967,171.879 Q377.836,172.01 377.657,172.084 Q377.479,172.158 377.279,172.158 Q376.87,172.158 376.591,171.879 Q376.313,171.601 376.313,171.191 z" fill="#585858"/>
    <path d="M382.35,161.553 L382.35,173.334 Q382.35,173.88 382.193,174.342 Q382.035,174.803 381.726,175.145 Q381.416,175.486 380.949,175.68 Q380.482,175.875 379.852,175.875 Q379.547,175.875 379.306,175.822 Q379.064,175.77 378.833,175.654 L378.885,175.15 Q378.896,175.024 379.033,175.024 Q379.116,175.024 379.269,175.066 Q379.421,175.108 379.684,175.108 Q380.534,175.108 380.944,174.646 Q381.353,174.184 381.353,173.334 L381.353,161.553 z M382.792,157.951 Q382.792,158.14 382.713,158.303 Q382.634,158.465 382.508,158.592 Q382.382,158.717 382.214,158.791 Q382.046,158.865 381.857,158.865 Q381.668,158.865 381.5,158.791 Q381.332,158.717 381.206,158.592 Q381.08,158.465 381.007,158.303 Q380.933,158.14 380.933,157.951 Q380.933,157.762 381.007,157.589 Q381.08,157.415 381.206,157.29 Q381.332,157.163 381.5,157.09 Q381.668,157.017 381.857,157.017 Q382.046,157.017 382.214,157.09 Q382.382,157.163 382.508,157.29 Q382.634,157.415 382.713,157.589 Q382.792,157.762 382.792,157.951 z" fill="#585858"/>
    <path d="M391.758,162.844 Q391.685,162.991 391.527,162.991 Q391.412,162.991 391.228,162.86 Q391.044,162.729 390.745,162.566 Q390.446,162.403 390.01,162.272 Q389.574,162.141 388.944,162.141 Q388.378,162.141 387.91,162.303 Q387.443,162.466 387.112,162.739 Q386.781,163.012 386.598,163.374 Q386.414,163.737 386.414,164.135 Q386.414,164.629 386.666,164.954 Q386.918,165.28 387.327,165.511 Q387.737,165.742 388.257,165.91 Q388.776,166.078 389.322,166.246 Q389.868,166.414 390.388,166.619 Q390.908,166.824 391.318,167.128 Q391.727,167.433 391.979,167.874 Q392.231,168.314 392.231,168.945 Q392.231,169.627 391.984,170.215 Q391.737,170.803 391.27,171.234 Q390.803,171.664 390.12,171.916 Q389.438,172.168 388.566,172.168 Q387.464,172.168 386.666,171.816 Q385.868,171.465 385.238,170.898 L385.479,170.541 Q385.532,170.457 385.595,170.415 Q385.658,170.372 385.773,170.372 Q385.91,170.372 386.109,170.541 Q386.309,170.709 386.629,170.903 Q386.949,171.097 387.427,171.265 Q387.905,171.433 388.608,171.433 Q389.27,171.433 389.774,171.249 Q390.278,171.066 390.614,170.751 Q390.95,170.436 391.123,170.01 Q391.297,169.585 391.297,169.113 Q391.297,168.588 391.044,168.241 Q390.792,167.895 390.383,167.653 Q389.973,167.411 389.454,167.243 Q388.934,167.076 388.383,166.908 Q387.831,166.74 387.312,166.54 Q386.792,166.34 386.383,166.036 Q385.973,165.732 385.721,165.296 Q385.469,164.86 385.469,164.209 Q385.469,163.653 385.71,163.138 Q385.952,162.624 386.398,162.235 Q386.844,161.847 387.485,161.616 Q388.125,161.385 388.923,161.385 Q389.879,161.385 390.619,161.658 Q391.359,161.931 391.979,162.497 z" fill="#585858"/>
  </g>
</svg>
