<svg version="1.1" xmlns="http://www.w3.org/2000/svg" xmlns:xlink="http://www.w3.org/1999/xlink" x="0" y="0" width="100" height="40" viewBox="0, 0, 100, 40">
  <defs>
    <linearGradient id="Gradient_1" gradientUnits="userSpaceOnUse" x1="30.145" y1="23.745" x2="46.536" y2="14.279" gradientTransform="matrix(0.5, 0, 0, 0.5, 0, 0)">
      <stop offset="0" stop-color="#A4681D"/>
      <stop offset="0.31" stop-color="#E18F2F"/>
      <stop offset="0.679" stop-color="#E99F37"/>
      <stop offset="1" stop-color="#F0AD3E"/>
    </linearGradient>
    <linearGradient id="Gradient_2" gradientUnits="userSpaceOnUse" x1="38.896" y1="67.222" x2="63.387" y2="53.081" gradientTransform="matrix(0.5, 0, 0, 0.5, 0, 0)">
      <stop offset="0" stop-color="#F0AD3E"/>
      <stop offset="0.69" stop-color="#E18F2F"/>
      <stop offset="1" stop-color="#A4681D"/>
    </linearGradient>
    <linearGradient id="Gradient_3" gradientUnits="userSpaceOnUse" x1="19.89" y1="36.15" x2="64.252" y2="36.15" gradientTransform="matrix(0.5, 0, 0, 0.5, 0, 0)">
      <stop offset="0" stop-color="#006991"/>
      <stop offset="0.25" stop-color="#008BBF"/>
      <stop offset="0.62" stop-color="#008BBF"/>
      <stop offset="1" stop-color="#00AEEF"/>
    </linearGradient>
  </defs>
  <g id="logo">
    <g>
      <path d="M46.14,25.157 Q44.979,26.098 43.165,26.098 Q41.942,26.098 40.623,25.664 Q39.305,25.23 38.292,24.444 L39.432,22.645 Q41.393,24.092 43.229,24.092 Q44.03,24.092 44.494,23.73 Q44.958,23.369 44.958,22.81 Q44.958,21.983 42.722,21.321 Q42.554,21.259 42.469,21.238 Q38.967,20.308 38.967,18.136 Q38.967,16.606 40.18,15.685 Q41.393,14.765 43.334,14.765 Q45.275,14.765 47.005,15.882 L46.119,17.598 Q44.747,16.709 43.144,16.709 Q42.3,16.709 41.773,17.009 Q41.246,17.309 41.246,17.909 Q41.246,18.446 41.794,18.695 Q42.174,18.881 42.859,19.046 Q43.545,19.212 44.072,19.377 Q44.6,19.543 45.096,19.749 Q45.591,19.956 46.161,20.328 Q47.3,21.073 47.3,22.645 Q47.3,24.216 46.14,25.157 z" fill="#E99F37"/>
      <path d="M52.391,16.792 L52.391,22.376 Q52.391,23.162 52.813,23.627 Q53.235,24.092 53.994,24.092 Q54.753,24.092 55.45,23.369 L56.42,25.002 Q55.175,26.098 53.667,26.098 Q52.159,26.098 51.093,25.075 Q50.028,24.051 50.028,22.314 L50.028,16.792 L48.615,16.792 L48.615,14.931 L50.028,14.931 L50.028,11.477 L52.391,11.477 L52.391,14.931 L55.344,14.931 L55.344,16.792 z" fill="#E99F37"/>
      <path d="M58.411,24.527 Q56.829,22.955 56.829,20.39 Q56.829,17.826 58.453,16.296 Q60.077,14.765 62.324,14.765 Q64.57,14.765 65.942,16.626 L65.942,10.588 L68.304,10.588 L68.304,25.933 L65.942,25.933 L65.942,24.279 Q64.634,26.098 62.123,26.098 Q59.993,26.098 58.411,24.527 z M60.225,23.058 Q61.258,24.051 62.651,24.051 Q64.043,24.051 65.013,23.048 Q65.984,22.045 65.984,20.473 Q65.984,18.901 65.013,17.847 Q64.043,16.792 62.63,16.792 Q61.216,16.792 60.204,17.847 Q59.191,18.901 59.191,20.484 Q59.191,22.066 60.225,23.058 z" fill="#E99F37"/>
      <path d="M73.585,25.933 L71.222,25.933 L71.222,10.588 L73.585,10.588 z" fill="#009CD7"/>
      <path d="M78.884,25.933 L76.521,25.933 L76.521,14.931 L78.884,14.931 z M76.226,11.704 Q76.226,11.105 76.669,10.67 Q77.112,10.236 77.724,10.236 Q78.335,10.236 78.778,10.67 Q79.221,11.105 79.221,11.704 Q79.221,12.304 78.778,12.738 Q78.335,13.173 77.724,13.173 Q77.112,13.173 76.669,12.738 Q76.226,12.304 76.226,11.704 z" fill="#009CD7"/>
      <path d="M91.7,16.296 Q93.303,17.826 93.303,20.37 Q93.303,22.914 91.711,24.506 Q90.118,26.098 87.998,26.098 Q85.878,26.098 84.19,24.279 L84.19,25.933 L81.828,25.933 L81.828,10.588 L84.19,10.588 L84.19,16.854 Q85.583,14.765 87.84,14.765 Q90.097,14.765 91.7,16.296 z M85.119,23.027 Q86.089,24.03 87.481,24.03 Q88.873,24.03 89.907,23.038 Q90.941,22.045 90.941,20.463 Q90.941,18.881 89.928,17.836 Q88.916,16.792 87.502,16.792 Q86.089,16.792 85.119,17.836 Q84.148,18.881 84.148,20.452 Q84.148,22.024 85.119,23.027 z" fill="#009CD7"/>
    </g>
    <path d="M21.163,3.495 L16.098,6.407 C15.452,6.785 14.896,7.296 14.465,7.907 C13.845,8.771 13.845,9.934 14.465,10.797 C14.898,11.401 15.455,11.906 16.098,12.277 L19.458,14.218 C19.297,14.1 19.148,13.968 19.013,13.822 C17.86,12.577 17.935,10.633 19.18,9.48 C21.04,8.242 21.92,5.587 21.163,3.495 z" fill="url(#Gradient_1)"/>
    <path d="M30.863,25.888 L28.413,24.473 C29.124,24.873 29.556,25.631 29.538,26.447 C29.52,27.262 29.054,28.001 28.326,28.368 L23.083,31.408 C21.926,32.039 21.194,33.239 21.163,34.556 L21.163,36.593 L30.968,30.933 C31.837,30.381 32.355,29.415 32.333,28.386 C32.312,27.357 31.755,26.414 30.863,25.898 z" fill="url(#Gradient_2)"/>
    <path d="M11.735,27.063 C10.613,26.369 9.935,25.139 9.946,23.82 C9.956,22.501 10.653,21.282 11.785,20.605 L8.142,22.7 C7.003,23.357 6.301,24.572 6.301,25.887 C6.301,27.201 7.003,28.417 8.142,29.073 L11.347,30.923 L21.163,36.583 L21.163,34.546 C21.128,33.233 20.396,32.037 19.243,31.408 L13.993,28.381 C13.919,28.343 13.847,28.301 13.778,28.256 z" fill="#00AEEF"/>
    <path d="M25.578,17.738 L30.286,15.02 C31.424,14.363 32.125,13.148 32.125,11.834 C32.125,10.519 31.424,9.305 30.286,8.647 L29.006,7.897 C29.443,9.078 29.069,10.407 28.078,11.185 L21.163,15.185 L11.785,20.603 C10.653,21.28 9.956,22.498 9.946,23.818 C9.935,25.137 10.613,26.366 11.735,27.061 L13.785,28.243 C13.146,27.826 12.767,27.108 12.783,26.345 C12.8,25.582 13.21,24.881 13.868,24.493 z" fill="url(#Gradient_3)"/>
    <path d="M16.098,12.265 C15.455,11.893 14.898,11.389 14.465,10.785 C13.845,9.921 13.845,8.758 14.465,7.895 C14.897,7.288 15.454,6.781 16.098,6.407 L12.238,8.657 C11.106,9.334 10.408,10.553 10.398,11.872 C10.388,13.191 11.066,14.421 12.188,15.115 L30.863,25.898 C31.755,26.414 32.312,27.357 32.333,28.386 C32.355,29.415 31.837,30.381 30.968,30.933 L34.173,29.083 C35.312,28.426 36.012,27.211 36.012,25.897 C36.012,24.582 35.312,23.368 34.173,22.71 z" fill="#F0AD3E"/>
  </g>
</svg>
