<svg version="1.1" xmlns="http://www.w3.org/2000/svg" xmlns:xlink="http://www.w3.org/1999/xlink" x="0" y="0" width="110.25" height="35" viewBox="0, 0, 315, 100">
  <defs>
    <linearGradient id="Gradient_1" gradientUnits="userSpaceOnUse" x1="26.041" y1="25.718" x2="49.937" y2="11.918">
      <stop offset="0" stop-color="#A4681D"/>
      <stop offset="0.31" stop-color="#E18F2F"/>
      <stop offset="1" stop-color="#F0AD3E"/>
    </linearGradient>
    <linearGradient id="Gradient_2" gradientUnits="userSpaceOnUse" x1="38.798" y1="89.104" x2="74.505" y2="68.488">
      <stop offset="0" stop-color="#F0AD3E"/>
      <stop offset="0.69" stop-color="#E18F2F"/>
      <stop offset="1" stop-color="#A4681D"/>
    </linearGradient>
    <linearGradient id="Gradient_3" gradientUnits="userSpaceOnUse" x1="11.089" y1="43.804" x2="75.766" y2="43.804">
      <stop offset="0" stop-color="#006991"/>
      <stop offset="0.25" stop-color="#008BBF"/>
      <stop offset="0.62" stop-color="#008BBF"/>
      <stop offset="1" stop-color="#00AEEF"/>
    </linearGradient>
    <linearGradient id="Gradient_4" gradientUnits="userSpaceOnUse" x1="26.041" y1="25.718" x2="49.937" y2="11.918">
      <stop offset="0" stop-color="#A4681D"/>
      <stop offset="0.31" stop-color="#E18F2F"/>
      <stop offset="1" stop-color="#F0AD3E"/>
    </linearGradient>
    <linearGradient id="Gradient_5" gradientUnits="userSpaceOnUse" x1="38.798" y1="89.104" x2="74.505" y2="68.488">
      <stop offset="0" stop-color="#F0AD3E"/>
      <stop offset="0.69" stop-color="#E18F2F"/>
      <stop offset="1" stop-color="#A4681D"/>
    </linearGradient>
    <linearGradient id="Gradient_6" gradientUnits="userSpaceOnUse" x1="11.089" y1="43.804" x2="75.766" y2="43.804">
      <stop offset="0" stop-color="#006991"/>
      <stop offset="0.25" stop-color="#008BBF"/>
      <stop offset="0.62" stop-color="#008BBF"/>
      <stop offset="1" stop-color="#00AEEF"/>
    </linearGradient>
  </defs>
  <g>
    <g>
      <g>
        <path d="M129.389,71.08 Q124.886,74.732 117.845,74.732 Q113.097,74.732 107.98,73.047 Q102.863,71.361 98.933,68.311 L103.354,61.328 Q110.968,66.947 118.091,66.947 Q121.202,66.947 123.003,65.542 Q124.804,64.138 124.804,61.971 Q124.804,58.76 116.126,56.192 Q115.471,55.951 115.144,55.87 Q101.553,52.259 101.553,43.831 Q101.553,37.891 106.261,34.32 Q110.968,30.748 118.5,30.748 Q126.032,30.748 132.745,35.082 L129.307,41.744 Q123.985,38.293 117.763,38.293 Q114.489,38.293 112.442,39.457 Q110.395,40.62 110.395,42.948 Q110.395,45.035 112.524,45.998 Q113.997,46.72 116.658,47.363 Q119.319,48.005 121.366,48.647 Q123.412,49.289 125.336,50.091 Q127.26,50.894 129.471,52.339 Q133.892,55.228 133.892,61.328 Q133.892,67.428 129.389,71.08 z" fill="#F0AD3E"/>
        <path d="M153.65,38.614 L153.65,60.285 Q153.65,63.335 155.288,65.141 Q156.925,66.947 159.872,66.947 Q162.82,66.947 165.521,64.138 L169.287,70.478 Q164.457,74.732 158.603,74.732 Q152.75,74.732 148.615,70.759 Q144.481,66.786 144.481,60.044 L144.481,38.614 L138.996,38.614 L138.996,31.39 L144.481,31.39 L144.481,17.986 L153.65,17.986 L153.65,31.39 L165.112,31.39 L165.112,38.614 z" fill="#F0AD3E"/>
        <path d="M177.013,68.632 Q170.873,62.532 170.873,52.58 Q170.873,42.627 177.177,36.687 Q183.481,30.748 192.2,30.748 Q200.919,30.748 206.241,37.972 L206.241,14.535 L215.41,14.535 L215.41,74.09 L206.241,74.09 L206.241,67.669 Q201.165,74.732 191.422,74.732 Q183.154,74.732 177.013,68.632 z M184.054,62.934 Q188.066,66.786 193.469,66.786 Q198.872,66.786 202.638,62.894 Q206.404,59.001 206.404,52.901 Q206.404,46.801 202.638,42.707 Q198.872,38.614 193.387,38.614 Q187.902,38.614 183.972,42.707 Q180.043,46.801 180.043,52.941 Q180.043,59.081 184.054,62.934 z" fill="#F0AD3E"/>
        <path d="M235.904,74.09 L226.735,74.09 L226.735,14.535 L235.904,14.535 z" fill="#00AEEF"/>
        <path d="M256.47,74.09 L247.301,74.09 L247.301,31.39 L256.47,31.39 z M246.155,18.869 Q246.155,16.541 247.874,14.856 Q249.593,13.17 251.967,13.17 Q254.341,13.17 256.061,14.856 Q257.78,16.541 257.78,18.869 Q257.78,21.197 256.061,22.882 Q254.341,24.568 251.967,24.568 Q249.593,24.568 247.874,22.882 Q246.155,21.197 246.155,18.869 z" fill="#00AEEF"/>
        <path d="M306.211,36.687 Q312.433,42.627 312.433,52.499 Q312.433,62.372 306.252,68.552 Q300.071,74.732 291.843,74.732 Q283.615,74.732 277.066,67.669 L277.066,74.09 L267.897,74.09 L267.897,14.535 L277.066,14.535 L277.066,38.855 Q282.469,30.748 291.229,30.748 Q299.989,30.748 306.211,36.687 z M280.668,62.813 Q284.434,66.706 289.837,66.706 Q295.241,66.706 299.252,62.853 Q303.264,59.001 303.264,52.861 Q303.264,46.72 299.334,42.667 Q295.405,38.614 289.919,38.614 Q284.434,38.614 280.668,42.667 Q276.902,46.72 276.902,52.82 Q276.902,58.92 280.668,62.813 z" fill="#00AEEF"/>
      </g>
    </g>
    <g>
      <path d="M43.799,1.289 L29.03,9.782 C27.149,10.883 25.525,12.374 24.269,14.156 C22.461,16.674 22.461,20.065 24.269,22.583 C25.531,24.344 27.154,25.815 29.03,26.899 L38.828,32.556 C38.359,32.214 37.925,31.828 37.53,31.404 C34.167,27.772 34.386,22.103 38.018,18.741 C43.442,15.133 46.008,7.391 43.799,1.289 z" fill="url(#Gradient_1)"/>
      <path d="M72.085,66.585 L64.94,62.459 C67.013,63.625 68.274,65.838 68.221,68.215 C68.167,70.592 66.808,72.746 64.685,73.817 L49.398,82.682 C46.024,84.519 43.889,88.019 43.799,91.86 L43.799,97.801 L72.391,81.297 C74.924,79.687 76.433,76.871 76.371,73.869 C76.308,70.868 74.683,68.117 72.085,66.615 z" fill="url(#Gradient_2)"/>
      <path d="M16.309,70.012 C13.038,67.986 11.061,64.402 11.091,60.556 C11.12,56.709 13.153,53.156 16.455,51.182 L5.833,57.291 C2.511,59.205 0.464,62.748 0.464,66.582 C0.464,70.416 2.511,73.958 5.833,75.873 L15.179,81.267 L43.799,97.772 L43.799,91.831 C43.697,88.001 41.564,84.515 38.201,82.682 L22.892,73.854 C22.676,73.744 22.467,73.622 22.265,73.489 z" fill="#00AEEF"/>
      <path d="M56.673,42.82 L70.401,34.896 C73.719,32.978 75.762,29.437 75.762,25.605 C75.762,21.772 73.719,18.231 70.401,16.314 L66.668,14.127 C67.944,17.57 66.851,21.444 63.963,23.713 L43.799,35.377 L16.455,51.174 C13.153,53.149 11.12,56.702 11.091,60.548 C11.061,64.395 13.038,67.979 16.309,70.004 L22.287,73.453 C20.421,72.237 19.317,70.144 19.366,67.918 C19.415,65.692 20.61,63.65 22.527,62.518 z" fill="url(#Gradient_3)"/>
      <path d="M29.03,26.862 C27.154,25.778 25.531,24.307 24.269,22.546 C22.461,20.028 22.461,16.637 24.269,14.119 C25.529,12.351 27.152,10.872 29.03,9.782 L17.774,16.343 C14.473,18.317 12.44,21.87 12.41,25.717 C12.38,29.563 14.358,33.147 17.628,35.173 L72.085,66.615 C74.683,68.117 76.308,70.868 76.371,73.869 C76.433,76.871 74.924,79.687 72.391,81.297 L81.736,75.902 C85.055,73.985 87.098,70.443 87.098,66.611 C87.098,62.779 85.055,59.237 81.736,57.32 z" fill="#F0AD3E"/>
      <path d="M43.799,1.289 L29.03,9.782 C27.149,10.883 25.525,12.374 24.269,14.156 C22.461,16.674 22.461,20.065 24.269,22.583 C25.531,24.344 27.154,25.815 29.03,26.899 L38.828,32.556 C38.359,32.214 37.925,31.828 37.53,31.404 C34.167,27.772 34.386,22.103 38.018,18.741 C43.442,15.133 46.008,7.391 43.799,1.289 z" fill="url(#Gradient_4)"/>
      <path d="M72.085,66.585 L64.94,62.459 C67.013,63.625 68.274,65.838 68.221,68.215 C68.167,70.592 66.808,72.746 64.685,73.817 L49.398,82.682 C46.024,84.519 43.889,88.019 43.799,91.86 L43.799,97.801 L72.391,81.297 C74.924,79.687 76.433,76.871 76.371,73.869 C76.308,70.868 74.683,68.117 72.085,66.615 z" fill="url(#Gradient_5)"/>
      <path d="M16.309,70.012 C13.038,67.986 11.061,64.402 11.091,60.556 C11.12,56.709 13.153,53.156 16.455,51.182 L5.833,57.291 C2.511,59.205 0.464,62.748 0.464,66.582 C0.464,70.416 2.511,73.958 5.833,75.873 L15.179,81.267 L43.799,97.772 L43.799,91.831 C43.697,88.001 41.564,84.515 38.201,82.682 L22.892,73.854 C22.676,73.744 22.467,73.622 22.265,73.489 z" fill="#00AEEF"/>
      <path d="M56.673,42.82 L70.401,34.896 C73.719,32.978 75.762,29.437 75.762,25.605 C75.762,21.772 73.719,18.231 70.401,16.314 L66.668,14.127 C67.944,17.57 66.851,21.444 63.963,23.713 L43.799,35.377 L16.455,51.174 C13.153,53.149 11.12,56.702 11.091,60.548 C11.061,64.395 13.038,67.979 16.309,70.004 L22.287,73.453 C20.421,72.237 19.317,70.144 19.366,67.918 C19.415,65.692 20.61,63.65 22.527,62.518 z" fill="url(#Gradient_6)"/>
      <path d="M29.03,26.862 C27.154,25.778 25.531,24.307 24.269,22.546 C22.461,20.028 22.461,16.637 24.269,14.119 C25.529,12.351 27.152,10.872 29.03,9.782 L17.774,16.343 C14.473,18.317 12.44,21.87 12.41,25.717 C12.38,29.563 14.358,33.147 17.628,35.173 L72.085,66.615 C74.683,68.117 76.308,70.868 76.371,73.869 C76.433,76.871 74.924,79.687 72.391,81.297 L81.736,75.902 C85.055,73.985 87.098,70.443 87.098,66.611 C87.098,62.779 85.055,59.237 81.736,57.32 z" fill="#F0AD3E"/>
    </g>
  </g>
</svg>
